<svg width="75" height="84" viewBox="0 0 75 84" fill="none" xmlns="http://www.w3.org/2000/svg">
<path fill-rule="evenodd" clip-rule="evenodd" d="M14.1666 16.6247C19.6751 10.2527 24.1426 0.0540118 32.4474 0.0852251C41.0454 0.11754 44.3139 11.3348 50.8335 16.7625C55.3884 20.5546 61.0906 22.4266 64.8184 27.0348C69.3915 32.688 73.9879 38.6969 74.5122 46.0335C75.1208 54.5508 73.3523 63.6136 67.9155 70.3736C62.1717 77.5152 53.5381 82.8514 44.499 83.3511C35.824 83.8307 29.0335 77.2627 21.637 72.932C14.8123 68.936 6.80694 66.1071 3.10357 59.1138C-0.638796 52.0468 -0.230912 43.3939 1.82121 35.5125C3.75216 28.0965 9.11897 22.4637 14.1666 16.6247Z" fill="url(#paint0_linear_748_17264)"/>
<defs>
<linearGradient id="paint0_linear_748_17264" x1="9.24565" y1="18.8227" x2="61.7976" y2="79.6596" gradientUnits="userSpaceOnUse">
<stop stop-color="#7DFFA6"/>
<stop offset="0.49" stop-color="#BEB5FF"/>
<stop offset="1" stop-color="#B363FF"/>
</linearGradient>
</defs>
</svg>
