<svg width="32" height="32" viewBox="0 0 32 32" fill="none" xmlns="http://www.w3.org/2000/svg">
<g id="China (CN)">
<path id="Vector" d="M0 16C0 7.16344 7.16344 0 16 0C24.8366 0 32 7.16344 32 16C32 24.8366 24.8366 32 16 32C7.16344 32 0 24.8366 0 16Z" fill="#EE1C25"/>
<path id="Vector_2" d="M6.33147 17.2808L9.89313 6.5957L13.4548 17.2808L3.95703 10.751H15.8292L6.33147 17.2808Z" fill="#FFFF00"/>
<path id="Vector_3" d="M21.7792 6.80093L18.1138 7.61321L20.5588 4.76412L20.319 8.59862L18.2849 5.20393L21.7792 6.80093Z" fill="#FFFF00"/>
<path id="Vector_4" d="M25.4788 11.4884L21.7853 10.8155L25.1439 9.13765L23.4357 12.579L22.8774 8.66114L25.4788 11.4884Z" fill="#FFFF00"/>
<path id="Vector_5" d="M24.9408 18.066L21.8429 15.9452L25.5937 15.7831L22.6305 18.2285L23.7187 14.4236L24.9408 18.066Z" fill="#FFFF00"/>
<path id="Vector_6" d="M20.2809 22.363L18.2425 19.2102L21.7649 20.5093L18.0871 21.6205L20.5604 18.5312L20.2809 22.363Z" fill="#FFFF00"/>
</g>
</svg>
