<svg width="25" height="24" viewBox="0 0 25 24" fill="none" xmlns="http://www.w3.org/2000/svg">
<g clip-path="url(#clip0_664_5580)">
<path d="M17.1988 15.6682L17.8722 12.001H13.9525V10.704C13.9525 8.76624 14.7128 8.0208 16.6804 8.0208C17.2914 8.0208 17.7834 8.03568 18.0666 8.06544V4.74144C17.53 4.59216 16.2181 4.44336 15.4578 4.44336C11.4479 4.44336 9.5994 6.33648 9.5994 10.4208V12.001H7.125V15.6682H9.5994V23.6477C10.5277 23.8781 11.4988 24.001 12.4981 24.001C12.9901 24.001 13.4754 23.9707 13.952 23.9131V15.6682H17.1983H17.1988Z" fill="white"/>
<path d="M24.5 12C24.5 5.37264 19.1274 0 12.5 0C5.87264 0 0.5 5.37264 0.5 12C0.5 17.6275 4.37456 22.3498 9.60128 23.6467V15.6672H7.12688V12H9.60128V10.4198C9.60128 6.33552 11.4498 4.4424 15.4597 4.4424C16.22 4.4424 17.5318 4.59168 18.0685 4.74048V8.06448C17.7853 8.03472 17.2933 8.01984 16.6822 8.01984C14.7147 8.01984 13.9544 8.76528 13.9544 10.703V12H17.8741L17.2006 15.6672H13.9544V23.9122C19.8963 23.1946 24.5005 18.1354 24.5005 12H24.5Z" fill="#0866FF"/>
</g>
<defs>
<clipPath id="clip0_664_5580">
<rect width="24" height="24" fill="white" transform="translate(0.5)"/>
</clipPath>
</defs>
</svg>
