<svg width="21" height="21" viewBox="0 0 21 21" fill="none" xmlns="http://www.w3.org/2000/svg">
<g clip-path="url(#clip0_40000018_2)">
<path d="M20.4998 10.7299C20.4998 9.88023 20.4323 9.26018 20.2863 8.61719H10.7891V12.4522H16.3637C16.2514 13.4053 15.6444 14.8406 14.2957 15.805L14.2768 15.9334L17.2796 18.31L17.4877 18.3312C19.3983 16.5284 20.4998 13.876 20.4998 10.7299Z" fill="#4285F4"/>
<path d="M10.7903 20.8331C13.5214 20.8331 15.8142 19.9145 17.4889 18.33L14.2969 15.8039C13.4428 16.4124 12.2963 16.8373 10.7903 16.8373C8.11538 16.8373 5.84506 15.0346 5.03576 12.543L4.91713 12.5533L1.79474 15.0219L1.75391 15.1379C3.4173 18.5137 6.83405 20.8331 10.7903 20.8331Z" fill="#34A853"/>
<path d="M5.03463 12.5435C4.82108 11.9005 4.6975 11.2116 4.6975 10.4997C4.6975 9.78774 4.82108 9.09883 5.02339 8.45584L5.01773 8.31889L1.85621 5.81055L1.75277 5.86081C1.06721 7.26166 0.673828 8.83476 0.673828 10.4997C0.673828 12.1646 1.06721 13.7376 1.75277 15.1385L5.03463 12.5435Z" fill="#FBBC05"/>
<path d="M10.7903 4.16181C12.6897 4.16181 13.971 5.00001 14.7016 5.70048L17.5563 2.85286C15.803 1.18794 13.5214 0.166016 10.7903 0.166016C6.83405 0.166016 3.4173 2.48541 1.75391 5.86117L5.02452 8.45619C5.84506 5.96455 8.11538 4.16181 10.7903 4.16181Z" fill="#EB4335"/>
</g>
<defs>
<clipPath id="clip0_40000018_2">
<rect x="0.673828" y="0.136719" width="19.8261" height="20.7273" rx="9.91304" fill="white"/>
</clipPath>
</defs>
</svg>
