<svg width="24" height="24"  viewBox="0 0 24 24" fill="none" xmlns="http://www.w3.org/2000/svg">
<path id="icon" d="M15.3433 12.7558C15.7337 12.3654 16.3668 12.3654 16.7573 12.7559L21 16.9986L16.7574 21.2412C16.3669 21.6317 15.7337 21.6318 15.3432 21.2412C14.9526 20.8507 14.9526 20.2175 15.3431 19.827L17.172 17.9978L4 17.9986V15.9986L17.172 15.9978L15.3434 14.1701C14.9527 13.7796 14.9527 13.1464 15.3433 12.7558ZM7.24272 2.75586C7.6332 2.36538 8.2663 2.36538 8.65678 2.75586C9.04732 3.1464 9.04724 3.77962 8.65661 4.17007L6.828 5.99783L20 5.99858V7.99858L6.828 7.99783L8.65693 9.827C9.04742 10.2175 9.0474 10.8507 8.65688 11.2412C8.26634 11.6317 7.63316 11.6317 7.24263 11.2412L3 6.99858L7.24272 2.75586Z"/>
</svg>
