<svg width="60" height="21" viewBox="0 0 60 21" fill="none" xmlns="http://www.w3.org/2000/svg">
<g id="Logo">
<g id="Pay Typeface 3">
<path id="Letter p 3" d="M28.0035 9.70111V16.1875H25.8008V0.169922H31.6402C33.1201 0.169922 34.382 0.630938 35.4146 1.55297C36.47 2.47499 36.9977 3.60072 36.9977 4.93016C36.9977 6.29176 36.47 7.41749 35.4146 8.32879C34.3935 9.2401 33.1316 9.69039 31.6402 9.69039H28.0035V9.70111ZM28.0035 2.14263V7.7284H31.6861C32.558 7.7284 33.2922 7.44965 33.8658 6.90287C34.4509 6.35608 34.7492 5.69136 34.7492 4.94088C34.7492 4.20111 34.4509 3.54712 33.8658 3.00033C33.2922 2.43211 32.5694 2.15335 31.6861 2.15335H28.0035V2.14263Z" fill="#5F6368"/>
<path id="Letter a 3" d="M42.7573 4.86523C44.3863 4.86523 45.6712 5.27264 46.612 6.08746C47.5527 6.90227 48.0231 8.01728 48.0231 9.43249V16.1869H45.9236V14.6645H45.8319C44.9255 15.9188 43.7095 16.5407 42.1951 16.5407C40.8988 16.5407 39.8204 16.1869 38.9485 15.4685C38.0766 14.7502 37.6406 13.8604 37.6406 12.7882C37.6406 11.6518 38.0995 10.7512 39.0173 10.0865C39.9351 9.41104 41.1626 9.07868 42.6884 9.07868C43.9963 9.07868 45.0747 9.30383 45.9122 9.75412V9.28239C45.9122 8.56406 45.6139 7.96367 45.0058 7.45977C44.3978 6.95588 43.6865 6.70929 42.872 6.70929C41.6445 6.70929 40.6693 7.19174 39.958 8.16738L38.0192 7.03092C39.0861 5.58356 40.6693 4.86523 42.7573 4.86523ZM39.9121 12.8204C39.9121 13.3565 40.1531 13.8068 40.6464 14.1606C41.1282 14.5144 41.7018 14.6966 42.3557 14.6966C43.285 14.6966 44.111 14.375 44.8338 13.7317C45.5565 13.0884 45.9236 12.3379 45.9236 11.4695C45.2353 10.9656 44.2831 10.7083 43.0556 10.7083C42.1607 10.7083 41.415 10.912 40.8185 11.3087C40.2104 11.7268 39.9121 12.2307 39.9121 12.8204Z" fill="#5F6368"/>
<path id="Letter y 3" d="M60.0001 5.21875L52.6578 21.0004H50.3863L53.1167 15.479L48.2754 5.21875H50.6731L54.1607 13.0881H54.2066L57.6024 5.21875H60.0001Z" fill="#5F6368"/>
</g>
<g id="G Mark 1">
<path id="Blue 500" d="M19.2426 10.2258C19.2426 9.55467 19.1784 8.91247 19.0591 8.29492H9.82617V11.8329L15.1436 11.834C14.9279 13.0112 14.2338 14.0147 13.1703 14.6837V16.9791H16.3355C18.1837 15.3806 19.2426 13.0176 19.2426 10.2258Z" fill="#4285F4"/>
<path id="Green 500 1" d="M13.1711 14.6843C12.2901 15.2396 11.1554 15.5645 9.8281 15.5645C7.26405 15.5645 5.0889 13.9499 4.30993 11.7734H1.04492V14.1407C2.66251 17.1405 5.98718 19.199 9.8281 19.199C12.4828 19.199 14.713 18.3831 16.3363 16.9786L13.1711 14.6843Z" fill="#34A853"/>
<path id="Yellow 500 1" d="M4.00268 10.017C4.00268 9.40593 4.11166 8.81519 4.31013 8.25983V5.89258H1.04512C0.376289 7.13303 0 8.53322 0 10.017C0 11.5009 0.377436 12.9011 1.04512 14.1415L4.31013 11.7743C4.11166 11.2189 4.00268 10.6282 4.00268 10.017Z" fill="#FABB05"/>
<path id="Red 500" d="M9.8281 4.46849C11.2771 4.46849 12.5746 4.93486 13.599 5.84617L16.404 3.22697C14.7004 1.74422 12.4794 0.833984 9.8281 0.833984C5.98833 0.833984 2.66251 2.89246 1.04492 5.89227L4.30993 8.25952C5.0889 6.08311 7.26405 4.46849 9.8281 4.46849Z" fill="#E94235"/>
</g>
</g>
</svg>
