<svg width="29" height="25" id="icon" viewBox="0 0 29 25" xmlns="http://www.w3.org/2000/svg">
<path d="M27.1875 10.7156H5.69125L12.2706 2.93054C12.5783 2.5659 12.7263 2.0958 12.6821 1.62366C12.6379 1.15151 12.4051 0.715991 12.035 0.412913C11.6649 0.109836 11.1877 -0.0359758 10.7084 0.00755557C10.2291 0.0510869 9.78703 0.280396 9.47937 0.645036L0.416875 11.3584C0.355904 11.4436 0.301381 11.5331 0.25375 11.6262C0.25375 11.7155 0.25375 11.769 0.126875 11.8583C0.044721 12.063 0.00170578 12.281 0 12.5011C0.00170578 12.7213 0.044721 12.9392 0.126875 13.1439C0.126875 13.2332 0.126875 13.2868 0.25375 13.376C0.301381 13.4691 0.355904 13.5587 0.416875 13.6439L9.47937 24.3572C9.64979 24.5588 9.86319 24.7208 10.1044 24.8319C10.3456 24.943 10.6087 25.0004 10.875 25C11.2985 25.0008 11.7089 24.8555 12.035 24.5893C12.2185 24.4394 12.3702 24.2553 12.4814 24.0476C12.5926 23.8398 12.6611 23.6125 12.683 23.3787C12.7049 23.1448 12.6798 22.909 12.609 22.6847C12.5382 22.4604 12.4232 22.2521 12.2706 22.0717L5.69125 14.2867H27.1875C27.6682 14.2867 28.1292 14.0985 28.4691 13.7637C28.809 13.4288 29 12.9747 29 12.5011C29 12.0276 28.809 11.5734 28.4691 11.2385C28.1292 10.9037 27.6682 10.7156 27.1875 10.7156Z"/>
</svg>
