<svg width="24" height="24" viewBox="0 0 24 24" fill="none" xmlns="http://www.w3.org/2000/svg">
<path d="M9.60151 17.815C9.45857 18.3484 8.91021 18.665 8.37673 18.5221C7.84328 18.3791 7.52671 17.8308 7.66965 17.2973L8.1983 15.3244C7.00919 14.8864 5.91661 14.2488 4.96116 13.4524L3.51493 14.8986C3.12441 15.2892 2.49125 15.2891 2.10073 14.8986C1.71021 14.5081 1.71021 13.8749 2.10074 13.4844L3.54695 12.0382C2.35581 10.6093 1.52014 8.87368 1.17578 6.96721L3.14386 6.60938C3.90289 10.8116 7.57931 13.9991 12.0002 13.9991C16.4211 13.9991 20.0976 10.8116 20.8566 6.60938L22.8247 6.96721C22.4803 8.87368 21.6446 10.6093 20.4535 12.0382L21.8997 13.4844C22.2902 13.8749 22.2902 14.5081 21.8997 14.8986C21.5092 15.2891 20.876 15.2891 20.4855 14.8986L19.0393 13.4524C18.0838 14.2488 16.9912 14.8864 15.8021 15.3244L16.3308 17.2973C16.4737 17.8308 16.1572 18.3791 15.6237 18.5221C15.0903 18.665 14.5419 18.3485 14.399 17.815L13.87 15.8408C13.2623 15.9449 12.6376 15.9991 12.0002 15.9991C11.3629 15.9991 10.7381 15.9449 10.1305 15.8408L9.60151 17.815Z" fill="#141414"/>
</svg>
