<svg width="49" height="34" viewBox="0 0 49 34" fill="none" xmlns="http://www.w3.org/2000/svg">
<g id="United States of America" filter="url(#filter0_di_597_54)">
<g id="Clip path group">
<mask id="mask0_597_54" style="mask-type:luminance" maskUnits="userSpaceOnUse" x="1" y="1" width="47" height="32">
<g id="clip0_746_10364">
<path id="Vector" d="M45 1H4C2.34315 1 1 2.34315 1 4V30C1 31.6569 2.34315 33 4 33H45C46.6569 33 48 31.6569 48 30V4C48 2.34315 46.6569 1 45 1Z" fill="white"/>
</g>
</mask>
<g mask="url(#mask0_597_54)">
<g id="Group">
<path id="Vector_2" d="M45 1H4C2.34315 1 1 2.34315 1 4V30C1 31.6569 2.34315 33 4 33H45C46.6569 33 48 31.6569 48 30V4C48 2.34315 46.6569 1 45 1Z" fill="white"/>
<path id="Vector_3" d="M45 1H4C2.34315 1 1 2.34315 1 4V30C1 31.6569 2.34315 33 4 33H45C46.6569 33 48 31.6569 48 30V4C48 2.34315 46.6569 1 45 1Z" fill="white"/>
<g id="Wrap">
<path id="Element" d="M48 1H1V33H48V1Z" fill="#B31942"/>
<g id="Element_2">
<path id="Vector_4" d="M1 4.69141H48M48 9.61448H1M1 14.5376H48M48 19.4606H1M1 24.3837H48M48 29.3068H1" stroke="white" stroke-width="1.79081"/>
</g>
<path id="Element_3" d="M24.7595 1H1V18.2308H24.7595V1Z" fill="#0A3161"/>
<g id="Element_4">
<g id="Element_5">
<g id="Element_6">
<g id="Element_7">
<g id="Element_8">
<path id="Element_9" d="M2.98515 1.73828L3.55056 3.51947L2.07031 2.41863H3.9L2.41975 3.51947L2.98515 1.73828Z" fill="white"/>
<path id="Element_10" d="M2.98515 5.18359L3.55056 6.96478L2.07031 5.86395H3.9L2.41975 6.96478L2.98515 5.18359Z" fill="white"/>
<path id="Element_11" d="M2.98515 8.63086L3.55056 10.412L2.07031 9.31121H3.9L2.41975 10.412L2.98515 8.63086Z" fill="white"/>
<path id="Element_12" d="M2.98515 12.0771L3.55056 13.8583L2.07031 12.7575H3.9L2.41975 13.8583L2.98515 12.0771Z" fill="white"/>
</g>
<path id="Element_13" d="M2.98515 15.5234L3.55056 17.3046L2.07031 16.2038H3.9L2.41975 17.3046L2.98515 15.5234Z" fill="white"/>
</g>
<g id="Element_14">
<path id="Element_15" d="M4.96562 3.46094L5.53103 5.24212L4.05078 4.14129H5.88047L4.40022 5.24212L4.96562 3.46094Z" fill="white"/>
<path id="Element_16" d="M4.96562 6.90625L5.53103 8.68744L4.05078 7.5866H5.88047L4.40022 8.68744L4.96562 6.90625Z" fill="white"/>
<path id="Element_17" d="M4.96562 10.3535L5.53103 12.1347L4.05078 11.0339H5.88047L4.40022 12.1347L4.96562 10.3535Z" fill="white"/>
<path id="Element_18" d="M4.96562 13.7998L5.53103 15.581L4.05078 14.4802H5.88047L4.40022 15.581L4.96562 13.7998Z" fill="white"/>
</g>
</g>
<g id="Element_19">
<g id="Element_20">
<g id="Element_21">
<path id="Element_22" d="M6.93828 1.73828L7.50368 3.51947L6.02344 2.41863H7.85312L6.37288 3.51947L6.93828 1.73828Z" fill="white"/>
<path id="Element_23" d="M6.93828 5.18359L7.50368 6.96478L6.02344 5.86395H7.85312L6.37288 6.96478L6.93828 5.18359Z" fill="white"/>
<path id="Element_24" d="M6.93828 8.63086L7.50368 10.412L6.02344 9.31121H7.85312L6.37288 10.412L6.93828 8.63086Z" fill="white"/>
<path id="Element_25" d="M6.93828 12.0771L7.50368 13.8583L6.02344 12.7575H7.85312L6.37288 13.8583L6.93828 12.0771Z" fill="white"/>
</g>
<path id="Element_26" d="M6.94219 15.5234L7.50759 17.3046L6.02734 16.2038H7.85703L6.37678 17.3046L6.94219 15.5234Z" fill="white"/>
</g>
<g id="Element_27">
<path id="Element_28" d="M8.91871 3.46094L9.48421 5.24212L8.00391 4.14129H9.83361L8.35331 5.24212L8.91871 3.46094Z" fill="white"/>
<path id="Element_29" d="M8.91871 6.90625L9.48421 8.68744L8.00391 7.5866H9.83361L8.35331 8.68744L8.91871 6.90625Z" fill="white"/>
<path id="Element_30" d="M8.91871 10.3535L9.48421 12.1347L8.00391 11.0339H9.83361L8.35331 12.1347L8.91871 10.3535Z" fill="white"/>
<path id="Element_31" d="M8.91871 13.7998L9.48421 15.581L8.00391 14.4802H9.83361L8.35331 15.581L8.91871 13.7998Z" fill="white"/>
</g>
</g>
</g>
<g id="Element_32">
<g id="Element_33">
<g id="Element_34">
<g id="Element_35">
<path id="Element_36" d="M10.8992 1.73828L11.4646 3.51947L9.98438 2.41863H11.8141L10.3338 3.51947L10.8992 1.73828Z" fill="white"/>
<path id="Element_37" d="M10.8992 5.18359L11.4646 6.96478L9.98438 5.86395H11.8141L10.3338 6.96478L10.8992 5.18359Z" fill="white"/>
<path id="Element_38" d="M10.8992 8.63086L11.4646 10.412L9.98438 9.31121H11.8141L10.3338 10.412L10.8992 8.63086Z" fill="white"/>
<path id="Element_39" d="M10.8992 12.0771L11.4646 13.8583L9.98438 12.7575H11.8141L10.3338 13.8583L10.8992 12.0771Z" fill="white"/>
</g>
<path id="Element_40" d="M10.8992 15.5234L11.4646 17.3046L9.98438 16.2038H11.8141L10.3338 17.3046L10.8992 15.5234Z" fill="white"/>
</g>
<g id="Element_41">
<path id="Element_42" d="M12.8797 3.46191L13.4451 5.2431L11.9648 4.14227H13.7945L12.3143 5.2431L12.8797 3.46191Z" fill="white"/>
<path id="Element_43" d="M12.8797 6.90723L13.4451 8.68841L11.9648 7.58758H13.7945L12.3143 8.68841L12.8797 6.90723Z" fill="white"/>
<path id="Element_44" d="M12.8797 10.3545L13.4451 12.1357L11.9648 11.0348H13.7945L12.3143 12.1357L12.8797 10.3545Z" fill="white"/>
<path id="Element_45" d="M12.8797 13.8008L13.4451 15.582L11.9648 14.4811H13.7945L12.3143 15.582L12.8797 13.8008Z" fill="white"/>
</g>
</g>
<g id="Element_46">
<g id="Element_47">
<g id="Element_48">
<path id="Element_49" d="M14.8484 1.73828L15.4138 3.51947L13.9336 2.41863H15.7633L14.283 3.51947L14.8484 1.73828Z" fill="white"/>
<path id="Element_50" d="M14.8484 5.18359L15.4138 6.96478L13.9336 5.86395H15.7633L14.283 6.96478L14.8484 5.18359Z" fill="white"/>
<path id="Element_51" d="M14.8484 8.63086L15.4138 10.412L13.9336 9.31121H15.7633L14.283 10.412L14.8484 8.63086Z" fill="white"/>
<path id="Element_52" d="M14.8484 12.0771L15.4138 13.8583L13.9336 12.7575H15.7633L14.283 13.8583L14.8484 12.0771Z" fill="white"/>
</g>
<path id="Element_53" d="M14.8484 15.5234L15.4138 17.3046L13.9336 16.2038H15.7633L14.283 17.3046L14.8484 15.5234Z" fill="white"/>
</g>
<g id="Element_54">
<path id="Element_55" d="M16.8367 3.46191L17.4021 5.2431L15.9219 4.14227H17.7516L16.2713 5.2431L16.8367 3.46191Z" fill="white"/>
<path id="Element_56" d="M16.8367 6.90723L17.4021 8.68841L15.9219 7.58758H17.7516L16.2713 8.68841L16.8367 6.90723Z" fill="white"/>
<path id="Element_57" d="M16.8367 10.3545L17.4021 12.1357L15.9219 11.0348H17.7516L16.2713 12.1357L16.8367 10.3545Z" fill="white"/>
<path id="Element_58" d="M16.8367 13.8008L17.4021 15.582L15.9219 14.4811H17.7516L16.2713 15.582L16.8367 13.8008Z" fill="white"/>
</g>
</g>
</g>
<g id="Element_59">
<g id="Element_60">
<g id="Element_61">
<path id="Element_62" d="M18.8172 1.73926L19.3826 3.52044L17.9023 2.41961H19.732L18.2518 3.52044L18.8172 1.73926Z" fill="white"/>
<path id="Element_63" d="M18.8172 5.18457L19.3826 6.96576L17.9023 5.86492H19.732L18.2518 6.96576L18.8172 5.18457Z" fill="white"/>
<path id="Element_64" d="M18.8172 8.63184L19.3826 10.413L17.9023 9.31219H19.732L18.2518 10.413L18.8172 8.63184Z" fill="white"/>
<path id="Element_65" d="M18.8172 12.0781L19.3826 13.8593L17.9023 12.7585H19.732L18.2518 13.8593L18.8172 12.0781Z" fill="white"/>
</g>
<path id="Element_66" d="M18.8172 15.5244L19.3826 17.3056L17.9023 16.2048H19.732L18.2518 17.3056L18.8172 15.5244Z" fill="white"/>
</g>
<g id="Element_67">
<path id="Element_68" d="M20.8016 3.46191L21.367 5.2431L19.8867 4.14227H21.7164L20.2362 5.2431L20.8016 3.46191Z" fill="white"/>
<path id="Element_69" d="M20.8016 6.90723L21.367 8.68841L19.8867 7.58758H21.7164L20.2362 8.68841L20.8016 6.90723Z" fill="white"/>
<path id="Element_70" d="M20.8016 10.3545L21.367 12.1357L19.8867 11.0348H21.7164L20.2362 12.1357L20.8016 10.3545Z" fill="white"/>
<path id="Element_71" d="M20.8016 13.8008L21.367 15.582L19.8867 14.4811H21.7164L20.2362 15.582L20.8016 13.8008Z" fill="white"/>
</g>
</g>
<g id="Element_72">
<g id="Element_73">
<path id="Element_74" d="M22.7859 1.74023L23.3513 3.52142L21.8711 2.42059H23.7008L22.2205 3.52142L22.7859 1.74023Z" fill="white"/>
<path id="Element_75" d="M22.7859 5.18652L23.3513 6.96771L21.8711 5.86688H23.7008L22.2205 6.96771L22.7859 5.18652Z" fill="white"/>
<path id="Element_76" d="M22.7859 8.63281L23.3513 10.414L21.8711 9.31317H23.7008L22.2205 10.414L22.7859 8.63281Z" fill="white"/>
<path id="Element_77" d="M22.7859 12.0791L23.3513 13.8603L21.8711 12.7595H23.7008L22.2205 13.8603L22.7859 12.0791Z" fill="white"/>
</g>
<path id="Element_78" d="M22.782 15.5244L23.3474 17.3056L21.8672 16.2048H23.6969L22.2166 17.3056L22.782 15.5244Z" fill="white"/>
</g>
</g>
</g>
</g>
<g id="Group_2">
<path id="Vector_5" d="M45 1H4C2.34315 1 1 2.34315 1 4V30C1 31.6569 2.34315 33 4 33H45C46.6569 33 48 31.6569 48 30V4C48 2.34315 46.6569 1 45 1Z" fill="white"/>
<path id="Vector_6" d="M45 1H4C2.34315 1 1 2.34315 1 4V30C1 31.6569 2.34315 33 4 33H45C46.6569 33 48 31.6569 48 30V4C48 2.34315 46.6569 1 45 1Z" fill="white"/>
<g id="Wrap_2">
<path id="Element_79" d="M48 1H1V33H48V1Z" fill="#B31942"/>
<g id="Element_2_2">
<path id="Vector_7" d="M1 4.69141H48M48 9.61448H1M1 14.5376H48M48 19.4606H1M1 24.3837H48M48 29.3068H1" stroke="white" stroke-width="1.79081"/>
</g>
<path id="Element_3_2" d="M24.7595 1H1V18.2308H24.7595V1Z" fill="#0A3161"/>
<g id="Element_4_2">
<g id="Element_5_2">
<g id="Element_6_2">
<g id="Element_7_2">
<g id="Element_8_2">
<path id="Element_9_2" d="M2.98515 1.73828L3.55056 3.51947L2.07031 2.41863H3.9L2.41975 3.51947L2.98515 1.73828Z" fill="white"/>
<path id="Element_10_2" d="M2.98515 5.18359L3.55056 6.96478L2.07031 5.86395H3.9L2.41975 6.96478L2.98515 5.18359Z" fill="white"/>
<path id="Element_11_2" d="M2.98515 8.63086L3.55056 10.412L2.07031 9.31121H3.9L2.41975 10.412L2.98515 8.63086Z" fill="white"/>
<path id="Element_12_2" d="M2.98515 12.0771L3.55056 13.8583L2.07031 12.7575H3.9L2.41975 13.8583L2.98515 12.0771Z" fill="white"/>
</g>
<path id="Element_13_2" d="M2.98515 15.5234L3.55056 17.3046L2.07031 16.2038H3.9L2.41975 17.3046L2.98515 15.5234Z" fill="white"/>
</g>
<g id="Element_14_2">
<path id="Element_15_2" d="M4.96562 3.46094L5.53103 5.24212L4.05078 4.14129H5.88047L4.40022 5.24212L4.96562 3.46094Z" fill="white"/>
<path id="Element_16_2" d="M4.96562 6.90625L5.53103 8.68744L4.05078 7.5866H5.88047L4.40022 8.68744L4.96562 6.90625Z" fill="white"/>
<path id="Element_17_2" d="M4.96562 10.3535L5.53103 12.1347L4.05078 11.0339H5.88047L4.40022 12.1347L4.96562 10.3535Z" fill="white"/>
<path id="Element_18_2" d="M4.96562 13.7998L5.53103 15.581L4.05078 14.4802H5.88047L4.40022 15.581L4.96562 13.7998Z" fill="white"/>
</g>
</g>
<g id="Element_19_2">
<g id="Element_20_2">
<g id="Element_21_2">
<path id="Element_22_2" d="M6.93828 1.73828L7.50368 3.51947L6.02344 2.41863H7.85312L6.37288 3.51947L6.93828 1.73828Z" fill="white"/>
<path id="Element_23_2" d="M6.93828 5.18359L7.50368 6.96478L6.02344 5.86395H7.85312L6.37288 6.96478L6.93828 5.18359Z" fill="white"/>
<path id="Element_24_2" d="M6.93828 8.63086L7.50368 10.412L6.02344 9.31121H7.85312L6.37288 10.412L6.93828 8.63086Z" fill="white"/>
<path id="Element_25_2" d="M6.93828 12.0771L7.50368 13.8583L6.02344 12.7575H7.85312L6.37288 13.8583L6.93828 12.0771Z" fill="white"/>
</g>
<path id="Element_26_2" d="M6.94219 15.5234L7.50759 17.3046L6.02734 16.2038H7.85703L6.37678 17.3046L6.94219 15.5234Z" fill="white"/>
</g>
<g id="Element_27_2">
<path id="Element_28_2" d="M8.91871 3.46094L9.48421 5.24212L8.00391 4.14129H9.83361L8.35331 5.24212L8.91871 3.46094Z" fill="white"/>
<path id="Element_29_2" d="M8.91871 6.90625L9.48421 8.68744L8.00391 7.5866H9.83361L8.35331 8.68744L8.91871 6.90625Z" fill="white"/>
<path id="Element_30_2" d="M8.91871 10.3535L9.48421 12.1347L8.00391 11.0339H9.83361L8.35331 12.1347L8.91871 10.3535Z" fill="white"/>
<path id="Element_31_2" d="M8.91871 13.7998L9.48421 15.581L8.00391 14.4802H9.83361L8.35331 15.581L8.91871 13.7998Z" fill="white"/>
</g>
</g>
</g>
<g id="Element_32_2">
<g id="Element_33_2">
<g id="Element_34_2">
<g id="Element_35_2">
<path id="Element_36_2" d="M10.8992 1.73828L11.4646 3.51947L9.98438 2.41863H11.8141L10.3338 3.51947L10.8992 1.73828Z" fill="white"/>
<path id="Element_37_2" d="M10.8992 5.18359L11.4646 6.96478L9.98438 5.86395H11.8141L10.3338 6.96478L10.8992 5.18359Z" fill="white"/>
<path id="Element_38_2" d="M10.8992 8.63086L11.4646 10.412L9.98438 9.31121H11.8141L10.3338 10.412L10.8992 8.63086Z" fill="white"/>
<path id="Element_39_2" d="M10.8992 12.0771L11.4646 13.8583L9.98438 12.7575H11.8141L10.3338 13.8583L10.8992 12.0771Z" fill="white"/>
</g>
<path id="Element_40_2" d="M10.8992 15.5234L11.4646 17.3046L9.98438 16.2038H11.8141L10.3338 17.3046L10.8992 15.5234Z" fill="white"/>
</g>
<g id="Element_41_2">
<path id="Element_42_2" d="M12.8797 3.46191L13.4451 5.2431L11.9648 4.14227H13.7945L12.3143 5.2431L12.8797 3.46191Z" fill="white"/>
<path id="Element_43_2" d="M12.8797 6.90723L13.4451 8.68841L11.9648 7.58758H13.7945L12.3143 8.68841L12.8797 6.90723Z" fill="white"/>
<path id="Element_44_2" d="M12.8797 10.3545L13.4451 12.1357L11.9648 11.0348H13.7945L12.3143 12.1357L12.8797 10.3545Z" fill="white"/>
<path id="Element_45_2" d="M12.8797 13.8008L13.4451 15.582L11.9648 14.4811H13.7945L12.3143 15.582L12.8797 13.8008Z" fill="white"/>
</g>
</g>
<g id="Element_46_2">
<g id="Element_47_2">
<g id="Element_48_2">
<path id="Element_49_2" d="M14.8484 1.73828L15.4138 3.51947L13.9336 2.41863H15.7633L14.283 3.51947L14.8484 1.73828Z" fill="white"/>
<path id="Element_50_2" d="M14.8484 5.18359L15.4138 6.96478L13.9336 5.86395H15.7633L14.283 6.96478L14.8484 5.18359Z" fill="white"/>
<path id="Element_51_2" d="M14.8484 8.63086L15.4138 10.412L13.9336 9.31121H15.7633L14.283 10.412L14.8484 8.63086Z" fill="white"/>
<path id="Element_52_2" d="M14.8484 12.0771L15.4138 13.8583L13.9336 12.7575H15.7633L14.283 13.8583L14.8484 12.0771Z" fill="white"/>
</g>
<path id="Element_53_2" d="M14.8484 15.5234L15.4138 17.3046L13.9336 16.2038H15.7633L14.283 17.3046L14.8484 15.5234Z" fill="white"/>
</g>
<g id="Element_54_2">
<path id="Element_55_2" d="M16.8367 3.46191L17.4021 5.2431L15.9219 4.14227H17.7516L16.2713 5.2431L16.8367 3.46191Z" fill="white"/>
<path id="Element_56_2" d="M16.8367 6.90723L17.4021 8.68841L15.9219 7.58758H17.7516L16.2713 8.68841L16.8367 6.90723Z" fill="white"/>
<path id="Element_57_2" d="M16.8367 10.3545L17.4021 12.1357L15.9219 11.0348H17.7516L16.2713 12.1357L16.8367 10.3545Z" fill="white"/>
<path id="Element_58_2" d="M16.8367 13.8008L17.4021 15.582L15.9219 14.4811H17.7516L16.2713 15.582L16.8367 13.8008Z" fill="white"/>
</g>
</g>
</g>
<g id="Element_59_2">
<g id="Element_60_2">
<g id="Element_61_2">
<path id="Element_62_2" d="M18.8172 1.73926L19.3826 3.52044L17.9023 2.41961H19.732L18.2518 3.52044L18.8172 1.73926Z" fill="white"/>
<path id="Element_63_2" d="M18.8172 5.18457L19.3826 6.96576L17.9023 5.86492H19.732L18.2518 6.96576L18.8172 5.18457Z" fill="white"/>
<path id="Element_64_2" d="M18.8172 8.63184L19.3826 10.413L17.9023 9.31219H19.732L18.2518 10.413L18.8172 8.63184Z" fill="white"/>
<path id="Element_65_2" d="M18.8172 12.0781L19.3826 13.8593L17.9023 12.7585H19.732L18.2518 13.8593L18.8172 12.0781Z" fill="white"/>
</g>
<path id="Element_66_2" d="M18.8172 15.5244L19.3826 17.3056L17.9023 16.2048H19.732L18.2518 17.3056L18.8172 15.5244Z" fill="white"/>
</g>
<g id="Element_67_2">
<path id="Element_68_2" d="M20.8016 3.46191L21.367 5.2431L19.8867 4.14227H21.7164L20.2362 5.2431L20.8016 3.46191Z" fill="white"/>
<path id="Element_69_2" d="M20.8016 6.90723L21.367 8.68841L19.8867 7.58758H21.7164L20.2362 8.68841L20.8016 6.90723Z" fill="white"/>
<path id="Element_70_2" d="M20.8016 10.3545L21.367 12.1357L19.8867 11.0348H21.7164L20.2362 12.1357L20.8016 10.3545Z" fill="white"/>
<path id="Element_71_2" d="M20.8016 13.8008L21.367 15.582L19.8867 14.4811H21.7164L20.2362 15.582L20.8016 13.8008Z" fill="white"/>
</g>
</g>
<g id="Element_72_2">
<g id="Element_73_2">
<path id="Element_74_2" d="M22.7859 1.74023L23.3513 3.52142L21.8711 2.42059H23.7008L22.2205 3.52142L22.7859 1.74023Z" fill="white"/>
<path id="Element_75_2" d="M22.7859 5.18652L23.3513 6.96771L21.8711 5.86688H23.7008L22.2205 6.96771L22.7859 5.18652Z" fill="white"/>
<path id="Element_76_2" d="M22.7859 8.63281L23.3513 10.414L21.8711 9.31317H23.7008L22.2205 10.414L22.7859 8.63281Z" fill="white"/>
<path id="Element_77_2" d="M22.7859 12.0791L23.3513 13.8603L21.8711 12.7595H23.7008L22.2205 13.8603L22.7859 12.0791Z" fill="white"/>
</g>
<path id="Element_78_2" d="M22.782 15.5244L23.3474 17.3056L21.8672 16.2048H23.6969L22.2166 17.3056L22.782 15.5244Z" fill="white"/>
</g>
</g>
</g>
</g>
<g id="Group_3">
<path id="Vector_8" d="M45 1H4C2.34315 1 1 2.34315 1 4V30C1 31.6569 2.34315 33 4 33H45C46.6569 33 48 31.6569 48 30V4C48 2.34315 46.6569 1 45 1Z" fill="white"/>
<path id="Vector_9" d="M45 1H4C2.34315 1 1 2.34315 1 4V30C1 31.6569 2.34315 33 4 33H45C46.6569 33 48 31.6569 48 30V4C48 2.34315 46.6569 1 45 1Z" fill="white"/>
<g id="Wrap_3">
<path id="Element_80" d="M48 1H1V33H48V1Z" fill="#B31942"/>
<g id="Element_2_3">
<path id="Vector_10" d="M1 4.69141H48M48 9.61448H1M1 14.5376H48M48 19.4606H1M1 24.3837H48M48 29.3068H1" stroke="white" stroke-width="1.79081"/>
</g>
<path id="Element_3_3" d="M24.7595 1H1V18.2308H24.7595V1Z" fill="#0A3161"/>
<g id="Element_4_3">
<g id="Element_5_3">
<g id="Element_6_3">
<g id="Element_7_3">
<g id="Element_8_3">
<path id="Element_9_3" d="M2.98515 1.73828L3.55056 3.51947L2.07031 2.41863H3.9L2.41975 3.51947L2.98515 1.73828Z" fill="white"/>
<path id="Element_10_3" d="M2.98515 5.18359L3.55056 6.96478L2.07031 5.86395H3.9L2.41975 6.96478L2.98515 5.18359Z" fill="white"/>
<path id="Element_11_3" d="M2.98515 8.63086L3.55056 10.412L2.07031 9.31121H3.9L2.41975 10.412L2.98515 8.63086Z" fill="white"/>
<path id="Element_12_3" d="M2.98515 12.0771L3.55056 13.8583L2.07031 12.7575H3.9L2.41975 13.8583L2.98515 12.0771Z" fill="white"/>
</g>
<path id="Element_13_3" d="M2.98515 15.5234L3.55056 17.3046L2.07031 16.2038H3.9L2.41975 17.3046L2.98515 15.5234Z" fill="white"/>
</g>
<g id="Element_14_3">
<path id="Element_15_3" d="M4.96562 3.46094L5.53103 5.24212L4.05078 4.14129H5.88047L4.40022 5.24212L4.96562 3.46094Z" fill="white"/>
<path id="Element_16_3" d="M4.96562 6.90625L5.53103 8.68744L4.05078 7.5866H5.88047L4.40022 8.68744L4.96562 6.90625Z" fill="white"/>
<path id="Element_17_3" d="M4.96562 10.3535L5.53103 12.1347L4.05078 11.0339H5.88047L4.40022 12.1347L4.96562 10.3535Z" fill="white"/>
<path id="Element_18_3" d="M4.96562 13.7998L5.53103 15.581L4.05078 14.4802H5.88047L4.40022 15.581L4.96562 13.7998Z" fill="white"/>
</g>
</g>
<g id="Element_19_3">
<g id="Element_20_3">
<g id="Element_21_3">
<path id="Element_22_3" d="M6.93828 1.73828L7.50368 3.51947L6.02344 2.41863H7.85312L6.37288 3.51947L6.93828 1.73828Z" fill="white"/>
<path id="Element_23_3" d="M6.93828 5.18359L7.50368 6.96478L6.02344 5.86395H7.85312L6.37288 6.96478L6.93828 5.18359Z" fill="white"/>
<path id="Element_24_3" d="M6.93828 8.63086L7.50368 10.412L6.02344 9.31121H7.85312L6.37288 10.412L6.93828 8.63086Z" fill="white"/>
<path id="Element_25_3" d="M6.93828 12.0771L7.50368 13.8583L6.02344 12.7575H7.85312L6.37288 13.8583L6.93828 12.0771Z" fill="white"/>
</g>
<path id="Element_26_3" d="M6.94219 15.5234L7.50759 17.3046L6.02734 16.2038H7.85703L6.37678 17.3046L6.94219 15.5234Z" fill="white"/>
</g>
<g id="Element_27_3">
<path id="Element_28_3" d="M8.91871 3.46094L9.48421 5.24212L8.00391 4.14129H9.83361L8.35331 5.24212L8.91871 3.46094Z" fill="white"/>
<path id="Element_29_3" d="M8.91871 6.90625L9.48421 8.68744L8.00391 7.5866H9.83361L8.35331 8.68744L8.91871 6.90625Z" fill="white"/>
<path id="Element_30_3" d="M8.91871 10.3535L9.48421 12.1347L8.00391 11.0339H9.83361L8.35331 12.1347L8.91871 10.3535Z" fill="white"/>
<path id="Element_31_3" d="M8.91871 13.7998L9.48421 15.581L8.00391 14.4802H9.83361L8.35331 15.581L8.91871 13.7998Z" fill="white"/>
</g>
</g>
</g>
<g id="Element_32_3">
<g id="Element_33_3">
<g id="Element_34_3">
<g id="Element_35_3">
<path id="Element_36_3" d="M10.8992 1.73828L11.4646 3.51947L9.98438 2.41863H11.8141L10.3338 3.51947L10.8992 1.73828Z" fill="white"/>
<path id="Element_37_3" d="M10.8992 5.18359L11.4646 6.96478L9.98438 5.86395H11.8141L10.3338 6.96478L10.8992 5.18359Z" fill="white"/>
<path id="Element_38_3" d="M10.8992 8.63086L11.4646 10.412L9.98438 9.31121H11.8141L10.3338 10.412L10.8992 8.63086Z" fill="white"/>
<path id="Element_39_3" d="M10.8992 12.0771L11.4646 13.8583L9.98438 12.7575H11.8141L10.3338 13.8583L10.8992 12.0771Z" fill="white"/>
</g>
<path id="Element_40_3" d="M10.8992 15.5234L11.4646 17.3046L9.98438 16.2038H11.8141L10.3338 17.3046L10.8992 15.5234Z" fill="white"/>
</g>
<g id="Element_41_3">
<path id="Element_42_3" d="M12.8797 3.46191L13.4451 5.2431L11.9648 4.14227H13.7945L12.3143 5.2431L12.8797 3.46191Z" fill="white"/>
<path id="Element_43_3" d="M12.8797 6.90723L13.4451 8.68841L11.9648 7.58758H13.7945L12.3143 8.68841L12.8797 6.90723Z" fill="white"/>
<path id="Element_44_3" d="M12.8797 10.3545L13.4451 12.1357L11.9648 11.0348H13.7945L12.3143 12.1357L12.8797 10.3545Z" fill="white"/>
<path id="Element_45_3" d="M12.8797 13.8008L13.4451 15.582L11.9648 14.4811H13.7945L12.3143 15.582L12.8797 13.8008Z" fill="white"/>
</g>
</g>
<g id="Element_46_3">
<g id="Element_47_3">
<g id="Element_48_3">
<path id="Element_49_3" d="M14.8484 1.73828L15.4138 3.51947L13.9336 2.41863H15.7633L14.283 3.51947L14.8484 1.73828Z" fill="white"/>
<path id="Element_50_3" d="M14.8484 5.18359L15.4138 6.96478L13.9336 5.86395H15.7633L14.283 6.96478L14.8484 5.18359Z" fill="white"/>
<path id="Element_51_3" d="M14.8484 8.63086L15.4138 10.412L13.9336 9.31121H15.7633L14.283 10.412L14.8484 8.63086Z" fill="white"/>
<path id="Element_52_3" d="M14.8484 12.0771L15.4138 13.8583L13.9336 12.7575H15.7633L14.283 13.8583L14.8484 12.0771Z" fill="white"/>
</g>
<path id="Element_53_3" d="M14.8484 15.5234L15.4138 17.3046L13.9336 16.2038H15.7633L14.283 17.3046L14.8484 15.5234Z" fill="white"/>
</g>
<g id="Element_54_3">
<path id="Element_55_3" d="M16.8367 3.46191L17.4021 5.2431L15.9219 4.14227H17.7516L16.2713 5.2431L16.8367 3.46191Z" fill="white"/>
<path id="Element_56_3" d="M16.8367 6.90723L17.4021 8.68841L15.9219 7.58758H17.7516L16.2713 8.68841L16.8367 6.90723Z" fill="white"/>
<path id="Element_57_3" d="M16.8367 10.3545L17.4021 12.1357L15.9219 11.0348H17.7516L16.2713 12.1357L16.8367 10.3545Z" fill="white"/>
<path id="Element_58_3" d="M16.8367 13.8008L17.4021 15.582L15.9219 14.4811H17.7516L16.2713 15.582L16.8367 13.8008Z" fill="white"/>
</g>
</g>
</g>
<g id="Element_59_3">
<g id="Element_60_3">
<g id="Element_61_3">
<path id="Element_62_3" d="M18.8172 1.73926L19.3826 3.52044L17.9023 2.41961H19.732L18.2518 3.52044L18.8172 1.73926Z" fill="white"/>
<path id="Element_63_3" d="M18.8172 5.18457L19.3826 6.96576L17.9023 5.86492H19.732L18.2518 6.96576L18.8172 5.18457Z" fill="white"/>
<path id="Element_64_3" d="M18.8172 8.63184L19.3826 10.413L17.9023 9.31219H19.732L18.2518 10.413L18.8172 8.63184Z" fill="white"/>
<path id="Element_65_3" d="M18.8172 12.0781L19.3826 13.8593L17.9023 12.7585H19.732L18.2518 13.8593L18.8172 12.0781Z" fill="white"/>
</g>
<path id="Element_66_3" d="M18.8172 15.5244L19.3826 17.3056L17.9023 16.2048H19.732L18.2518 17.3056L18.8172 15.5244Z" fill="white"/>
</g>
<g id="Element_67_3">
<path id="Element_68_3" d="M20.8016 3.46191L21.367 5.2431L19.8867 4.14227H21.7164L20.2362 5.2431L20.8016 3.46191Z" fill="white"/>
<path id="Element_69_3" d="M20.8016 6.90723L21.367 8.68841L19.8867 7.58758H21.7164L20.2362 8.68841L20.8016 6.90723Z" fill="white"/>
<path id="Element_70_3" d="M20.8016 10.3545L21.367 12.1357L19.8867 11.0348H21.7164L20.2362 12.1357L20.8016 10.3545Z" fill="white"/>
<path id="Element_71_3" d="M20.8016 13.8008L21.367 15.582L19.8867 14.4811H21.7164L20.2362 15.582L20.8016 13.8008Z" fill="white"/>
</g>
</g>
<g id="Element_72_3">
<g id="Element_73_3">
<path id="Element_74_3" d="M22.7859 1.74023L23.3513 3.52142L21.8711 2.42059H23.7008L22.2205 3.52142L22.7859 1.74023Z" fill="white"/>
<path id="Element_75_3" d="M22.7859 5.18652L23.3513 6.96771L21.8711 5.86688H23.7008L22.2205 6.96771L22.7859 5.18652Z" fill="white"/>
<path id="Element_76_3" d="M22.7859 8.63281L23.3513 10.414L21.8711 9.31317H23.7008L22.2205 10.414L22.7859 8.63281Z" fill="white"/>
<path id="Element_77_3" d="M22.7859 12.0791L23.3513 13.8603L21.8711 12.7595H23.7008L22.2205 13.8603L22.7859 12.0791Z" fill="white"/>
</g>
<path id="Element_78_3" d="M22.782 15.5244L23.3474 17.3056L21.8672 16.2048H23.6969L22.2166 17.3056L22.782 15.5244Z" fill="white"/>
</g>
</g>
</g>
</g>
</g>
</g>
<path id="Vector_11" d="M45 1H4C2.34315 1 1 2.34315 1 4V30C1 31.6569 2.34315 33 4 33H45C46.6569 33 48 31.6569 48 30V4C48 2.34315 46.6569 1 45 1Z" stroke="#A8B7D4" stroke-width="0.0997594" stroke-linejoin="round"/>
</g>
<defs>
<filter id="filter0_di_597_54" x="0.750045" y="0.749923" width="47.4999" height="33.9012" filterUnits="userSpaceOnUse" color-interpolation-filters="sRGB">
<feFlood flood-opacity="0" result="BackgroundImageFix"/>
<feColorMatrix in="SourceAlpha" type="matrix" values="0 0 0 0 0 0 0 0 0 0 0 0 0 0 0 0 0 0 127 0" result="hardAlpha"/>
<feOffset/>
<feGaussianBlur stdDeviation="0.100075"/>
<feComposite in2="hardAlpha" operator="out"/>
<feColorMatrix type="matrix" values="0 0 0 0 0.258824 0 0 0 0 0.278431 0 0 0 0 0.298039 0 0 0 0.32 0"/>
<feBlend mode="normal" in2="BackgroundImageFix" result="effect1_dropShadow_597_54"/>
<feBlend mode="normal" in="SourceGraphic" in2="effect1_dropShadow_597_54" result="shape"/>
<feColorMatrix in="SourceAlpha" type="matrix" values="0 0 0 0 0 0 0 0 0 0 0 0 0 0 0 0 0 0 127 0" result="hardAlpha"/>
<feOffset dy="1.6012"/>
<feGaussianBlur stdDeviation="1.2009"/>
<feComposite in2="hardAlpha" operator="arithmetic" k2="-1" k3="1"/>
<feColorMatrix type="matrix" values="0 0 0 0 0.258824 0 0 0 0 0.278431 0 0 0 0 0.298039 0 0 0 0.08 0"/>
<feBlend mode="normal" in2="shape" result="effect2_innerShadow_597_54"/>
</filter>
</defs>
</svg>
