<svg width="57" height="23" viewBox="0 0 57 23" fill="none" xmlns="http://www.w3.org/2000/svg">
<path d="M10.1676 3.49023C9.58357 4.19775 8.59529 4.72559 7.80915 4.72559C7.71931 4.72559 7.62947 4.71436 7.57331 4.70312C7.56208 4.6582 7.53962 4.52344 7.53962 4.38867C7.53962 3.49023 8.00007 2.5918 8.49421 2.03027C9.12312 1.28906 10.1788 0.73877 11.0548 0.705078C11.0772 0.806152 11.0885 0.929688 11.0885 1.05322C11.0885 1.95166 10.7066 2.83887 10.1676 3.49023ZM10.7852 4.9165C11.2794 4.9165 13.065 4.96143 14.233 6.646C14.1319 6.72461 12.3575 7.72412 12.3575 9.95898C12.3575 12.542 14.6148 13.4629 14.6822 13.4854C14.671 13.5415 14.3228 14.7319 13.4918 15.9561C12.7506 17.0229 11.9644 18.1011 10.7852 18.1011C9.5948 18.1011 9.29158 17.4048 7.93269 17.4048C6.59626 17.4048 6.12458 18.1235 5.04646 18.1235C3.9571 18.1235 3.20466 17.124 2.33992 15.9111C1.32917 14.4736 0.52058 12.25 0.52058 10.1387C0.52058 6.7583 2.72175 4.96143 4.88923 4.96143C6.03474 4.96143 6.98933 5.71387 7.71931 5.71387C8.40437 5.71387 9.47126 4.9165 10.7852 4.9165ZM21.1528 18V1.79443H27.6216C30.9121 1.79443 33.1357 3.96191 33.1357 7.20752V7.22998C33.1357 10.4644 30.9121 12.6431 27.6216 12.6431H24.0503V18H21.1528ZM26.9141 4.16406H24.0503V10.3071H26.9141C28.9917 10.3071 30.2046 9.18408 30.2046 7.24121V7.21875C30.2046 5.27588 28.9917 4.16406 26.9141 4.16406ZM37.7187 18.2021C35.3828 18.2021 33.687 16.7646 33.687 14.5298V14.5073C33.687 12.3174 35.3603 11.0371 38.3476 10.8574L41.5034 10.6665V9.61084C41.5034 8.38672 40.706 7.71289 39.2011 7.71289C37.9209 7.71289 37.0898 8.17334 36.809 8.98193L36.7978 9.02686H34.1587L34.1699 8.92578C34.4394 6.85938 36.416 5.48926 39.3359 5.48926C42.4917 5.48926 44.2661 7.0166 44.2661 9.61084V18H41.5034V16.3154H41.3125C40.6386 17.5059 39.3359 18.2021 37.7187 18.2021ZM36.4497 14.395C36.4497 15.4395 37.3369 16.0571 38.5722 16.0571C40.2568 16.0571 41.5034 14.9565 41.5034 13.4966V12.5083L38.7407 12.688C37.1796 12.7891 36.4497 13.3618 36.4497 14.3726V14.395ZM47.3329 22.3125C46.996 22.3125 46.603 22.3013 46.266 22.2676V20.1226C46.4906 20.145 46.8051 20.1562 47.0971 20.1562C48.2426 20.1562 48.9277 19.6846 49.2309 18.5728L49.3769 18.0112L44.9858 5.7251H48.0405L50.9042 15.3159H51.1176L53.9701 5.7251H56.9125L52.5102 18.2583C51.4545 21.3354 50.0507 22.3125 47.3329 22.3125Z" fill="black"/>
</svg>
