<svg width="24" height="24" viewBox="0 0 24 24" fill="none" xmlns="http://www.w3.org/2000/svg">
<g id="Icon / double check">
<path id="Vector" d="M11.602 13.7589L13.014 15.1709L20.7724 7.41244C21.1629 7.02191 21.7961 7.02189 22.1866 7.41241C22.5772 7.80294 22.5772 8.43614 22.1867 8.82668L13.014 17.9993L7.3571 12.3424C6.96658 11.9519 6.96658 11.3187 7.35711 10.9282C7.74763 10.5377 8.38079 10.5377 8.77131 10.9282L10.189 12.3459L11.602 13.7589ZM11.6037 10.9312L15.8512 6.68367C16.2406 6.29422 16.872 6.29422 17.2614 6.68366C17.6509 7.07309 17.6509 7.7045 17.2615 8.09394L13.014 12.3414L11.6037 10.9312ZM8.77698 16.5863L7.36396 17.9993L1.70709 12.3424C1.31658 11.9519 1.31658 11.3188 1.7071 10.9282L1.72144 10.9139C2.10405 10.5313 2.72437 10.5313 3.10695 10.9139L3.82666 11.6337C3.82697 11.634 3.82696 11.6345 3.82664 11.6348C3.82631 11.6351 3.8263 11.6356 3.82661 11.6359L8.77698 16.5863Z" fill="#08ADD2"/>
</g>
</svg>
