<svg id="icon" width="24" height="24" viewBox="0 0 24 24" fill="none" xmlns="http://www.w3.org/2000/svg">
<g>
<path fill-rule="evenodd" clip-rule="evenodd" d="M10 14V16C13.3137 16 16 18.6863 16 22H18C18 17.5817 14.4183 14 10 14ZM4 7C4 10.315 6.685 13 10 13C13.315 13 16 10.315 16 7C16 3.685 13.315 1 10 1C6.685 1 4 3.685 4 7ZM14 7C14 9.21 12.21 11 10 11C7.79 11 6 9.21 6 7C6 4.79 7.79 3 10 3C12.21 3 14 4.79 14 7ZM23 22C23 18.752 21.0644 15.9561 18.2837 14.7028L17.4628 16.5271C19.5483 17.4671 21 19.564 21 22H23ZM21 8.5C21 6.20361 19.5944 4.23703 17.5962 3.41321L17.041 5.35635C18.2016 5.92603 19 7.11935 19 8.5C19 10.264 17.6967 11.7222 16 11.9646V13.9776C18.8042 13.7252 21 11.3702 21 8.5Z" fill="#6D20FF"/>
<path d="M5 17V14H7V17H10V19H7V22H5V19H2V17H5Z" fill="#6D20FF"/>
</g>
</svg>
