<svg width="24" height="24" viewBox="0 0 24 24" fill="none" xmlns="http://www.w3.org/2000/svg">
<g id="Frame" clip-path="url(#clip0_823_14386)">
<path id="icon" d="M18.563 18.9172L20.4948 19.4348L19.9772 21.3667L0.65867 16.1903L1.17631 14.2584L3.10816 14.7761L4.91989 8.01458C6.06343 3.74685 10.4501 1.21419 14.7179 2.35772C18.9856 3.50126 21.5182 7.88795 20.3747 12.1557L18.563 18.9172ZM16.6311 18.3995L18.4429 11.638C19.3005 8.43724 17.401 5.14722 14.2002 4.28957C10.9994 3.43192 7.7094 5.33142 6.85174 8.53221L5.04001 15.2937L16.6311 18.3995ZM6.90251 19.9339L12.6981 21.4868L12.1804 23.4186L6.38487 21.8657L6.90251 19.9339Z"/>
</g>
<defs>
<clipPath id="clip0_823_14386">
<rect width="24" height="24" fill="white"/>
</clipPath>
</defs>
</svg>
