<svg width="60" height="60" viewBox="0 0 60 60" fill="none" xmlns="http://www.w3.org/2000/svg">
<g clip-path="url(#clip0_683_10198)">
<rect width="60" height="60" rx="30" fill="white"/>
<path d="M24.0766 59.9195L23.4316 63.8195C24.6401 64.1824 25.9067 64.3117 27.1636 64.2005C28.9396 64.0085 30.9946 64.3835 43.6876 64.3835C44.7016 64.3835 45.9466 64.3385 45.9466 64.1525C45.9466 63.9665 45.4876 62.8865 45.3946 62.2175C45.3016 61.5485 44.9086 59.4275 44.6116 58.8305C44.3146 58.2335 35.7376 53.9675 32.0116 55.8575C28.2856 57.7475 24.0766 59.9195 24.0766 59.9195Z" fill="#FF9C9F"/>
<path d="M37.3751 47.5021C37.3984 47.6085 37.4095 47.7172 37.4081 47.8261C37.4081 47.8771 37.3211 47.9281 37.2551 47.9701C37.0121 48.1291 31.3721 52.0051 31.3571 51.9571C31.2221 51.4231 30.8591 51.9931 34.3811 49.5061C36.2141 48.2161 36.9701 47.7271 37.2131 47.5651C37.2791 47.5201 37.3601 47.4781 37.3751 47.5021Z" fill="#D9D9D9"/>
<path d="M34.4479 48.3696C34.7749 48.1686 34.8019 48.0516 34.1479 47.9946C33.9379 47.9766 30.8239 47.8026 30.2479 47.8026C29.8789 47.8026 29.9179 47.6736 29.7769 47.2836C29.7349 47.1726 29.7769 47.1996 30.5059 47.2236C31.4749 47.2566 36.1249 47.3466 36.8899 47.4486C36.7579 47.5686 31.1569 51.3216 31.1419 51.2736C30.9169 50.5626 30.8779 50.5656 30.9739 50.5626C31.3819 50.5626 31.3789 50.6046 31.7449 50.3106C31.9879 50.1006 34.1989 48.5166 34.4479 48.3696Z" fill="#D9D9D9"/>
<path d="M34.1067 48.2162C33.9477 48.4022 31.5057 50.1362 31.3857 50.2082C31.1847 50.3252 30.7857 50.3282 30.7287 50.1842C30.525 49.7092 30.3565 49.2199 30.2247 48.7202C29.9967 48.0122 30.0177 48.0422 30.3117 48.0422C31.5987 48.1052 33.7497 48.1532 34.1067 48.2162Z" fill="#D9D9D9"/>
<path d="M20.5454 45.108C20.5244 46.08 19.6694 46.503 19.0064 46.05C18.1064 45.45 18.1064 44.367 18.6434 43.863C19.1804 43.359 20.4014 43.725 20.5454 45.108Z" fill="#D9D9D9"/>
<path d="M30.744 51.3362C31.026 52.1402 31.026 52.1072 30.858 52.1162L27.684 52.0982C27.808 51.9643 27.9517 51.8499 28.11 51.7592C28.2721 51.6723 28.4267 51.5719 28.572 51.4592C28.6181 51.416 28.6514 51.361 28.6683 51.3001C28.6852 51.2393 28.6851 51.175 28.668 51.1142C28.635 50.9462 28.743 50.9792 29.082 50.8142C29.1405 50.7863 29.1903 50.743 29.226 50.6889C29.2618 50.6348 29.2821 50.5721 29.2849 50.5073C29.2877 50.4426 29.2728 50.3783 29.2418 50.3214C29.2108 50.2644 29.1649 50.217 29.109 50.1842C27.993 49.5242 25.434 51.6692 24.468 51.0842C24.738 50.8142 25.095 50.7332 25.668 50.1842C26.2241 49.6959 26.7425 49.1664 27.219 48.6002C27.519 48.2042 27.045 47.9132 26.571 48.0392C26.1183 48.1677 25.7129 48.4252 25.404 48.7802C25.149 49.1492 24.753 49.1972 24.099 49.5332C23.586 49.8002 22.731 50.5052 21.744 49.9202C21.288 49.6472 21.612 49.2272 21.936 48.8042C23.073 47.3042 22.128 46.6352 21.558 47.3972C20.769 48.4502 21.354 47.6402 20.235 48.9392C19.953 49.2692 20.055 49.3892 19.695 50.5502C19.218 52.0922 20.394 51.7862 17.475 51.6422C17.475 51.6422 15.249 51.4442 14.694 51.3722C14.511 51.3482 14.394 51.2912 13.968 49.9832C13.911 49.8092 13.518 48.8972 13.341 48.4232C12.93 47.3432 11.964 44.3342 10.779 41.2772C10.242 39.8912 10.629 39.5492 11.643 39.3572C13.395 39.0272 21.387 39.2462 23.172 39.3902C28.23 39.8072 26.226 38.5082 30.744 51.3362ZM18 45.0962C18.3 46.9412 20.781 47.1452 20.874 45.1592C20.787 42.7052 17.622 42.7232 18 45.0962Z" fill="#D9D9D9"/>
<path d="M37.2675 13.8149C37.4865 14.0519 37.7655 13.9859 37.6905 14.1149C37.2465 14.9339 37.5555 15.2819 36.9795 14.8379C36.7485 14.6699 37.1595 13.6949 37.2675 13.8149Z" fill="#FF9C9F"/>
<path d="M19.3882 52.1377C19.5442 52.1587 19.5442 52.1587 19.5442 52.3507C19.491 52.648 19.486 52.9518 19.5292 53.2507C19.3681 53.149 19.2491 52.9926 19.194 52.8102C19.1389 52.6278 19.1514 52.4316 19.2292 52.2577C19.2532 52.1227 19.2592 52.1197 19.3882 52.1377Z" fill="#FFC280"/>
<path d="M22.8623 53.8027C23.0363 53.6287 24.1553 53.5867 24.0113 53.7457C22.1363 55.8457 19.8413 55.1827 19.2113 54.5347C18.6443 53.9347 18.4193 53.9977 18.0803 53.5777C17.6723 53.0707 17.4983 52.9207 17.4263 52.6267C17.2733 52.0267 17.1743 51.9757 17.3723 51.9997C19.0913 52.2127 18.8183 51.9157 18.7643 52.6477C18.7433 52.9267 18.9233 53.1217 19.3643 53.6437C19.5523 53.8155 19.7528 53.9729 19.9643 54.1147C20.441 54.421 21.0001 54.5739 21.5663 54.5527C21.9743 54.5317 22.5323 54.1387 22.8623 53.8027Z" fill="#FFC280"/>
<path d="M32.2614 51.8132C33.1014 51.2762 33.0744 51.0932 33.0084 51.4982C32.7894 52.8392 33.3084 54.7982 32.9664 57.3512C32.8544 57.8949 32.8301 58.4529 32.8944 59.0042C32.9904 59.4932 32.8584 59.9672 32.8044 60.7022C32.8044 60.7742 32.7834 60.8192 32.7174 60.8342C32.58 60.8736 32.4355 60.8818 32.2944 60.8582C31.2705 60.6562 30.2261 60.5776 29.1834 60.6242C27.3054 60.6242 27.4494 60.2792 25.7304 59.9252C25.0434 59.7842 25.2984 60.0122 23.0574 59.4872C22.8084 59.4302 23.2134 58.5032 23.5614 56.4392C23.9394 54.1742 24.1344 54.1802 24.4254 53.7902C24.5814 53.5832 24.8034 53.9402 25.7574 53.5982C26.4804 53.3402 27.1044 53.3222 27.4644 52.9982C27.5904 52.8842 27.8184 52.8122 27.8274 52.6202C27.8274 52.5542 27.8544 52.5302 27.9714 52.5212C28.0884 52.5122 31.0674 52.5422 31.1334 52.5212C31.4034 52.4702 31.5744 52.2512 32.2614 51.8132Z" fill="#FFC280"/>
<path d="M41.3985 39.6846C41.4375 40.2666 41.5875 40.9296 40.9815 41.0946C40.3005 41.2389 39.6033 41.2914 38.9085 41.2506C38.4126 41.1715 37.9089 41.1523 37.4085 41.1936C36.9465 41.2146 36.3195 41.2476 36.3975 40.7556C36.5715 39.6366 36.3585 37.2126 36.3555 37.1556C36.3555 36.9036 36.3855 36.8016 36.5865 36.8286C36.7859 36.8498 36.987 36.8498 37.1865 36.8286C37.5855 36.7926 38.2695 36.7776 38.5725 37.0416C38.7615 37.2066 38.9685 37.2966 39.1725 37.1436C39.3771 36.9893 39.6158 36.8864 39.8685 36.8436C40.3839 36.7687 40.9046 36.7356 41.4255 36.7446C41.3515 37.723 41.3424 38.7051 41.3985 39.6846ZM39.5775 40.7076C39.6135 40.8936 39.8955 40.9056 39.8775 40.6506C39.6885 39.0456 40.0275 37.2966 39.6645 37.2936C39.5205 37.2936 39.5085 39.5346 39.5235 39.8016C39.5078 40.1043 39.5219 40.4077 39.5655 40.7076H39.5775ZM37.9755 40.7376C38.0325 39.8046 37.9335 40.1976 37.9185 37.5996C37.9185 37.4766 37.9185 37.2996 37.8105 37.2726C37.7025 37.2456 37.6605 37.3296 37.6545 37.4256C37.5936 38.5386 37.6127 39.6544 37.7115 40.7646C37.7085 40.9236 37.9545 40.9176 37.9635 40.7376H37.9755Z" fill="#FFC280"/>
<path d="M41.6832 34.9237C41.7213 35.3804 41.6693 35.8401 41.5302 36.2767C41.4102 36.6457 40.7862 36.2767 39.8412 36.4927C39.5305 36.5324 39.2346 36.6489 38.9802 36.8317C38.8062 36.9577 38.9112 36.6697 38.1792 36.5497C37.3752 36.4207 36.8592 36.5497 36.4752 36.4657C35.9292 36.3367 36.1152 35.6227 36.1212 35.6227C36.0612 34.4017 35.8392 34.6687 39.1002 34.5817C41.5572 34.5157 41.6502 34.5187 41.6832 34.9237ZM39.1962 36.0877C39.2292 35.7427 38.6352 35.7367 38.6952 36.1387C38.7044 36.2031 38.7382 36.2615 38.7895 36.3016C38.8407 36.3417 38.9055 36.3604 38.9702 36.3538C39.035 36.3472 39.0946 36.3158 39.1368 36.2662C39.1789 36.2166 39.2002 36.1527 39.1962 36.0877Z" fill="#FFC280"/>
<path d="M32.1889 28.2004C32.2221 28.3879 32.2034 28.5808 32.1349 28.7584C31.9369 27.7264 31.0369 28.5604 30.8629 29.5984C30.6109 31.0744 30.6589 31.1944 30.5809 31.0774C29.6209 29.6224 29.9149 30.6964 29.4349 29.0404C29.2933 28.6838 29.016 28.3979 28.6639 28.2454C28.4839 28.1524 28.2769 27.8494 28.3339 27.7624C28.6819 27.2494 28.4089 27.1144 29.0149 26.3704C29.1406 26.2121 29.2834 26.0682 29.4409 25.9414C29.3811 26.1649 29.4007 26.4023 29.4965 26.6129C29.5922 26.8236 29.7581 26.9945 29.9659 27.0964C30.3469 27.3304 30.2269 27.6664 30.9229 27.7924C31.7359 27.9454 32.1289 27.9484 32.1889 28.2004ZM30.0889 30.0244C30.0889 30.3904 30.5869 30.3244 30.4669 29.9674C30.4219 29.8294 30.3649 29.7934 30.2209 29.8144C30.1369 29.8354 30.1009 29.8954 30.1009 30.0304L30.0889 30.0244Z" fill="#FFC280"/>
<path d="M52.9157 17.2055C54.1817 17.3015 55.1957 17.6075 55.1597 18.9035C55.1357 19.7675 55.2947 19.3925 54.3767 19.1585C53.4587 18.9245 52.8377 18.8585 51.0377 19.5515C50.5907 19.7255 49.3307 20.2505 48.7967 20.8025C48.7731 20.8259 48.7562 20.8553 48.7477 20.8875C48.7393 20.9196 48.7396 20.9535 48.7487 20.9855C48.7487 21.0365 48.8027 21.0965 48.9317 21.0275C49.8617 20.5175 52.4837 18.8585 54.4517 19.6115C56.0927 20.2355 55.2527 21.5885 55.0007 21.4115C53.9357 20.7005 51.0287 21.1715 49.6907 21.3785C49.4387 21.4175 49.5407 21.5975 49.6907 21.6095C50.7917 21.6995 55.1897 20.7995 55.0217 22.3235C54.7847 24.4715 51.6617 26.8505 50.0087 28.5725C49.2407 29.3705 48.3737 31.0355 46.9007 32.6405C45.4997 34.1675 45.0707 35.5505 44.5487 35.1275C41.6747 32.8025 41.2907 29.3105 41.0267 29.1905C41.0056 29.1799 40.9819 29.1754 40.9583 29.1776C40.9347 29.1799 40.9123 29.1887 40.8935 29.2031C40.8747 29.2175 40.8603 29.2369 40.8521 29.2591C40.8438 29.2813 40.842 29.3053 40.8467 29.3285C41.0897 31.8935 44.2487 36.1055 44.9627 35.5355C44.9698 38.0234 44.8205 40.5093 44.5157 42.9785C44.1257 45.7115 43.7117 46.5785 43.7807 47.6045C44.1047 52.4825 44.4617 51.3605 44.8007 53.7245C45.1157 55.9145 45.0797 54.9245 45.8807 57.7685C46.1807 58.8365 46.1207 58.7405 46.0127 58.8125C44.5997 59.7455 44.8937 59.5775 43.4237 59.8235C41.8307 60.0935 42.3407 60.9515 38.6537 60.6425C37.1087 60.5135 38.1887 60.3425 35.9537 60.8015C35.3147 60.9335 35.4917 60.9485 35.0327 60.9455C34.7057 60.9455 34.6337 60.9725 34.5797 60.7985C33.8897 58.4915 34.4987 59.7605 33.5087 56.5745C33.3017 55.9145 33.5087 55.4045 33.4307 54.7265C33.4157 54.6035 33.3407 53.4965 33.3347 53.2025C33.2777 50.8865 33.4397 50.9525 33.6917 50.7725C38.1917 47.5625 37.6577 48.2435 37.6427 47.4275C37.6427 47.0555 36.7427 47.2475 33.9767 47.0435C33.7007 47.0225 33.6767 47.0765 33.6587 46.9205C33.5357 44.4155 33.7397 43.8305 33.7247 42.9845C33.7067 41.6525 33.1457 41.5025 33.2567 39.7475C33.3827 37.7195 33.4307 38.5685 33.2717 36.4055C33.2477 36.0815 33.2447 35.3645 33.2207 35.0075C33.1315 34.3839 33.0755 33.756 33.0527 33.1265C33.0527 32.0135 33.3527 28.7435 34.2257 28.0265C35.0987 27.3095 35.1587 27.7655 35.9327 27.0095C36.8327 26.1095 36.9857 25.9835 37.3847 25.3115C37.5677 25.0115 37.4147 24.8975 37.2467 24.7115C37.3711 24.6459 37.5089 24.6096 37.6494 24.6053C37.79 24.601 37.9297 24.6289 38.0579 24.6867C38.186 24.7446 38.2993 24.831 38.3891 24.9392C38.4788 25.0475 38.5427 25.1748 38.5757 25.3115C38.7107 25.7945 38.8757 25.8455 39.0947 26.4065C39.7127 28.0805 37.7027 28.5815 37.4147 29.6375C37.2972 30.0096 37.0804 30.3425 36.7877 30.6005C36.6797 30.7235 36.4877 30.1715 36.4637 30.0005C36.4021 29.7885 36.2911 29.5942 36.1397 29.4335C35.4917 28.6235 35.3597 27.5945 34.2497 28.4675C33.9497 28.6955 33.5717 29.8325 33.8417 29.8985C34.1117 29.9645 34.1417 28.8935 34.5347 28.6985C34.7717 28.5815 34.8827 28.3445 35.0837 28.5635C35.4977 29.0075 35.6087 29.3855 35.9837 29.8475C36.0827 29.9645 36.4757 31.5455 36.9287 30.9575C37.0487 30.8015 37.1987 30.6575 37.3247 30.5165C37.8347 29.8895 37.6247 29.6465 38.0477 29.2595C38.7707 28.6265 39.3647 28.0835 39.5477 27.3005C39.5866 27.1743 39.5959 27.0409 39.5747 26.9105C39.5357 26.7395 39.5237 26.5655 39.4847 26.3915C39.4457 26.2175 39.2537 26.0165 39.4457 26.0225C40.5887 26.0525 40.5917 26.1665 41.1077 25.9085C43.1057 24.9155 41.7077 25.2785 44.9927 23.8085C46.5557 23.1155 46.8947 22.0865 47.2367 22.1975C47.5787 22.3085 47.8367 22.1975 48.5867 21.9755C48.6707 21.9515 48.7607 21.9425 48.8087 21.8135C48.816 21.795 48.8194 21.7753 48.819 21.7554C48.8185 21.7355 48.8141 21.716 48.806 21.6978C48.7979 21.6797 48.7863 21.6633 48.7718 21.6497C48.7574 21.6361 48.7403 21.6255 48.7217 21.6185C48.4757 21.5285 47.4857 22.2185 47.2607 21.7355C47.0657 21.3095 46.9367 21.0905 47.1377 20.8145C48.1367 19.4615 47.8397 20.1365 48.8687 18.8345C49.3598 18.2541 49.9851 17.8024 50.6904 17.5185C51.3956 17.2346 52.1595 17.1272 52.9157 17.2055ZM42.2477 27.5465C42.5477 33.6785 44.6777 32.8505 43.9997 32.4005C42.4997 31.3955 42.7127 27.1955 42.3707 26.4995C42.3227 26.4035 42.1577 26.3405 42.1187 26.5535C42.0977 26.6765 42.2177 26.9435 42.2477 27.5465ZM41.7707 36.5195C41.9597 36.2195 42.0227 35.4845 42.0167 35.1095C42.0167 34.1525 42.1097 34.1315 37.4417 34.2845C36.0317 34.3295 35.6837 34.0775 35.7797 36.0485C35.8037 36.5675 36.0977 36.5825 36.0617 36.7535C35.9327 37.3955 36.0917 37.6025 36.0977 37.8725C36.1277 40.1435 36.1637 40.2125 36.0767 40.6895C36.0526 40.7733 36.0462 40.8612 36.0579 40.9476C36.0695 41.034 36.099 41.1171 36.1444 41.1916C36.1898 41.266 36.2501 41.3302 36.3216 41.3801C36.3931 41.43 36.4742 41.4646 36.5597 41.4815C37.3427 41.6945 37.3697 41.3705 38.8937 41.6045C39.1097 41.6405 40.8857 41.5115 40.9097 41.5085C42.0287 41.3105 41.7137 40.0655 41.7107 40.0085C41.6451 39.1551 41.6311 38.2986 41.6687 37.4435C41.7017 36.9545 41.5997 36.7925 41.7707 36.5195ZM36.6707 29.8895C36.7427 30.0965 37.0637 30.0095 37.0577 29.7995C36.9587 29.3105 36.5657 29.5415 36.6827 29.8895H36.6707ZM34.4537 58.1045C34.2857 58.5815 34.9397 58.7045 34.9097 58.1765C34.9067 57.9305 34.5737 57.7985 34.4657 58.1045H34.4537ZM34.0817 42.8315C34.0857 42.892 34.1136 42.9484 34.1591 42.9883C34.2047 43.0283 34.2643 43.0485 34.3247 43.0445C34.3852 43.0405 34.4416 43.0127 34.4816 42.9671C34.5215 42.9216 34.5417 42.862 34.5377 42.8015C34.5429 42.7677 34.5405 42.7332 34.5305 42.7006C34.5206 42.6679 34.5034 42.6378 34.4803 42.6127C34.4572 42.5875 34.4287 42.5678 34.397 42.5552C34.3653 42.5425 34.3311 42.5371 34.297 42.5394C34.2629 42.5417 34.2298 42.5516 34.2001 42.5685C34.1703 42.5853 34.1447 42.6086 34.1252 42.6366C34.1057 42.6647 34.0928 42.6968 34.0873 42.7305C34.0819 42.7642 34.084 42.7987 34.0937 42.8315H34.0817ZM34.4567 46.0835C34.5077 45.8045 34.1567 45.7265 34.0727 45.8375C33.7667 46.2965 34.3817 46.5575 34.4687 46.0835H34.4567ZM34.0667 54.9875C34.1005 54.9895 34.1343 54.9848 34.1662 54.9737C34.1981 54.9625 34.2275 54.9451 34.2526 54.9225C34.2777 54.8999 34.2981 54.8725 34.3125 54.842C34.327 54.8114 34.3352 54.7783 34.3367 54.7445C34.3392 54.6763 34.3148 54.6098 34.2688 54.5593C34.2228 54.5088 34.1589 54.4784 34.0907 54.4745C33.8417 54.4625 33.7337 54.9905 34.0787 54.9875H34.0667ZM34.0877 51.6875C34.0877 51.5465 34.0277 51.4835 33.8477 51.4535C33.5477 51.5345 33.5777 51.9665 33.8477 51.9785C34.0007 51.9965 34.0847 51.9005 34.0997 51.6995L34.0877 51.6875ZM34.0877 39.5435C34.0877 39.3845 34.0247 39.3125 33.8537 39.2945C33.7367 39.2945 33.6377 39.3275 33.6197 39.5585C33.6017 39.8795 34.0637 39.9365 34.0847 39.5555L34.0877 39.5435ZM34.0187 36.3215C34.0187 35.9885 33.5297 35.9135 33.5207 36.3035C33.514 36.3695 33.5335 36.4354 33.5751 36.4871C33.6166 36.5388 33.6769 36.572 33.7427 36.5795C33.7771 36.5828 33.8119 36.579 33.8447 36.5682C33.8775 36.5573 33.9077 36.5398 33.9334 36.5167C33.9591 36.4935 33.9797 36.4653 33.9939 36.4338C34.008 36.4022 34.0155 36.3681 34.0157 36.3335L34.0187 36.3215ZM33.3677 33.2705C33.3677 33.6035 33.8627 33.5525 33.8417 33.1895C33.8267 32.9495 33.3527 32.9525 33.3677 33.2705Z" fill="#FFC280"/>
<path d="M33.3018 46.3291C33.3348 47.2591 33.6318 47.0641 31.5018 46.9951C29.5878 46.9291 29.7018 46.9651 29.6328 46.7761C27.6378 41.0761 27.6048 39.8461 26.4888 39.4471C25.4928 39.0901 24.6888 39.2431 24.6558 39.0211C24.4698 36.8461 24.8928 36.5581 24.6558 35.1991C24.6558 35.1031 24.4338 35.0101 24.4428 35.2861C24.463 35.8881 24.4279 36.4906 24.3378 37.0861C24.1518 38.4751 24.4458 39.0931 24.2208 39.0901C23.5008 39.0901 21.3378 38.9191 18.6678 38.8381C18.5898 38.8381 18.6168 38.8141 18.6348 38.7841C18.9708 38.2921 19.1178 37.9231 19.4718 38.0821C19.7759 38.1842 20.1056 38.1805 20.4073 38.0716C20.709 37.9627 20.965 37.7549 21.1338 37.4821C21.1338 37.4611 21.3648 36.8581 21.3678 36.8521C21.4248 36.6841 21.4068 36.8521 22.5168 36.8521C23.2338 36.8521 23.9838 35.6521 23.8638 34.8901C23.7678 34.2511 23.9838 33.9241 23.4198 33.3031C22.4238 32.2051 21.5328 32.8771 21.4548 33.9451C21.4548 34.0861 21.3018 34.0561 21.2688 33.9811C21.1788 33.7711 21.0978 33.4951 20.7738 33.4741C20.6598 33.4741 20.6388 33.4411 20.9538 32.8921C21.2688 32.3431 21.5238 32.1601 21.8538 32.0491C22.3878 31.8691 22.3548 31.4491 22.7058 31.3171C24.6198 30.6121 23.9058 29.8741 27.6828 28.3561C28.0038 28.2301 28.0398 28.1161 28.0968 28.2181C28.3968 28.7191 28.9968 28.5871 29.1708 29.4751C29.2109 29.911 29.412 30.3164 29.7348 30.6121C30.2838 31.0801 30.4248 32.0131 30.8148 31.5421C31.2048 31.0711 30.9378 29.0341 31.7148 28.6681C31.8858 29.1361 31.6878 30.4681 32.4858 31.0441C33.0018 31.4251 32.5878 32.0851 32.8278 34.8811C33.2358 39.6151 32.5848 39.8431 33.0288 41.4481C33.7158 43.8421 33.1638 42.4891 33.3018 46.3291Z" fill="#FFC280"/>
<path d="M34.3487 25.5278C34.7057 25.4858 34.7387 25.7349 34.6787 25.9179C34.6736 25.9548 34.6595 25.99 34.6378 26.0203C34.6161 26.0507 34.5873 26.0753 34.554 26.0921C34.5207 26.1089 34.4838 26.1174 34.4465 26.1168C34.4092 26.1163 34.3725 26.1067 34.3397 26.0889C34.2437 26.0529 34.1627 25.9839 34.1327 26.0889C34.1027 26.1939 34.2467 26.4068 34.0367 26.5568C33.9347 26.6288 33.7547 26.6348 33.6197 26.3528C33.6063 26.3233 33.5842 26.2985 33.5563 26.2819C33.5284 26.2653 33.4961 26.2576 33.4637 26.2599C33.2747 26.2599 33.4067 26.5778 33.0977 26.6858C32.8547 26.7728 32.7227 26.6498 32.6417 26.3858C32.5877 26.2118 32.4227 26.2299 32.3597 26.3709C32.2697 26.5779 31.8497 26.6709 31.7927 26.3349C31.7477 26.0709 31.8287 25.9718 31.5557 25.9358C31.4942 25.9401 31.4332 25.9219 31.384 25.8846C31.3349 25.8472 31.3009 25.7934 31.2885 25.7329C31.276 25.6725 31.2859 25.6096 31.3163 25.5559C31.3467 25.5022 31.3955 25.4613 31.4537 25.4409C31.6037 25.3779 31.8077 25.6988 32.0057 25.4108C32.0422 25.3415 32.1044 25.2892 32.179 25.2651C32.2535 25.241 32.3346 25.247 32.4047 25.2818C32.5052 25.3447 32.5886 25.4312 32.6477 25.5339C32.6867 25.5999 32.7497 25.6119 32.7827 25.5639C32.8265 25.4905 32.8541 25.4087 32.8637 25.3239C32.9177 25.1259 33.1337 24.9909 33.2867 25.1529C33.4397 25.3149 33.4217 25.4769 33.5597 25.4919C33.6977 25.5069 33.6767 25.4378 33.7757 25.2818C33.9587 24.9818 34.1627 25.0119 34.1897 25.3119C34.2017 25.5009 34.2017 25.5458 34.3487 25.5278Z" fill="#585858"/>
<path d="M38.1199 11.2593C39.6979 10.9593 39.5869 13.0832 39.2809 12.9002C39.1789 12.8402 39.1009 12.8822 39.0949 12.7502C39.0801 12.5886 39.0256 12.433 38.9363 12.2974C38.8469 12.1618 38.7255 12.0504 38.5828 11.9729C38.4401 11.8955 38.2805 11.8544 38.1181 11.8535C37.9557 11.8525 37.7956 11.8916 37.6519 11.9672C37.4209 12.1022 35.8519 10.5663 34.2679 9.95125C33.4699 9.65125 33.0949 9.46825 32.8789 9.38425C32.7855 9.34044 32.684 9.31624 32.5808 9.31315C32.4776 9.31005 32.3749 9.32812 32.2789 9.36625C32.0928 9.42244 31.9244 9.52578 31.7899 9.66625C31.6729 9.83425 31.4479 9.55825 31.0489 9.84625C30.9769 9.89725 30.8209 9.96625 30.8089 10.1103C30.7969 10.2543 30.6439 10.2513 30.5329 10.3143C30.1879 10.4943 29.6029 10.9142 29.4739 11.2892C29.399 11.5087 29.27 11.7057 29.0989 11.8623C28.8409 12.2073 29.3419 12.4623 29.6719 12.3333C29.9798 12.1997 30.2424 11.9798 30.4279 11.7003C30.5449 11.5533 30.6709 11.5623 31.0939 11.5563C31.2319 11.5563 31.2409 11.5923 31.3429 11.6823C30.9949 11.9823 30.0739 11.9282 29.6599 12.7172C29.4769 13.0622 29.3839 13.0172 29.0419 13.5212C28.9369 13.6772 28.9849 13.9562 29.4319 13.9892C29.5738 14.0051 29.7174 13.9861 29.8502 13.9338C29.983 13.8815 30.101 13.7975 30.1939 13.6892C30.8269 13.1522 30.4939 13.1402 31.0939 13.1612C31.4502 13.1521 31.8023 13.0821 32.1349 12.9542C32.2309 12.9272 33.7249 13.9832 34.5349 14.1782C35.0807 14.301 35.6376 14.3673 36.1969 14.3762C36.3229 14.3762 36.6979 14.5622 36.6229 14.6432C36.1129 15.2222 35.7859 14.7722 35.4439 14.7422C35.1019 14.7122 34.9909 14.9192 34.5949 14.7422C34.4269 14.6702 34.5199 14.2922 34.2379 14.5142C34.1142 14.5962 33.9656 14.6321 33.8181 14.6157C33.6706 14.5992 33.5336 14.5315 33.4309 14.4242C33.3289 14.3102 33.1309 14.2592 33.1309 14.4422C33.1511 14.5196 33.1495 14.6009 33.1264 14.6774C33.1034 14.7539 33.0597 14.8225 33.0002 14.8758C32.9407 14.9291 32.8677 14.965 32.7892 14.9795C32.7106 14.9941 32.6296 14.9867 32.5549 14.9582C32.3929 14.9162 32.3899 14.6582 32.2549 14.6822C32.0389 14.7332 32.3479 15.5192 31.5559 15.2822C31.4868 15.2561 31.4238 15.216 31.3709 15.1645C31.3179 15.113 31.276 15.0511 31.2479 14.9828C31.2198 14.9144 31.206 14.8411 31.2074 14.7672C31.2087 14.6933 31.2253 14.6205 31.2559 14.5532C31.3189 14.4602 31.3489 14.3402 31.2559 14.2772C31.0309 14.1242 30.9559 14.7662 30.4729 14.3252C30.3379 14.2022 30.2869 14.2922 30.2269 14.4632C30.1723 14.6179 30.0635 14.7475 29.9206 14.828C29.7777 14.9085 29.6105 14.9346 29.4499 14.9012C29.1499 14.8382 28.9579 14.3762 28.7779 14.4992C28.5019 14.6882 29.3959 15.4712 28.4779 16.2272C27.8269 16.7612 27.8779 15.8132 27.8779 15.8042C27.8752 15.7823 27.8663 15.7615 27.8522 15.7444C27.8381 15.7273 27.8194 15.7145 27.7983 15.7076C27.7773 15.7007 27.7547 15.6999 27.7332 15.7053C27.7117 15.7107 27.6922 15.7222 27.6769 15.7382C27.5809 15.8192 27.5659 16.0172 27.2509 16.1642C26.7679 16.3862 26.2939 15.5642 26.8189 15.2312C27.1849 15.0032 27.1189 14.9882 26.8759 14.8742C26.8124 14.8501 26.7561 14.8101 26.7124 14.7582C26.6687 14.7062 26.6389 14.6439 26.626 14.5772C26.6131 14.5105 26.6174 14.4416 26.6386 14.377C26.6597 14.3124 26.697 14.2544 26.7469 14.2082C26.7889 14.1632 26.8879 14.1002 26.8369 13.9982C26.7859 13.8962 26.7229 13.8752 26.6239 13.8812C26.1229 13.9142 25.7239 13.1102 26.2309 12.5343C26.2888 12.459 26.3695 12.4046 26.4609 12.3791C26.5523 12.3537 26.6496 12.3587 26.7379 12.3932C26.8789 12.4112 26.9599 12.3093 26.8939 12.1803C26.4529 11.3373 27.4129 10.5213 28.0939 11.1993C28.1629 11.2713 28.1869 11.3763 28.3519 11.3193C28.5169 11.2622 28.4479 11.1273 28.3969 10.9743C28.3239 10.787 28.3248 10.579 28.3995 10.3924C28.4741 10.2057 28.6169 10.0545 28.7989 9.96925C29.1169 9.86725 29.6989 10.3683 29.5219 9.80725C29.0779 8.46925 31.0219 7.51525 31.5319 8.79625C31.5949 8.96125 31.7089 9.04825 31.7869 8.90425C31.9609 8.60425 31.9609 8.27725 32.3689 8.06125C32.7769 7.84525 32.9989 7.74025 33.2989 8.04625C33.5989 8.35225 33.5689 8.84425 33.8329 8.57725C34.4959 7.91425 34.6009 9.05125 34.8739 9.05125C35.1469 9.05125 34.9489 8.70025 35.5189 8.35825C35.9479 8.10325 36.3019 7.98625 36.6559 8.33425C37.1779 8.85025 36.8299 9.38125 36.9379 9.61225C37.0999 9.95725 37.4149 9.09025 37.8199 9.31225C37.9462 9.39752 38.0478 9.51445 38.1147 9.65134C38.1815 9.78822 38.2113 9.94026 38.2009 10.0923C38.2519 10.7433 37.1659 11.4363 38.1199 11.2593Z" fill="#585858"/>
<path d="M28.8245 50.3763C29.0285 50.5203 28.8725 50.5923 28.5635 50.7063C27.0425 51.2793 26.7635 51.6063 25.4705 52.1883C25.2065 52.3053 25.1405 52.3353 25.1975 52.4463C25.4015 52.8543 28.0445 51.1563 28.3445 51.1563C28.4135 51.1563 28.4435 51.1953 28.4195 51.2613C28.3715 51.3963 28.2125 51.4473 28.0295 51.5403C27.2615 51.9423 27.0125 52.5243 25.7345 52.7583C25.562 52.7907 25.3916 52.8337 25.2245 52.8873C25.1615 52.9083 25.1585 52.9653 25.1675 53.0253C25.1765 53.0853 25.2065 53.1213 25.5875 53.0523C26.9105 52.8093 26.3975 52.5573 27.4625 52.5243C27.6545 52.5243 27.5435 52.6863 27.2585 52.8243C26.9999 52.9285 26.7354 53.0177 26.4665 53.0913C24.7235 53.6913 24.1235 53.2173 23.1875 53.3673C22.1825 53.5233 22.0325 54.5493 20.8235 54.0333C19.3835 53.4333 19.9925 52.4553 19.8935 51.8283C19.8125 51.3273 19.9325 51.1503 20.1545 50.2233C20.3765 49.2963 20.0075 49.5723 21.9095 47.4603C22.1555 47.1873 22.4285 47.7183 21.5615 48.8343C21.2825 49.1943 21.0515 49.5063 21.3125 49.9203C21.5735 50.3343 22.5935 50.8443 23.9075 50.0163C24.7325 49.4943 25.1075 49.6413 25.6625 49.0173C26.1575 48.4443 27.1205 48.1773 26.8985 48.4653C26.5025 48.9813 26.1695 49.1193 25.7915 49.5633C25.0325 50.4483 24.2915 50.5113 24.0665 50.9853C23.9315 51.2613 24.4925 51.7983 25.7855 51.3753C26.5715 51.1173 27.7535 50.3913 28.4435 50.3223C28.573 50.3064 28.7044 50.325 28.8245 50.3763Z" fill="#C49E91"/>
<path d="M50.4017 16.0958C50.7707 16.2188 52.2977 16.7708 51.9017 16.8308C48.8627 17.3198 48.8597 18.6878 47.5727 19.7348C47.0417 20.1638 46.9967 20.5448 46.8047 20.4398C44.0027 18.9398 44.8877 19.1138 41.8637 17.3408C37.3637 14.6948 37.6637 14.9198 37.7207 14.7338C37.9967 13.7348 38.2397 14.2388 38.7647 13.6628C39.3377 13.0358 38.3597 12.9398 41.0387 13.8188C44.7407 15.0338 47.8817 15.2708 50.4017 16.0958Z" fill="#C49E91"/>
<path d="M38.515 15.8226C38.5929 16.4147 38.5736 17.0156 38.458 17.6016C38.407 17.8596 38.308 17.4636 38.119 17.6286C38.0827 17.6665 38.0625 17.717 38.0625 17.7696C38.0625 17.8221 38.0827 17.8726 38.119 17.9106C38.182 17.9886 38.182 17.9886 38.101 18.0426C37.912 18.1656 37.996 18.2316 37.588 18.3066C36.805 18.4506 36.826 18.5106 36.793 18.3876C36.493 17.3316 33.292 17.3256 32.854 18.5106C32.758 18.7746 32.485 18.3486 31.915 18.7296C31.708 18.8676 31.915 17.7396 29.815 18.0726C28.948 18.2106 29.122 18.6726 28.645 16.6626C28.594 16.4436 28.717 16.4556 28.747 16.4196C29.647 15.2886 28.807 15.0306 29.407 15.1926C29.5933 15.2369 29.7889 15.2207 29.9653 15.1462C30.1418 15.0718 30.2898 14.943 30.388 14.7786C30.427 14.7096 30.457 14.6886 30.538 14.7306C30.838 14.8836 30.967 14.6676 30.949 14.8326C30.871 15.5226 31.912 15.9696 32.332 15.3486C32.401 15.2496 32.395 15.2496 32.509 15.2706C32.6576 15.3058 32.8132 15.2977 32.9573 15.2472C33.1014 15.1967 33.228 15.1059 33.322 14.9856C33.427 14.8536 33.358 14.7666 33.514 14.8536C33.931 15.0936 34.114 14.8536 34.282 14.9406C34.4225 15.0329 34.5816 15.0934 34.7479 15.1178C34.9143 15.1421 35.084 15.1298 35.245 15.0816C35.488 14.9766 35.707 15.2496 36.031 15.2556C36.649 15.2556 36.631 14.9016 36.811 15.0696C37.36 15.5646 37.675 15.2886 37.768 15.2736C37.81 15.2736 37.987 15.3576 37.996 15.3996C38.005 15.4416 37.996 15.4956 38.029 15.5766C38.0526 15.6134 38.0893 15.6398 38.1317 15.6505C38.1741 15.6611 38.219 15.655 38.257 15.6336C38.401 15.5676 38.482 15.6246 38.515 15.8226ZM37.981 16.2006C37.9779 16.2239 37.9797 16.2476 37.9865 16.2702C37.9933 16.2927 38.0048 16.3136 38.0203 16.3313C38.0358 16.349 38.0549 16.3633 38.0763 16.373C38.0977 16.3827 38.121 16.3878 38.1445 16.3878C38.1681 16.3878 38.1914 16.3827 38.2128 16.373C38.2342 16.3633 38.2533 16.349 38.2688 16.3313C38.2843 16.3136 38.2958 16.2927 38.3026 16.2702C38.3094 16.2476 38.3112 16.2239 38.308 16.2006C38.302 15.9396 37.987 15.9636 37.981 16.2006ZM37.996 17.0406C37.9968 17.0806 38.0133 17.1188 38.0419 17.1468C38.0705 17.1749 38.109 17.1906 38.149 17.1906C38.1786 17.19 38.2073 17.1807 38.2315 17.1639C38.2558 17.147 38.2746 17.1234 38.2855 17.0959C38.2964 17.0685 38.2989 17.0384 38.2928 17.0095C38.2867 16.9806 38.2722 16.9542 38.2511 16.9335C38.23 16.9128 38.2032 16.8988 38.1742 16.8933C38.1452 16.8877 38.1152 16.8909 38.088 16.9023C38.0607 16.9137 38.0375 16.933 38.0211 16.9576C38.0048 16.9822 37.9961 17.011 37.996 17.0406ZM37.879 17.4936C37.8811 17.4735 37.8792 17.4531 37.8733 17.4338C37.8675 17.4144 37.8579 17.3964 37.8451 17.3808C37.8322 17.3652 37.8164 17.3523 37.7986 17.3428C37.7807 17.3333 37.7612 17.3275 37.741 17.3256C37.7003 17.323 37.6601 17.3362 37.6288 17.3625C37.5976 17.3887 37.5776 17.426 37.573 17.4666C37.5672 17.4887 37.5663 17.5118 37.5704 17.5343C37.5744 17.5568 37.5834 17.5781 37.5966 17.5967C37.6098 17.6154 37.627 17.6309 37.6469 17.6422C37.6668 17.6534 37.6889 17.6602 37.7117 17.662C37.7344 17.6638 37.7573 17.6605 37.7787 17.6525C37.8001 17.6445 37.8195 17.6318 37.8355 17.6155C37.8514 17.5991 37.8636 17.5794 37.8712 17.5579C37.8787 17.5363 37.8814 17.5133 37.879 17.4906V17.4936ZM37.42 15.7596C37.42 16.0116 37.774 15.9996 37.771 15.7596C37.7658 15.7169 37.7453 15.6776 37.7132 15.649C37.6812 15.6204 37.6398 15.6044 37.5969 15.604C37.5539 15.6037 37.5123 15.6189 37.4797 15.647C37.4472 15.6751 37.426 15.714 37.42 15.7566V15.7596ZM37.63 16.7856C37.6534 16.7887 37.6771 16.7869 37.6997 16.7801C37.7222 16.7733 37.7431 16.7618 37.7608 16.7463C37.7785 16.7309 37.7927 16.7118 37.8025 16.6903C37.8122 16.6689 37.8172 16.6456 37.8172 16.6221C37.8172 16.5985 37.8122 16.5753 37.8025 16.5538C37.7927 16.5324 37.7785 16.5133 37.7608 16.4978C37.7431 16.4823 37.7222 16.4708 37.6997 16.464C37.6771 16.4573 37.6534 16.4554 37.63 16.4586C37.6062 16.454 37.5816 16.4547 37.558 16.4607C37.5344 16.4667 37.5125 16.4778 37.4937 16.4933C37.4749 16.5088 37.4598 16.5282 37.4495 16.5502C37.4391 16.5722 37.4337 16.5963 37.4337 16.6206C37.4337 16.6449 37.4391 16.6689 37.4495 16.6909C37.4598 16.7129 37.4749 16.7324 37.4937 16.7478C37.5125 16.7633 37.5344 16.7745 37.558 16.7805C37.5816 16.7865 37.6062 16.7872 37.63 16.7826V16.7856ZM37.501 18.0006C37.4917 17.968 37.4721 17.9393 37.445 17.9189C37.4179 17.8985 37.3849 17.8874 37.351 17.8874C37.3171 17.8874 37.2842 17.8985 37.2571 17.9189C37.23 17.9393 37.2104 17.968 37.201 18.0006C37.1944 18.0238 37.1933 18.0482 37.1977 18.072C37.2021 18.0957 37.212 18.1181 37.2265 18.1374C37.241 18.1566 37.2599 18.1723 37.2815 18.1831C37.3031 18.1938 37.3269 18.1994 37.351 18.1994C37.3752 18.1994 37.399 18.1938 37.4206 18.1831C37.4422 18.1723 37.461 18.1566 37.4756 18.1374C37.4901 18.1181 37.5 18.0957 37.5044 18.072C37.5088 18.0482 37.5077 18.0238 37.501 18.0006ZM37.306 17.1006C37.3084 17.0671 37.3007 17.0336 37.2839 17.0045C37.2671 16.9755 37.242 16.9521 37.2117 16.9374C37.1815 16.9228 37.1476 16.9175 37.1143 16.9224C37.0811 16.9272 37.0501 16.9419 37.0252 16.9645C37.0004 16.9871 36.983 17.0167 36.9751 17.0494C36.9673 17.082 36.9694 17.1163 36.9812 17.1477C36.993 17.1792 37.014 17.2063 37.0414 17.2257C37.0689 17.2452 37.1015 17.2559 37.135 17.2566C37.1574 17.2591 37.1801 17.2569 37.2016 17.2503C37.2232 17.2437 37.2431 17.2328 37.2603 17.2181C37.2774 17.2035 37.2914 17.1856 37.3013 17.1653C37.3113 17.1451 37.317 17.1231 37.318 17.1006H37.306ZM36.976 16.4286C37.18 16.4286 37.231 16.0656 36.976 16.0686C36.9524 16.0694 36.9292 16.0748 36.9076 16.0846C36.8861 16.0943 36.8667 16.1083 36.8505 16.1255C36.8344 16.1428 36.8218 16.1631 36.8135 16.1852C36.8051 16.2074 36.8013 16.2309 36.802 16.2546C36.8028 16.2782 36.8083 16.3015 36.818 16.323C36.8278 16.3445 36.8417 16.3639 36.859 16.3801C36.8763 16.3963 36.8966 16.4089 36.9187 16.4172C36.9408 16.4255 36.9644 16.4294 36.988 16.4286H36.976ZM36.949 15.5526C36.949 15.5064 36.9307 15.4622 36.8981 15.4295C36.8655 15.3969 36.8212 15.3786 36.775 15.3786C36.7289 15.3786 36.6846 15.3969 36.652 15.4295C36.6194 15.4622 36.601 15.5064 36.601 15.5526C36.601 15.6003 36.62 15.6461 36.6538 15.6799C36.6875 15.7136 36.7333 15.7326 36.781 15.7326C36.8288 15.7326 36.8746 15.7136 36.9083 15.6799C36.9421 15.6461 36.961 15.6003 36.961 15.5526H36.949ZM35.629 17.4936C35.773 17.4936 36.004 17.2836 35.731 17.1426C35.2511 16.927 34.7557 16.7475 34.249 16.6056C34.0462 16.5963 33.8456 16.6509 33.6755 16.7618C33.5054 16.8727 33.3744 17.0342 33.301 17.2236C33.229 17.4666 33.58 17.4426 33.643 17.2566C33.7253 17.1207 33.8527 17.0181 34.0029 16.9666C34.1532 16.915 34.3167 16.9179 34.465 16.9746C35.101 17.2026 35.476 17.4786 35.641 17.4936H35.629ZM31.12 16.8006C31.669 17.0076 31.666 16.3956 30.82 16.4076C30.313 16.4076 29.92 16.6506 29.158 17.4006C29.1133 17.4458 29.0857 17.5052 29.08 17.5686C29.08 17.6406 29.161 17.6556 29.218 17.6676C29.566 17.7396 30.19 16.4496 31.12 16.8006Z" fill="#C49E91"/>
<path d="M35.338 10.8006C37.477 12.3006 37.372 12.1746 37.282 12.2766C37.1402 12.4277 37.0401 12.613 36.9912 12.8143C36.9423 13.0157 36.9463 13.2263 37.003 13.4256C37.084 13.5846 37.003 13.6446 36.739 14.2026C36.661 14.3676 36.694 14.1546 36.196 14.1096C35.101 14.0106 34.657 14.0556 33.778 13.5636C32.113 12.6336 32.278 12.6186 31.678 12.8046C31.078 12.9906 30.715 12.7686 30.427 13.1046C30.028 13.5696 29.863 13.8276 29.428 13.7706C29.248 13.7466 29.251 13.6596 29.308 13.5816C29.38 13.4827 29.4571 13.3875 29.539 13.2966C30.016 12.7986 29.839 12.7446 30.247 12.4686C30.925 12.0126 31.117 12.2946 31.543 11.9046C31.789 11.6796 31.654 11.2296 30.91 11.2866C30.208 11.2866 30.496 11.4756 29.71 12.0486C29.554 12.1626 29.284 12.0996 29.368 11.9856C30.028 11.0856 29.476 11.4576 30.472 10.6926C30.6203 10.6012 30.7856 10.5409 30.958 10.5156C31.102 10.4766 31.096 10.5156 32.083 10.9056C32.383 11.0226 32.746 10.8846 31.918 10.5336C31.6474 10.4142 31.3687 10.3139 31.084 10.2336C31.006 10.2126 31.105 10.1136 31.237 10.0416C31.3365 9.98936 31.4511 9.97344 31.561 9.99658C31.7249 10.0191 31.8846 10.0656 32.035 10.1346C32.335 10.2516 32.581 10.2936 32.953 10.4346C33.115 10.4946 33.232 10.3446 33.073 10.2336C32.842 10.0686 32.566 10.1106 32.005 9.82859C32.0999 9.73327 32.2172 9.66328 32.3461 9.62502C32.475 9.58676 32.6115 9.58145 32.743 9.60958C33.193 9.72958 33.412 9.94558 34.123 10.2096C34.5534 10.3495 34.9623 10.5484 35.338 10.8006Z" fill="#C49E91"/>
<path d="M36.9156 25.3654C37.0026 25.5424 35.5986 26.9134 35.2266 27.1204C35.1156 27.1864 34.8666 27.2314 34.7646 27.2824C33.3966 27.9634 33.5286 28.5004 33.1656 29.6824C33.0216 30.1594 33.0486 31.0774 32.9166 30.9454C32.3166 30.3454 32.1156 30.3304 32.4096 29.0944C32.6226 28.1944 32.6856 27.6994 31.7676 27.5674C30.2676 27.3484 30.6606 27.4054 30.6576 26.6314C30.6576 26.5684 30.7026 25.0684 30.7116 25.0084C30.8515 25.1143 30.9654 25.2508 31.0446 25.4074C31.0776 25.4854 31.0446 25.5424 31.0146 25.6894C30.9984 25.7572 30.9969 25.8276 31.0102 25.896C31.0234 25.9644 31.0512 26.0292 31.0915 26.086C31.1318 26.1428 31.1839 26.1904 31.2441 26.2254C31.3043 26.2605 31.3713 26.2823 31.4406 26.2894C31.6206 26.2894 31.4196 26.8684 32.0106 26.8894C32.3526 26.9254 32.4216 26.6374 32.5266 26.7844C32.5767 26.86 32.6432 26.9233 32.7213 26.9695C32.7993 27.0156 32.8868 27.0435 32.9772 27.0511C33.0676 27.0586 33.1585 27.0455 33.2431 27.0128C33.3276 26.9801 33.4037 26.9287 33.4656 26.8624C33.5916 26.7394 33.5946 26.8624 33.8916 26.9224C34.0048 26.9389 34.12 26.9123 34.2144 26.8478C34.3089 26.7834 34.3757 26.6858 34.4016 26.5744C34.4081 26.5384 34.4276 26.506 34.4563 26.4834C34.485 26.4607 34.5211 26.4493 34.5576 26.4514C34.9056 26.4064 34.9476 26.0044 34.9446 25.9504C34.9446 25.6774 35.8206 25.5844 36.6036 24.8614C36.9756 24.5164 36.8886 24.5614 36.8856 24.8194C36.8534 25.0013 36.8637 25.1881 36.9156 25.3654Z" fill="#C49E91"/>
<path d="M39.3018 19.3504C39.3018 19.1374 39.3438 18.6124 38.9478 18.2914C38.8304 18.2212 38.6942 18.1889 38.5578 18.1991C38.4214 18.2093 38.2914 18.2615 38.1858 18.3484C38.0602 18.4723 37.9613 18.6206 37.8952 18.7841C37.8292 18.9477 37.7974 19.1231 37.8018 19.2994C37.8018 19.4314 37.6278 19.5664 37.5738 19.4314C37.5198 19.2964 37.5408 19.2364 37.5978 18.8314C37.6188 18.6844 37.5468 18.7774 37.1748 18.9064C36.4488 19.1614 37.4388 20.5294 35.2548 20.8654C34.7324 20.9199 34.2043 20.8709 33.7008 20.7214C32.7258 20.3404 33.0258 19.0984 32.6028 18.9874C32.3028 18.9034 31.9698 19.0864 32.0208 19.2694C32.0947 19.4437 32.1193 19.635 32.0918 19.8223C32.0642 20.0096 31.9857 20.1858 31.8648 20.3314C31.5018 20.7004 31.2258 20.9794 31.5018 21.3904C31.5892 21.5126 31.7083 21.6086 31.8464 21.6678C31.9844 21.727 32.1361 21.7473 32.2848 21.7264C32.9058 21.7264 32.9118 21.2254 33.1848 21.4564C33.4578 21.6874 33.9168 21.5524 33.7248 21.1834C33.6498 21.0394 33.5748 21.0124 33.6498 20.9074C33.8328 20.6554 34.3488 21.3364 33.9348 21.7234C33.6078 22.0234 33.2928 21.8674 33.0348 21.7654C32.3238 22.4344 30.9618 21.9934 31.0758 21.0274C31.0968 20.8474 30.3918 21.4084 29.4348 21.1714C29.2728 21.1324 29.2578 21.1444 29.2578 21.3034C29.3066 22.0284 29.4822 22.7392 29.7768 23.4034C30.1518 24.1294 30.9768 24.7834 31.1958 25.1554C31.2918 25.3324 31.3818 25.0684 31.7118 25.2274C31.7748 25.2574 31.8378 25.3054 31.8708 25.2604C31.9038 25.2154 31.9428 25.1044 32.1168 25.0444C32.1922 25.0184 32.2731 25.0124 32.3515 25.0272C32.4298 25.0419 32.503 25.0768 32.5638 25.1284C32.6298 25.1734 32.6568 25.1494 32.7408 25.0594C32.7942 24.9891 32.8656 24.9344 32.9474 24.9012C33.0292 24.8679 33.1185 24.8573 33.2058 24.8704C33.3618 24.8974 33.4338 25.0414 33.5058 25.1434C33.5298 25.1854 33.5388 25.2634 33.6138 25.1434C33.6666 25.0471 33.7417 24.9648 33.8328 24.9034C33.9383 24.8542 34.0587 24.8478 34.1688 24.8854C34.3818 24.9724 34.3698 25.1854 34.4088 25.2844C34.4088 25.3174 34.4808 25.2484 34.6158 25.2844C35.0508 25.3894 34.6158 25.6894 35.7528 25.0534C38.1948 23.6764 37.2138 20.7694 38.0628 21.1144C38.1921 21.1847 38.3408 21.211 38.4864 21.1894C38.632 21.1678 38.7666 21.0993 38.8698 20.9944C39.2268 20.5954 39.3468 19.8934 39.3018 19.3504ZM33.9378 23.4214C31.8558 23.2594 31.7928 23.6464 31.4478 23.6074C31.2108 23.5804 31.4268 23.2234 32.7138 23.0404C33.2718 23.0554 33.6138 22.9864 34.0098 23.1604C34.1418 23.2204 34.0578 23.4304 33.9378 23.4214ZM34.1958 23.9554C34.0878 23.9254 33.9228 23.9194 33.9648 23.7514C33.9705 23.7269 33.9857 23.7055 34.007 23.692C34.0284 23.6786 34.0542 23.674 34.0788 23.6794C34.5798 23.7394 34.5468 22.9624 34.7778 23.3314C34.8618 23.4664 34.5018 24.0004 34.2018 23.9554H34.1958ZM38.9478 18.9874C38.8008 19.0414 38.6478 18.6544 38.5218 19.0024C38.4163 19.2417 38.385 19.5071 38.4318 19.7644C38.4978 19.9174 38.8248 19.8604 38.8938 20.1724C38.9119 20.2551 38.9012 20.3415 38.8636 20.4173C38.826 20.4931 38.7636 20.5538 38.6868 20.5894C38.5788 20.6404 38.4258 20.6914 38.4048 20.5654C38.3748 20.3884 38.6778 20.4484 38.6688 20.2474C38.6598 20.0464 37.8678 20.2894 38.2428 19.0234C38.5218 18.0754 39.1488 18.9004 38.9478 18.9874Z" fill="#C49E91"/>
<path d="M55.5218 19.8753C55.6791 20.0657 55.7811 20.2957 55.8166 20.5402C55.852 20.7846 55.8196 21.0341 55.7228 21.2613C55.5728 21.7203 55.2398 21.6513 55.3448 21.8613C55.8008 22.8393 54.0578 25.0653 53.3198 25.8603C52.2548 27.0153 51.2738 27.6603 50.3918 28.7223C48.4988 30.9783 48.7538 31.1943 47.3918 32.6583C46.3808 33.7353 46.2848 33.9153 45.4418 35.2563C45.2288 35.5923 45.4238 39.1833 44.9168 42.7563C44.1038 48.4833 43.5278 45.9663 45.0968 53.0943C45.2948 53.9943 45.2378 54.7173 45.6968 55.7943C45.8318 56.1093 45.8498 56.1963 46.2488 57.6213C46.6298 58.9923 46.6988 58.8213 45.4058 59.6403C44.9738 59.9133 45.1448 59.5863 45.4658 61.5933C45.8078 63.7413 46.1858 63.8163 46.1558 64.2363C46.1378 64.4793 45.8768 64.4673 45.8018 64.2873C44.9768 62.2503 45.1268 61.2453 44.7428 60.0273C44.7128 59.9343 44.7818 60.0273 43.4528 60.2073C42.8528 60.2883 42.2888 60.6723 41.7338 60.8943C41.0198 61.1943 40.6838 61.0713 39.0338 61.0113C38.6886 61.0447 38.3403 61.0234 38.0018 60.9483C37.4468 60.7923 37.0178 60.9663 36.4058 61.1043C33.5288 61.7463 34.5068 61.2033 33.5018 57.7653C33.3188 57.1413 33.3608 57.0993 33.2738 57.7263C33.2117 58.2302 33.2218 58.7403 33.3038 59.2413C33.2849 59.7182 33.2418 60.1938 33.1748 60.6663C33.1448 61.6083 31.6748 60.9663 29.8268 60.9483C28.1528 60.9483 28.5518 61.1703 26.5268 60.5193C25.3478 60.1413 25.2788 60.2823 24.3188 60.1293C24.1748 60.1053 24.1358 60.3753 24.0788 60.9603C23.9678 62.0703 23.7398 62.4993 23.6408 63.3243C23.6365 63.4941 23.602 63.6617 23.5388 63.8193C23.5202 63.8506 23.4928 63.8758 23.46 63.8916C23.4272 63.9075 23.3905 63.9134 23.3544 63.9086C23.3183 63.9038 23.2844 63.8886 23.2569 63.8647C23.2294 63.8408 23.2096 63.8094 23.1998 63.7743C23.1488 63.4743 23.9858 60.0333 23.8268 60.0003C22.2248 59.6523 22.4918 60.3303 23.3858 55.6413C23.5538 54.7413 23.5988 54.7023 23.5118 54.7413C22.7948 55.1433 22.0508 55.6173 21.1538 55.5423C20.3858 55.4763 19.4888 55.3713 18.9458 54.7863C18.3458 54.1383 17.2718 53.8623 16.9748 52.0233C16.9748 51.9303 17.0138 51.9033 15.7238 51.8193C14.8568 51.7623 14.3168 51.8433 14.0468 51.1383C13.6508 50.1153 10.3988 41.6433 10.2398 40.5663C10.0808 39.4893 10.5668 39.0663 11.9708 38.9553C15.1088 38.7033 16.1708 38.9163 15.9548 38.7753C15.7844 38.6487 15.5964 38.5476 15.3968 38.4753C15.1568 38.3913 15.1478 38.2533 15.0158 38.1273C14.7968 37.9143 14.7638 38.3583 14.0168 38.1873C13.8827 38.1391 13.7641 38.0557 13.6734 37.9459C13.5826 37.8362 13.523 37.704 13.5008 37.5633C13.4588 37.0353 13.4198 37.0983 13.3718 37.0053C13.2908 36.8553 13.1528 37.3743 12.3038 37.0713C11.7638 36.8823 11.8538 36.4413 11.7938 36.1233C11.7548 35.9163 11.3468 36.0933 11.1938 36.2643C11.1144 36.3758 11.0121 36.4691 10.8937 36.5377C10.7753 36.6063 10.6436 36.6487 10.5074 36.6621C10.3712 36.6754 10.2337 36.6594 10.1042 36.6151C9.97473 36.5708 9.85625 36.4993 9.75677 36.4053C9.24377 35.9313 9.69377 35.4423 9.30977 35.2233C8.76377 34.9233 8.72477 34.5303 8.75177 33.8643C8.78477 33.1413 9.05177 33.0453 9.27977 32.8953C9.46245 32.8715 9.6482 32.8933 9.82042 32.9587C9.99264 33.0242 10.146 33.1312 10.2668 33.2703C10.5038 33.5433 9.89477 32.5653 10.7258 32.1513C11.3018 31.8513 11.5268 31.9383 11.7548 32.0253C12.2198 32.2023 12.2138 32.4873 12.4928 33.2253C12.6938 33.7563 12.1268 33.8073 12.7928 34.2093C12.8708 34.2543 13.2818 34.3383 13.5848 34.4343C14.2988 34.6593 13.5518 35.7933 14.2118 35.7543C14.4373 35.7492 14.659 35.8139 14.8464 35.9396C15.0338 36.0652 15.1778 36.2457 15.2588 36.4563C15.5588 37.4343 15.9038 37.5783 15.8378 37.4133C15.7944 37.1816 15.8078 36.9428 15.8768 36.7173C16.1108 36.2373 15.5348 35.7243 15.0998 35.5173C14.6648 35.3103 14.7788 34.6863 15.0698 34.4553C15.0938 34.4373 15.0998 34.3893 15.1058 34.3533C15.1118 34.3173 15.1058 34.3113 15.0848 34.2903C15.0008 33.9183 14.8508 34.1223 13.9988 33.7773C13.8849 33.7322 13.7819 33.6635 13.6964 33.5758C13.6109 33.4881 13.5449 33.3833 13.5028 33.2683C13.4606 33.1534 13.4431 33.0308 13.4516 32.9086C13.46 32.7864 13.4942 32.6674 13.5518 32.5593C13.7648 32.1693 13.8968 32.1303 13.7948 32.0763C13.3208 31.8183 13.6568 31.2063 13.2398 31.3473C12.6848 31.5333 11.8688 31.2513 11.7818 30.7473C11.7578 30.6003 11.6048 30.4713 11.4578 30.5913C11.3108 30.7113 11.2658 30.9873 10.9238 31.0083C10.8188 31.0083 10.4948 31.3083 10.1858 31.0863C8.88977 30.1323 10.3838 28.9863 10.0358 28.8573C9.48077 28.6623 9.68777 29.7573 8.93777 29.7033C7.65677 29.6163 8.58677 28.7073 7.70477 29.0583C7.10477 29.3043 6.46577 28.5153 6.17777 27.9123C6.08256 27.736 6.03302 27.5387 6.03367 27.3383C6.03432 27.1379 6.08514 26.9409 6.18149 26.7652C6.27784 26.5895 6.41665 26.4407 6.58526 26.3324C6.75387 26.2242 6.94691 26.1598 7.14677 26.1453C7.23377 26.1453 7.32077 26.1693 7.26377 26.0823C6.39077 24.6963 7.28777 24.6483 8.02577 24.3063C8.38877 24.1353 8.41577 23.9613 8.32577 23.5593C8.32074 23.5372 8.31045 23.5166 8.29577 23.4993C8.12477 23.2173 8.11877 23.6583 7.56977 23.7153C7.11377 23.7663 7.10477 23.5773 6.91277 23.3043C6.42377 23.7213 6.77777 23.9823 6.31277 24.6183C6.20177 24.7773 6.07877 25.4343 5.04977 25.0653C4.89673 24.997 4.77476 24.874 4.70777 24.7203C4.10777 23.6073 4.73177 23.3373 4.55777 22.9953C4.48577 22.8543 4.38977 22.5363 4.31477 22.4193C4.19013 22.2079 4.12793 21.9655 4.13536 21.7203C4.14279 21.475 4.21956 21.2368 4.35677 21.0333C4.51577 20.8623 5.14877 20.3463 5.29277 20.2323C5.59277 19.9953 5.81777 20.0493 6.63377 20.0043C6.73277 20.0043 6.78377 20.0403 6.75077 19.6383C6.71777 19.2363 7.10777 19.3203 6.92477 19.2123C6.07877 18.7083 6.18677 18.0573 6.62477 17.1873C6.70877 17.0223 6.78977 16.9473 7.16477 17.0043C7.44377 17.0493 7.51577 16.9383 7.95977 16.7043C8.02277 16.6713 8.01377 16.6443 7.93877 16.5123C7.66577 16.0113 7.91177 15.3123 8.18177 15.2013C8.61977 15.0003 9.19577 14.8143 9.60077 15.0003C10.5338 15.4383 10.5938 15.5223 10.7318 15.7983C10.8128 15.9663 10.7978 15.7473 11.2208 15.7293C11.8508 15.7053 12.1568 17.2053 11.3558 17.9733C11.1128 18.2073 10.9598 18.1383 10.9328 18.4143C10.8848 18.9303 11.1788 19.0683 10.9958 19.6143C10.9388 19.7793 11.0228 19.9143 10.7438 20.1033C9.84377 20.6793 9.99077 20.9673 9.99977 21.4653C9.99977 21.5193 9.99977 21.5733 10.0808 21.5793C10.1618 21.5853 10.2458 21.5793 10.2548 21.4983C10.3058 21.1533 10.8818 20.8623 11.1548 20.8743C11.2868 20.8743 10.9748 20.1843 11.4548 19.7763C12.0218 19.2903 12.2108 19.1493 13.0778 19.3653C14.0618 19.6113 13.7618 20.5413 13.7918 21.0753C13.7918 21.2793 13.9568 21.2883 14.1428 21.2883C14.3288 21.2883 14.3288 21.3423 14.7908 21.5373C15.4238 21.8013 15.5168 22.3263 15.3368 22.6563C15.0368 23.1933 14.7368 24.2343 13.9568 24.3483C13.7618 24.3783 13.8548 24.4323 13.7588 24.7923C13.6675 25.0247 13.5214 25.2315 13.3328 25.395C13.1441 25.5586 12.9187 25.6739 12.6758 25.7313C12.1358 25.7823 12.1328 25.6623 12.0968 25.8843C12.0854 26.1088 12.0441 26.3308 11.9738 26.5443C11.8748 26.8023 11.6978 26.8443 11.8568 27.1113C12.0878 27.4773 12.4568 26.6373 13.0778 26.7273C14.1428 26.8863 13.9238 27.9483 14.0228 28.0593C14.1218 28.1703 14.4218 27.9753 14.6228 28.2873C14.7308 28.4523 14.9948 28.5873 14.8478 29.0733C14.6738 29.6433 14.4878 29.7603 14.6588 30.2253C14.8088 30.6303 15.9818 30.3993 16.1588 31.7253C16.1581 31.8127 16.1642 31.8999 16.1768 31.9863C16.3268 31.8543 16.3448 31.4343 17.3468 31.6113C17.3708 31.2903 17.4068 31.0113 17.4308 30.8433C17.5208 30.2433 18.6308 30.2433 18.2918 29.5773C18.0368 29.0913 16.5728 28.6443 17.8958 26.1423C17.9738 25.9983 17.6918 25.8423 17.5118 25.1943C17.2418 24.2013 18.0728 24.2313 17.5388 23.3943C17.2328 23.0718 17.0612 22.6449 17.0588 22.2003C17.0083 21.8809 17.0216 21.5546 17.0978 21.2403C17.1608 20.9853 17.7398 20.9403 17.8808 20.9403C17.9618 20.9403 17.9948 20.9403 18.0158 20.5893C18.0668 19.7733 16.8338 18.8913 17.8988 17.5683C18.1148 17.3013 18.5138 17.2683 18.8498 17.2233C19.1858 17.1783 19.3748 17.4003 19.6328 17.6343C19.7558 17.4273 19.8458 17.2233 20.0498 17.1393C20.3228 17.0283 20.4368 16.8093 20.9498 16.8183C21.5918 16.8183 21.4508 17.9673 21.4988 18.0183C21.8408 18.4683 22.4918 17.4363 23.1338 18.0183C23.6168 18.4473 23.7758 18.4923 23.8328 19.0383C23.8988 19.6593 23.5058 19.9593 23.6648 20.2623C23.8148 20.6538 23.8254 21.085 23.6948 21.4833C23.5868 21.7353 23.5178 21.8463 22.6598 22.3593C22.0598 22.7283 21.2228 22.3593 21.1358 22.6593C21.0488 22.9593 21.2708 23.0073 21.1748 23.5113C21.0938 23.9463 20.7818 23.8563 20.7428 24.2613C20.7248 24.4593 21.1148 24.5433 21.3818 24.5103C21.8438 24.4503 22.0898 24.3783 22.2818 24.6963C23.3888 26.5773 20.2718 26.7543 20.7638 27.2973C20.9948 27.5493 21.4118 27.8973 21.4148 28.4973C21.4326 28.7016 21.406 28.9073 21.3368 29.1003C20.8958 29.9583 20.7638 30.0603 20.4578 30.2403C20.2126 30.3942 19.9546 30.5266 19.6868 30.6363C19.5182 30.6844 19.3658 30.7774 19.2459 30.9052C19.126 31.0331 19.043 31.191 19.0058 31.3623C18.9368 31.8753 19.1318 31.9893 18.9038 32.1903C18.784 32.3536 18.6427 32.4999 18.4838 32.6253C18.1418 32.8833 18.0488 33.2493 17.8058 33.3513C17.0978 33.6513 18.1658 33.9513 17.7188 34.4853C17.2718 35.0193 16.9478 35.0853 16.8908 35.2713C16.8068 35.5443 16.7348 35.6793 16.9268 35.8713C17.1303 36.0809 17.2516 36.3567 17.2688 36.6483C17.4368 37.1043 16.6688 37.4493 17.0378 37.9233C17.2688 38.2233 17.1458 38.5233 17.3378 38.3823C17.5298 38.2413 17.5028 38.1813 17.6168 37.9323C17.9588 37.1943 17.6168 37.3593 18.2168 36.1323C18.3968 35.7663 18.8918 35.6103 18.8168 35.1123C18.7178 34.4223 18.7838 33.8013 19.4348 33.6123C19.7018 33.5253 19.8818 33.4413 20.1068 33.6123C20.3318 33.7833 20.2358 33.5733 20.4458 33.1413C20.7458 32.5413 21.1478 31.8423 21.8348 31.6953C22.1348 31.6263 22.1858 31.2723 22.5338 31.0653C23.4908 30.4983 22.6208 31.2783 24.4718 29.7513C26.1068 28.4043 27.2228 28.2513 27.8738 27.9513C27.9998 27.8973 27.9248 27.8133 28.0688 27.5703C28.4198 26.9703 28.1768 26.9013 28.7378 26.2233C29.3378 25.4973 29.4818 25.4913 30.2378 25.2633C30.4028 25.2153 30.3938 25.3263 30.4058 25.0533C30.4388 24.3543 29.7578 24.5733 29.1578 22.7463C29.008 22.223 28.9421 21.6793 28.9628 21.1353C29.0048 20.9493 28.8938 21.0213 28.5728 20.5593C28.2632 20.094 28.1312 19.5329 28.2008 18.9783C28.2908 18.6183 28.4348 18.5733 28.7678 18.3783C28.1678 16.6173 28.4438 16.6803 28.2008 16.6953C27.6428 16.7283 27.7628 16.2243 27.5228 16.3743C26.9228 16.7523 26.1728 16.3023 26.3228 15.4353C26.3828 15.0903 26.6648 15.1503 26.5568 15.0393C26.0708 14.5443 26.5868 14.2263 26.3438 14.1393C25.4438 13.7943 25.5998 12.2703 26.4368 12.1113C26.7068 12.0603 26.2628 11.6193 26.7908 10.9983C27.1538 10.5663 27.6638 10.6563 28.0658 10.7823C28.0898 10.3143 28.1918 9.94233 28.6328 9.72933C29.0018 9.54933 29.2328 9.80733 29.2088 9.62133C29.1008 8.04933 30.8378 7.36533 31.6418 8.40033C31.7798 8.57433 31.6988 7.88733 32.6678 7.62033C33.5228 7.38333 33.6938 8.27433 33.8318 8.17833C33.9561 8.10172 34.1026 8.06895 34.2478 8.08526C34.393 8.10158 34.5285 8.16602 34.6328 8.26833C34.8338 8.49933 34.8458 8.60133 34.9148 8.51133C35.7668 7.41333 37.1978 7.70433 37.2398 8.98233C37.2398 9.03033 37.2398 9.19233 37.3148 9.12933C37.9358 8.66433 38.7908 9.54633 38.4068 10.6293C38.3558 10.7853 38.1758 10.9293 38.3858 10.9293C38.7078 10.9273 39.02 11.0405 39.2659 11.2485C39.5118 11.4564 39.6752 11.7454 39.7268 12.0633C39.8738 12.8013 39.5108 12.9873 39.6968 13.0593C43.1288 14.3763 46.3418 14.6943 49.4318 15.4893C51.4508 16.0083 52.0028 16.3263 52.2848 16.5243C52.4828 16.7015 52.739 16.7998 53.0048 16.8003C54.2978 16.9263 55.2998 17.1933 55.4948 18.4893C55.6538 19.5453 55.3478 19.6143 55.5218 19.8753ZM55.1588 18.9003C55.1948 17.6043 54.1808 17.2983 52.9148 17.2023C52.1563 17.1272 51.3909 17.2389 50.6855 17.5275C49.9801 17.8162 49.356 18.2731 48.8678 18.8583C47.8388 20.1603 48.1358 19.4883 47.1368 20.8383C46.9358 21.1143 47.0648 21.3333 47.2598 21.7593C47.4548 22.1853 48.4118 21.6153 48.6728 21.6333C48.6967 21.6341 48.7201 21.6406 48.741 21.6523C48.7619 21.664 48.7797 21.6805 48.7929 21.7005C48.8062 21.7204 48.8144 21.7433 48.817 21.7671C48.8196 21.7909 48.8164 21.815 48.8078 21.8373C48.7598 21.9663 48.6698 21.9753 48.5858 21.9993C47.8478 22.2183 47.5388 22.3203 47.2358 22.2213C46.9328 22.1223 46.5548 23.1393 44.9918 23.8323C41.6918 25.2933 43.1048 24.9303 41.1068 25.9323C40.5908 26.1903 40.5878 26.0763 39.4448 26.0463C39.2528 26.0463 39.4448 26.2143 39.4838 26.4153C39.5228 26.6163 39.5348 26.7633 39.5738 26.9343C39.5949 27.0647 39.5857 27.1981 39.5468 27.3243C39.3758 28.1073 38.7818 28.6503 38.0468 29.2833C37.6088 29.6703 37.8338 29.9133 37.3238 30.5403C37.1978 30.6933 37.0478 30.8403 36.9278 30.9813C36.4748 31.5813 36.0788 29.9883 35.9828 29.8713C35.5958 29.4093 35.4848 29.0313 35.0828 28.5873C34.8818 28.3683 34.7828 28.6053 34.5338 28.7223C34.1408 28.9203 34.1198 29.9913 33.8408 29.9223C33.5618 29.8533 33.9578 28.7223 34.2488 28.4913C35.3588 27.6183 35.4938 28.6473 36.1388 29.4573C36.2901 29.618 36.4011 29.8124 36.4628 30.0243C36.4958 30.1833 36.6788 30.7353 36.7868 30.6243C37.0822 30.3614 37.2992 30.0219 37.4138 29.6433C37.7138 28.5873 39.7118 28.0863 39.0938 26.4123C38.8868 25.8513 38.7098 25.8123 38.5748 25.3173C38.5417 25.1806 38.4778 25.0533 38.3881 24.945C38.2983 24.8368 38.1851 24.7504 38.0569 24.6925C37.9287 24.6347 37.789 24.6068 37.6485 24.6111C37.5079 24.6154 37.3702 24.6517 37.2458 24.7173C37.4138 24.9003 37.5668 25.0173 37.3838 25.3173C36.9848 25.9893 36.8378 26.1273 35.9318 27.0153C35.1578 27.7713 35.0768 27.3153 34.2248 28.0323C33.3728 28.7493 33.0638 32.0253 33.0518 33.1323C33.0745 33.7619 33.1306 34.3897 33.2198 35.0133C33.2438 35.3703 33.2468 36.0873 33.2708 36.4113C33.4298 38.5743 33.3818 37.7253 33.2558 39.7533C33.1448 41.5083 33.7058 41.6583 33.7238 42.9903C33.7238 43.8363 33.5348 44.4213 33.6578 46.9263C33.6578 47.0823 33.6998 47.0283 33.9758 47.0493C36.7388 47.2533 37.6328 47.0493 37.6418 47.4333C37.6418 48.2523 38.1968 47.5683 33.6908 50.7783C33.4388 50.9583 33.2768 50.8923 33.3338 53.2083C33.3338 53.5083 33.4148 54.6093 33.4298 54.7323C33.5108 55.4103 33.3008 55.9323 33.5078 56.5803C34.4978 59.7663 33.8888 58.4973 34.5788 60.8043C34.6328 60.9783 34.7048 60.9483 35.0318 60.9513C35.4908 60.9513 35.3138 60.9513 35.9528 60.8073C38.1938 60.3423 37.1138 60.5073 38.6528 60.6483C42.3398 60.9483 41.8298 60.0993 43.4228 59.8293C44.8928 59.5833 44.5988 59.7513 46.0118 58.8183C46.1198 58.7463 46.1768 58.8423 45.8798 57.7743C45.0788 54.9183 45.1148 55.9203 44.7998 53.7303C44.4608 51.3663 44.1038 52.4883 43.7798 47.6103C43.7108 46.5933 44.1248 45.7173 44.5148 42.9843C44.8194 40.5151 44.9687 38.0292 44.9618 35.5413C44.2478 36.1113 41.0888 31.8993 40.8458 29.3343C40.841 29.3111 40.8428 29.2871 40.8511 29.2649C40.8594 29.2427 40.8737 29.2233 40.8925 29.2089C40.9113 29.1945 40.9338 29.1857 40.9573 29.1835C40.9809 29.1812 41.0046 29.1857 41.0258 29.1963C41.2898 29.3163 41.6738 32.7963 44.5478 35.1333C45.0698 35.5563 45.4988 34.1733 46.8998 32.6463C48.3728 31.0413 49.2398 29.3763 50.0078 28.5783C51.6608 26.8563 54.7838 24.4773 55.0208 22.3293C55.1888 20.8053 50.7908 21.7053 49.6898 21.6153C49.5338 21.6153 49.4318 21.4233 49.6898 21.3843C51.0278 21.1773 53.9348 20.7063 54.9998 21.4173C55.2518 21.5883 56.0918 20.2353 54.4508 19.6173C52.4828 18.8643 49.8608 20.5173 48.9308 21.0333C48.8018 21.1023 48.7628 21.0333 48.7478 20.9913C48.7387 20.9593 48.7383 20.9255 48.7468 20.8933C48.7552 20.8611 48.7721 20.8318 48.7958 20.8083C49.3298 20.2563 50.5958 19.7313 51.0368 19.5573C52.8368 18.8493 53.4368 18.9273 54.3758 19.1643C55.3148 19.4013 55.1348 19.7673 55.1588 18.9003ZM51.9158 16.8303C52.2998 16.7703 50.7728 16.2303 50.4158 16.0953C47.8958 15.2673 44.7518 15.0333 41.0648 13.8183C38.3858 12.9393 39.3638 13.0353 38.7908 13.6623C38.2658 14.2383 38.0228 13.7343 37.7468 14.7333C37.6958 14.9193 37.3838 14.6943 41.8898 17.3403C44.9138 19.1133 44.0288 18.9273 46.8308 20.4393C47.0228 20.5443 47.0678 20.1633 47.5988 19.7343C48.8738 18.6873 48.8768 17.3193 51.9158 16.8303ZM46.7828 22.0803C46.9478 21.9273 46.9658 22.0293 46.8578 21.7623C46.7266 21.4934 46.6856 21.1894 46.7408 20.8953C46.7798 20.7243 46.5368 20.8413 44.6588 19.5753C44.3588 19.3683 38.7668 15.6003 38.8388 15.9753C38.8703 16.4332 38.8491 16.8932 38.7758 17.3463C38.7038 17.8293 38.6348 17.8893 38.7758 17.9133C39.9758 18.1233 39.6158 19.9023 39.3758 20.6883C39.3455 20.8605 39.2709 21.0218 39.1594 21.1565C39.0479 21.2911 38.9033 21.3945 38.7398 21.4563C38.5427 21.5046 38.3368 21.5046 38.1398 21.4563C38.0258 21.4563 37.9778 21.5583 37.9658 21.6543C37.6838 23.7543 36.8198 24.4413 37.5068 24.3213C37.668 24.2873 37.8346 24.2888 37.9952 24.3256C38.1558 24.3623 38.3064 24.4336 38.4368 24.5343C38.8568 24.8133 38.9858 25.7043 39.2408 25.6983C39.9998 25.6803 40.5638 25.7853 40.8488 25.6533C42.2318 25.0173 42.4718 24.6303 43.1888 24.2553C45.2408 23.1783 44.7908 23.9463 46.7828 22.0803ZM39.2828 12.9003C39.5828 13.0833 39.6998 10.9653 38.1218 11.2593C37.1678 11.4363 38.2538 10.7433 38.2028 10.1013C38.2131 9.94934 38.1834 9.7973 38.1165 9.66042C38.0496 9.52353 37.948 9.40661 37.8218 9.32133C37.4168 9.09033 37.1018 9.95733 36.9398 9.62133C36.8318 9.39033 37.1798 8.85933 36.6578 8.34333C36.3038 7.99533 35.9498 8.11233 35.5208 8.36733C34.9508 8.70333 35.1308 9.05733 34.8848 9.06033C34.6388 9.06333 34.5008 7.91433 33.8438 8.57733C33.5798 8.84433 33.6608 8.37633 33.3098 8.04633C32.9588 7.71633 32.7578 7.85433 32.3678 8.04633C31.9778 8.23833 31.9598 8.59533 31.8008 8.90433C31.7228 9.04833 31.6088 8.96133 31.5458 8.79633C31.0508 7.51533 29.0918 8.46933 29.5358 9.80733C29.7188 10.3683 29.1308 9.86733 28.8128 9.96933C28.6276 10.053 28.4816 10.2044 28.4046 10.3925C28.3276 10.5805 28.3255 10.7908 28.3988 10.9803C28.4498 11.1333 28.5098 11.2803 28.3538 11.3253C28.1978 11.3703 28.1648 11.2773 28.0958 11.2053C27.4238 10.5273 26.4638 11.3433 26.8958 12.1863C26.9618 12.3153 26.8958 12.4173 26.7398 12.3993C26.6514 12.3647 26.5542 12.3598 26.4627 12.3852C26.3713 12.4106 26.2906 12.4651 26.2328 12.5403C25.7168 13.1163 26.1248 13.9203 26.6258 13.8873C26.7248 13.8873 26.7848 13.8873 26.8388 14.0043C26.8928 14.1213 26.7908 14.1693 26.7488 14.2143C26.6989 14.2604 26.6616 14.3185 26.6404 14.3831C26.6192 14.4477 26.6149 14.5165 26.6278 14.5832C26.6408 14.6499 26.6705 14.7122 26.7142 14.7642C26.758 14.8162 26.8143 14.8562 26.8778 14.8803C27.1178 14.9943 27.1778 15.0093 26.8208 15.2373C26.2958 15.5643 26.7698 16.3923 27.2528 16.1703C27.5678 16.0233 27.5828 15.8253 27.6788 15.7443C27.694 15.7282 27.7135 15.7168 27.735 15.7114C27.7565 15.706 27.7791 15.7068 27.8002 15.7137C27.8212 15.7206 27.8399 15.7333 27.854 15.7505C27.8681 15.7676 27.877 15.7883 27.8798 15.8103C27.8798 15.8103 27.8348 16.7673 28.4798 16.2333C29.3798 15.4773 28.5008 14.6943 28.7798 14.5053C28.9598 14.3823 29.1398 14.8443 29.4518 14.9073C29.6123 14.9406 29.7796 14.9146 29.9224 14.8341C30.0653 14.7536 30.1741 14.624 30.2288 14.4693C30.2888 14.2983 30.3398 14.2083 30.4748 14.3313C30.9518 14.7723 31.0328 14.1303 31.2578 14.2833C31.3508 14.3463 31.3208 14.4663 31.2578 14.5593C31.2271 14.6266 31.2106 14.6994 31.2092 14.7733C31.2078 14.8471 31.2216 14.9205 31.2497 14.9889C31.2779 15.0572 31.3197 15.119 31.3727 15.1705C31.4257 15.2221 31.4887 15.2621 31.5578 15.2883C32.3498 15.5313 32.0408 14.7453 32.2568 14.6883C32.3918 14.6583 32.3948 14.9223 32.5568 14.9643C32.6314 14.9928 32.7124 15.0002 32.791 14.9856C32.8695 14.9711 32.9425 14.9352 33.002 14.8819C33.0615 14.8286 33.1052 14.7599 33.1283 14.6835C33.1513 14.607 33.1529 14.5256 33.1328 14.4483C33.1088 14.2653 33.3218 14.3163 33.4328 14.4303C33.5354 14.5376 33.6724 14.6053 33.8199 14.6218C33.9674 14.6382 34.116 14.6023 34.2398 14.5203C34.5218 14.2983 34.4288 14.6763 34.5968 14.7483C34.9928 14.9133 35.1248 14.7093 35.4458 14.7483C35.7668 14.7873 36.1148 15.2283 36.6248 14.6493C36.6998 14.5683 36.3248 14.3883 36.1988 14.3823C35.6394 14.3734 35.0825 14.3071 34.5368 14.1843C33.7418 13.9893 32.2478 12.9333 32.1368 12.9603C31.8041 13.0882 31.452 13.1582 31.0958 13.1673C30.4958 13.1463 30.8288 13.1673 30.1958 13.6953C30.1028 13.8036 29.9848 13.8876 29.852 13.9399C29.7192 13.9921 29.5756 14.0112 29.4338 13.9953C28.9868 13.9623 28.9388 13.6953 29.0438 13.5273C29.3858 13.0113 29.4788 13.0683 29.6618 12.7233C30.0758 11.9343 30.9968 11.9883 31.3448 11.6883C31.2428 11.5983 31.2338 11.5593 31.0958 11.5623C30.6728 11.5623 30.5468 11.5623 30.4298 11.7063C30.2471 11.9857 29.9877 12.2065 29.6828 12.3423C29.3528 12.4593 28.8518 12.2163 29.1098 11.8713C29.2734 11.7145 29.396 11.5197 29.4668 11.3043C29.5958 10.9383 30.1808 10.5093 30.5258 10.3293C30.6368 10.2663 30.7898 10.2633 30.8018 10.1253C30.8138 9.98733 30.9698 9.91233 31.0418 9.86133C31.4408 9.56133 31.6658 9.86133 31.7828 9.68133C31.9172 9.54086 32.0856 9.43752 32.2718 9.38133C32.3677 9.34321 32.4704 9.32513 32.5736 9.32823C32.6768 9.33133 32.7783 9.35552 32.8718 9.39933C33.0878 9.48333 33.4718 9.65733 34.2608 9.96633C35.8328 10.5663 37.4198 12.1143 37.6448 11.9823C37.7884 11.9066 37.9485 11.8675 38.1109 11.8685C38.2733 11.8695 38.4329 11.9106 38.5756 11.988C38.7183 12.0654 38.8398 12.1769 38.9291 12.3125C39.0184 12.4481 39.0729 12.6036 39.0878 12.7653C39.1028 12.8823 39.1808 12.8403 39.2828 12.9003ZM38.8688 20.9823C39.2258 20.5953 39.3458 19.8933 39.3128 19.3503C39.3128 19.1373 39.3548 18.6123 38.9588 18.2913C38.8414 18.2211 38.7052 18.1888 38.5687 18.199C38.4323 18.2092 38.3024 18.2614 38.1968 18.3483C38.069 18.4711 37.9678 18.619 37.8997 18.7826C37.8316 18.9462 37.7979 19.1221 37.8008 19.2993C37.8008 19.4313 37.6268 19.5663 37.5728 19.4313C37.5188 19.2963 37.5398 19.2363 37.5968 18.8313C37.6178 18.6843 37.5458 18.7773 37.1738 18.9063C36.4478 19.1613 37.4378 20.5293 35.2538 20.8653C34.7774 20.9081 34.2972 20.8737 33.8318 20.7633C32.7308 20.4903 33.0248 19.0983 32.6018 18.9873C32.3018 18.9033 31.9688 19.0863 32.0198 19.2693C32.0937 19.4436 32.1182 19.6349 32.0907 19.8222C32.0632 20.0095 31.9847 20.1857 31.8638 20.3313C31.5008 20.7003 31.2248 20.9793 31.5008 21.3903C31.5881 21.5125 31.7073 21.6085 31.8453 21.6677C31.9834 21.7269 32.135 21.7472 32.2838 21.7263C32.9048 21.7263 32.9138 21.2253 33.1838 21.4563C33.4538 21.6873 33.9158 21.5523 33.7238 21.1833C33.6488 21.0393 33.5708 21.0093 33.6488 20.9073C33.8258 20.6523 34.3508 21.3333 33.9338 21.7233C33.6068 22.0233 33.2918 21.8673 33.0338 21.7653C32.3228 22.4343 30.9608 21.9933 31.0748 21.0273C31.0958 20.8473 30.3908 21.4083 29.4338 21.1713C29.2718 21.1323 29.2568 21.1443 29.2568 21.3033C29.3055 22.0283 29.4812 22.7391 29.7758 23.4033C30.1508 24.1293 30.9758 24.7833 31.1948 25.1553C31.2908 25.3323 31.3808 25.0683 31.7108 25.2273C31.7738 25.2573 31.8368 25.3053 31.8698 25.2603C31.9028 25.2153 31.9418 25.1043 32.1158 25.0443C32.1911 25.0183 32.272 25.0123 32.3504 25.0271C32.4288 25.0418 32.502 25.0767 32.5628 25.1283C32.6288 25.1733 32.6558 25.1493 32.7398 25.0593C32.7932 24.989 32.8645 24.9343 32.9464 24.9011C33.0282 24.8678 33.1174 24.8572 33.2048 24.8703C33.3608 24.8973 33.4328 25.0413 33.5048 25.1433C33.5288 25.1853 33.5378 25.2633 33.6128 25.1433C33.6646 25.0463 33.7399 24.9638 33.8318 24.9033C33.8838 24.8782 33.9403 24.8636 33.998 24.8605C34.0556 24.8574 34.1134 24.8659 34.1678 24.8853C34.3808 24.9723 34.3688 25.1853 34.4078 25.2843C34.4078 25.3173 34.4798 25.2513 34.6148 25.2843C35.0498 25.3893 34.6148 25.6893 35.7518 25.0533C38.1938 23.6763 37.2128 20.7693 38.0618 21.1143C38.1923 21.1832 38.3418 21.2075 38.4874 21.1837C38.6331 21.1599 38.7669 21.0892 38.8688 20.9823ZM38.4578 17.6013C38.5734 17.0154 38.5926 16.4145 38.5148 15.8223C38.4818 15.6243 38.4038 15.5673 38.2628 15.6333C38.2247 15.6548 38.1798 15.6608 38.1374 15.6502C38.095 15.6396 38.0583 15.6132 38.0348 15.5763C37.9928 15.4953 38.0348 15.4653 38.0018 15.3993C37.9688 15.3333 37.8158 15.2673 37.7738 15.2733C37.6808 15.2883 37.3658 15.5733 36.8168 15.0693C36.6278 14.9013 36.6548 15.2613 36.0368 15.2553C35.7128 15.2553 35.4938 14.9763 35.2508 15.0813C35.0897 15.1295 34.92 15.1419 34.7536 15.1175C34.5873 15.0932 34.4283 15.0327 34.2878 14.9403C34.1258 14.8473 33.9368 15.0933 33.5198 14.8533C33.3638 14.7663 33.4328 14.8533 33.3278 14.9853C33.2337 15.1056 33.1071 15.1964 32.963 15.247C32.8189 15.2975 32.6633 15.3056 32.5148 15.2703C32.4008 15.2493 32.4068 15.2493 32.3378 15.3483C31.9178 15.9693 30.8768 15.5223 30.9548 14.8323C30.9728 14.6673 30.8408 14.8833 30.5438 14.7303C30.4628 14.6883 30.4328 14.7093 30.3938 14.7783C30.2949 14.9451 30.1449 15.0754 29.9659 15.15C29.787 15.2246 29.5888 15.2395 29.4008 15.1923C28.8008 15.0303 29.6468 15.2883 28.7408 16.4193C28.7108 16.4553 28.5878 16.4433 28.6388 16.6623C29.1158 18.6783 28.9388 18.2103 29.8088 18.0723C31.9088 17.7393 31.6958 18.8673 31.9088 18.7293C32.4788 18.3483 32.7518 18.7743 32.8478 18.5103C33.2858 17.3103 36.4868 17.3313 36.7868 18.3873C36.8198 18.5103 36.7868 18.4503 37.5818 18.3063C37.9898 18.2313 37.9058 18.1653 38.0948 18.0423C38.1758 17.9883 38.1758 17.9883 38.1128 17.9103C38.0765 17.8724 38.0562 17.8219 38.0562 17.7693C38.0562 17.7168 38.0765 17.6663 38.1128 17.6283C38.3078 17.4633 38.4008 17.8593 38.4578 17.6013ZM38.2598 13.6683C38.9168 13.4043 39.0308 12.4143 38.3558 12.1953C38.2231 12.1616 38.0844 12.1585 37.9504 12.1864C37.8164 12.2143 37.6905 12.2724 37.5823 12.3563C37.4741 12.4402 37.3864 12.5477 37.3261 12.6705C37.2657 12.7934 37.2341 12.9284 37.2338 13.0653C37.2158 12.8223 37.1828 14.1003 38.2598 13.6683ZM37.6898 14.1243C37.7648 13.9863 37.4858 14.0523 37.2668 13.8243C37.1588 13.7043 36.7478 14.6793 36.9668 14.8563C37.5548 15.3003 37.2458 14.9433 37.6898 14.1243ZM37.4078 47.8263C37.4093 47.7174 37.3982 47.6087 37.3748 47.5023C37.3748 47.4783 37.2788 47.5203 37.2128 47.5653C36.9698 47.7273 36.2138 48.2163 34.3808 49.5063C30.8588 51.9933 31.2218 51.4233 31.3568 51.9573C31.3568 52.0053 37.0118 48.1293 37.2548 47.9703C37.3208 47.9283 37.4048 47.8773 37.4078 47.8263ZM37.2818 12.2643C37.3718 12.1623 37.4768 12.2823 35.3378 10.7883C34.956 10.5312 34.5399 10.3292 34.1018 10.1883C33.3908 9.91833 33.1718 9.70233 32.7218 9.58833C32.5903 9.5602 32.4538 9.5655 32.3249 9.60377C32.1959 9.64203 32.0786 9.71202 31.9838 9.80733C32.5448 10.0893 32.8208 10.0473 33.0518 10.2123C33.2108 10.3233 33.0938 10.4733 32.9318 10.4133C32.5598 10.2723 32.3318 10.2303 32.0138 10.1133C31.8634 10.0443 31.7037 9.99783 31.5398 9.97533C31.4298 9.95219 31.3152 9.9681 31.2158 10.0203C31.0838 10.0923 30.9848 10.1913 31.0628 10.2123C31.3474 10.2927 31.6261 10.3929 31.8968 10.5123C32.7248 10.8633 32.3588 11.0013 32.0618 10.8843C31.0748 10.4973 31.0808 10.4553 30.9368 10.4943C30.7644 10.5197 30.599 10.5799 30.4508 10.6713C29.4548 11.4363 30.0068 11.0613 29.3468 11.9643C29.2628 12.0783 29.5328 12.1413 29.6888 12.0273C30.4838 11.4543 30.1958 11.2653 30.8888 11.2653C31.6328 11.2083 31.7678 11.6583 31.5218 11.8833C31.0958 12.2733 30.9038 11.9913 30.2258 12.4473C29.8118 12.7233 29.9948 12.7773 29.5178 13.2753C29.4359 13.3663 29.3588 13.4614 29.2868 13.5603C29.2298 13.6383 29.2268 13.7253 29.4068 13.7493C29.8418 13.8063 30.0068 13.5483 30.4058 13.0833C30.7058 12.7503 31.0238 12.9813 31.6568 12.7833C32.2898 12.5853 32.1038 12.6123 33.7568 13.5423C34.6358 14.0343 35.0798 13.9893 36.1748 14.0883C36.6728 14.1333 36.6398 14.3463 36.7178 14.1813C36.9818 13.6233 37.0628 13.5633 36.9818 13.4043C36.9295 13.2046 36.9296 12.9947 36.9821 12.795C37.0347 12.5952 37.1379 12.4125 37.2818 12.2643ZM35.2268 27.1203C35.5988 26.9133 37.0028 25.5423 36.9158 25.3653C36.8605 25.1815 36.8503 24.987 36.8858 24.7983C36.8858 24.5373 36.9758 24.4983 36.6038 24.8403C35.8208 25.5633 34.9328 25.6563 34.9448 25.9293C34.9448 25.9833 34.9058 26.3853 34.5578 26.4303C34.5212 26.4283 34.4852 26.4396 34.4565 26.4623C34.4278 26.485 34.4083 26.5173 34.4018 26.5533C34.3759 26.6647 34.3091 26.7623 34.2146 26.8268C34.1202 26.8912 34.0049 26.9178 33.8918 26.9013C33.5918 26.8473 33.5918 26.7183 33.4658 26.8413C33.4039 26.9076 33.3278 26.9591 33.2432 26.9917C33.1586 27.0244 33.0677 27.0375 32.9774 27.03C32.887 27.0225 32.7995 26.9946 32.7214 26.9484C32.6434 26.9022 32.5768 26.8389 32.5268 26.7633C32.4218 26.6163 32.3528 26.9043 32.0108 26.8683C31.4108 26.8473 31.6208 26.2683 31.4408 26.2683C31.3125 26.2547 31.1948 26.1909 31.1133 26.0909C31.0318 25.9909 30.9932 25.8627 31.0058 25.7343C31.0208 25.5783 31.0838 25.4883 31.0448 25.3983C30.9656 25.2417 30.8517 25.1052 30.7118 24.9993C30.7118 25.0593 30.6578 26.5593 30.6578 26.6223C30.6578 27.3963 30.2558 27.3393 31.7678 27.5583C32.7008 27.6903 32.6228 28.2003 32.4008 29.1003C32.1008 30.3363 32.3228 30.3633 32.9078 30.9513C33.0398 31.0833 33.0128 30.1653 33.1568 29.6883C33.5198 28.5153 33.3878 27.9783 34.7558 27.2883C34.8668 27.2313 35.1158 27.1863 35.2268 27.1203ZM36.4268 19.8603C36.5353 19.6158 36.5851 19.3492 36.5721 19.0819C36.559 18.8147 36.4836 18.5542 36.3518 18.3213C36.0518 17.8863 34.8878 17.8593 34.0988 18.0213C33.2228 18.1923 32.6738 18.5463 33.3968 20.0883C33.7208 20.7813 36.0728 20.8113 36.4208 19.8603H36.4268ZM34.6838 25.9173C34.7438 25.7343 34.7108 25.4853 34.3538 25.5273C34.2128 25.5453 34.2128 25.4883 34.1948 25.3293C34.1678 25.0293 33.9608 25.0113 33.7808 25.2993C33.6818 25.4553 33.6788 25.5213 33.5648 25.5093C33.4508 25.4973 33.4388 25.3233 33.2918 25.1703C33.1448 25.0173 32.9228 25.1433 32.8688 25.3413C32.8591 25.4262 32.8315 25.508 32.7878 25.5813C32.7548 25.6293 32.6918 25.6173 32.6528 25.5513C32.5936 25.4487 32.5102 25.3622 32.4098 25.2993C32.3396 25.2645 32.2585 25.2584 32.184 25.2825C32.1094 25.3066 32.0472 25.359 32.0108 25.4283C31.8128 25.7283 31.6088 25.3953 31.4588 25.4583C31.4005 25.4788 31.3517 25.5196 31.3213 25.5733C31.2909 25.6271 31.281 25.69 31.2935 25.7504C31.3059 25.8108 31.3399 25.8647 31.389 25.902C31.4382 25.9393 31.4992 25.9576 31.5608 25.9533C31.8338 25.9893 31.7528 26.0883 31.7978 26.3523C31.8578 26.6763 32.2748 26.5953 32.3648 26.3883C32.4278 26.2473 32.5928 26.2293 32.6468 26.4033C32.7278 26.6613 32.8598 26.7843 33.1028 26.7033C33.4028 26.5953 33.2798 26.2833 33.4688 26.2773C33.5012 26.275 33.5335 26.2827 33.5613 26.2994C33.5892 26.316 33.6114 26.3408 33.6248 26.3703C33.7598 26.6523 33.9248 26.6463 34.0418 26.5743C34.2518 26.4243 34.1078 26.2173 34.1378 26.1063C34.1678 25.9953 34.2488 26.0583 34.3448 26.1063C34.3786 26.1231 34.4161 26.1314 34.4539 26.1303C34.4917 26.1293 34.5286 26.119 34.5615 26.1003C34.5944 26.0817 34.6222 26.0552 34.6424 26.0233C34.6627 25.9914 34.6748 25.955 34.6778 25.9173H34.6838ZM34.1408 48.0003C34.8038 48.0573 34.7768 48.1743 34.4408 48.3753C34.2008 48.5223 31.9808 50.1123 31.7228 50.3163C31.3568 50.6163 31.3598 50.5533 30.9518 50.5683C30.8558 50.5683 30.8948 50.5683 31.1198 51.2793C31.1198 51.3273 36.7358 47.5743 36.8678 47.4543C36.1028 47.3523 31.4678 47.2623 30.4838 47.2293C29.7668 47.2053 29.7128 47.1783 29.7548 47.2893C29.8958 47.6793 29.8568 47.8083 30.2258 47.8083C30.8168 47.8023 33.9308 47.9763 34.1408 48.0003ZM31.5008 46.9953C33.6248 47.0643 33.3278 47.2593 33.3008 46.3293C33.1688 42.4893 33.7178 43.8423 33.0578 41.4513C32.6138 39.8463 33.2648 39.6183 32.8568 34.8843C32.6168 32.0883 33.0308 31.4283 32.5148 31.0473C31.7168 30.4473 31.9148 29.1393 31.7438 28.6713C30.9548 29.0373 31.2158 31.0713 30.8438 31.5453C30.4718 32.0193 30.3128 31.0833 29.7638 30.6153C29.441 30.3196 29.2399 29.9143 29.1998 29.4783C29.0258 28.5783 28.4108 28.7223 28.1258 28.2213C28.0688 28.1193 28.0328 28.2213 27.7118 28.3593C23.9228 29.8773 24.6488 30.6153 22.7348 31.3203C22.3838 31.4523 22.4168 31.8723 21.8828 32.0523C21.5498 32.1633 21.3098 32.3343 20.9828 32.8953C20.6558 33.4563 20.6828 33.4713 20.8028 33.4773C21.1268 33.4983 21.2078 33.7773 21.2978 33.9843C21.3308 34.0593 21.4748 34.0893 21.4838 33.9483C21.5618 32.8803 22.4528 32.2083 23.4488 33.3063C24.0128 33.9273 23.7968 34.2543 23.8928 34.8933C24.0128 35.6613 23.2628 36.8403 22.5458 36.8553C21.4358 36.8793 21.4538 36.6993 21.3968 36.8553C21.3968 36.8553 21.1748 37.4553 21.1628 37.4853C20.994 37.7581 20.738 37.9659 20.4363 38.0748C20.1345 38.1837 19.8049 38.1874 19.5008 38.0853C19.1468 37.9233 18.9998 38.2953 18.6638 38.7873C18.6458 38.8173 18.6188 38.8383 18.6968 38.8413C21.0278 38.9133 23.1968 39.0903 24.2498 39.0933C24.4748 39.0933 24.1808 38.4933 24.3668 37.0893C24.4569 36.4938 24.492 35.8913 24.4718 35.2893C24.4718 35.0133 24.6698 35.1063 24.6848 35.2023C24.9128 36.5613 24.4898 36.8493 24.6848 39.0243C24.7058 39.2463 25.5218 39.0933 26.5178 39.4503C27.6338 39.8493 27.6668 41.0733 29.6618 46.7793C29.7008 46.9653 29.5898 46.9293 31.5008 46.9953ZM33.0008 51.4953C33.0668 51.0903 33.0938 51.2733 32.2538 51.8103C31.5668 52.2483 31.3958 52.4673 31.1258 52.5243C31.0598 52.5243 28.0688 52.5093 27.9638 52.5243C27.8588 52.5393 27.8228 52.5573 27.8198 52.6233C27.8198 52.8153 27.5828 52.8873 27.4568 53.0013C27.0968 53.3283 26.4728 53.3463 25.7498 53.6013C24.7958 53.9433 24.5738 53.6013 24.4178 53.7933C24.1178 54.1833 23.9318 54.1773 23.5538 56.4423C23.2088 58.5063 22.8008 59.4423 23.0498 59.4903C25.2908 60.0153 25.0358 59.7903 25.7228 59.9283C27.4418 60.2823 27.2978 60.6273 29.1758 60.6273C30.2184 60.5807 31.2628 60.6593 32.2868 60.8613C32.4278 60.8849 32.5723 60.8767 32.7098 60.8373C32.7758 60.8223 32.7938 60.7773 32.7968 60.7053C32.8508 59.9703 32.9828 59.5053 32.8868 59.0073C32.8224 58.456 32.8467 57.8979 32.9588 57.3543C33.3008 54.8103 32.7908 52.8393 33.0008 51.4983V51.4953ZM31.3748 50.2053C31.4948 50.1333 33.9368 48.4053 34.0958 48.2133C33.7388 48.1503 31.5878 48.1023 30.3008 48.0393C30.0008 48.0393 30.0008 48.0093 30.2138 48.7173C30.3456 49.217 30.5141 49.7063 30.7178 50.1813C30.7988 50.3283 31.1828 50.3253 31.3838 50.2083L31.3748 50.2053ZM32.1278 28.7613C32.1999 28.5837 32.2217 28.3896 32.1908 28.2003C32.1308 27.9423 31.7378 27.9393 30.9248 27.7923C30.2288 27.6663 30.3488 27.3303 29.9678 27.0963C29.76 26.9944 29.5941 26.8235 29.4984 26.6129C29.4026 26.4022 29.383 26.1649 29.4428 25.9413C29.2854 26.0682 29.1425 26.212 29.0168 26.3703C28.4168 27.1143 28.6838 27.2493 28.3358 27.7623C28.2788 27.8493 28.4858 28.1523 28.6658 28.2453C29.0179 28.3978 29.2952 28.6837 29.4368 29.0403C29.9168 30.6963 29.6228 29.6223 30.5828 31.0773C30.6608 31.1943 30.6128 31.0773 30.8648 29.5983C31.0388 28.5663 31.9388 27.7323 32.1368 28.7643L32.1278 28.7613ZM31.6328 19.8993C31.8998 18.2703 30.7778 18.0303 29.2148 18.5163C29.4059 18.9785 29.455 19.4871 29.3558 19.9773C29.3198 20.2143 29.3558 20.4633 29.2868 20.7033C29.1788 21.1713 31.4648 20.9733 31.6418 19.9023L31.6328 19.8993ZM30.8498 52.1133C31.0178 52.1133 31.0178 52.1373 30.7358 51.3333C26.2358 38.5023 28.2218 39.8043 23.1638 39.3933C21.3788 39.2493 13.3868 39.0303 11.6348 39.3603C10.6208 39.5523 10.2338 39.8943 10.7708 41.2803C11.9708 44.3373 12.9218 47.3463 13.3328 48.4263C13.5098 48.9003 13.9028 49.8123 13.9598 49.9863C14.4008 51.3003 14.5118 51.3543 14.7008 51.3783C15.2558 51.4503 17.4758 51.6453 17.4818 51.6483C20.4008 51.7923 19.2248 52.0983 19.7018 50.5563C20.0618 49.3953 19.9598 49.2753 20.2418 48.9453C21.3608 47.6463 20.7758 48.4563 21.5648 47.4033C22.1348 46.6413 23.0648 47.3193 21.9428 48.8103C21.6188 49.2333 21.2948 49.6533 21.7508 49.9263C22.7378 50.5263 23.5928 49.8063 24.1058 49.5393C24.7598 49.2033 25.1558 49.1553 25.4108 48.7863C25.7196 48.4313 26.1251 48.1738 26.5778 48.0453C27.0518 47.9193 27.5198 48.2133 27.2258 48.6063C26.7461 49.1792 26.2236 49.7147 25.6628 50.2083C25.1018 50.7483 24.7448 50.8293 24.4628 51.1083C25.4288 51.6843 27.9878 49.5393 29.1038 50.2083C29.1596 50.2411 29.2055 50.2886 29.2365 50.3455C29.2675 50.4024 29.2824 50.4667 29.2796 50.5314C29.2769 50.5962 29.2565 50.659 29.2208 50.713C29.185 50.7671 29.1353 50.8104 29.0768 50.8383C28.7378 50.9913 28.6298 50.9583 28.6628 51.1383C28.6799 51.1991 28.68 51.2634 28.663 51.3243C28.6461 51.3851 28.6128 51.4401 28.5668 51.4833C28.4214 51.596 28.2669 51.6964 28.1048 51.7833C27.9464 51.8741 27.8028 51.9884 27.6788 52.1223L30.8498 52.1133ZM28.9838 20.6133C29.1638 20.2413 29.1098 18.5643 28.8038 18.6903C28.0118 19.0173 28.6928 20.4153 28.9928 20.6163L28.9838 20.6133ZM28.5638 50.7003C28.8638 50.5863 29.0288 50.5143 28.8248 50.3703C28.7039 50.3221 28.5725 50.3066 28.4438 50.3253C27.7538 50.3943 26.5718 51.1203 25.7858 51.3783C24.4928 51.8013 23.9318 51.2643 24.0668 50.9883C24.3008 50.5143 25.0328 50.4513 25.7918 49.5663C26.1698 49.1223 26.5028 48.9843 26.8988 48.4683C27.1208 48.1683 26.1578 48.4473 25.6628 49.0203C25.1198 49.6443 24.7328 49.4973 23.9078 50.0193C22.5938 50.8473 21.5768 50.3343 21.3128 49.9233C21.0488 49.5123 21.2828 49.1973 21.5618 48.8373C22.4288 47.7213 22.1618 47.1903 21.9098 47.4633C20.0078 49.5633 20.3708 49.3233 20.1548 50.2263C19.9388 51.1293 19.8128 51.3303 19.8938 51.8313C19.9928 52.4583 19.3838 53.4213 20.8238 54.0363C22.0238 54.5523 22.1828 53.5263 23.1878 53.3703C24.1238 53.2203 24.7238 53.6913 26.4668 53.0943C26.7357 53.0207 27.0002 52.9316 27.2588 52.8273C27.5588 52.6803 27.6548 52.5123 27.4628 52.5273C26.4248 52.5603 26.8808 52.8273 25.5878 53.0553C25.2068 53.1243 25.1738 53.1003 25.1678 53.0283C25.1618 52.9563 25.1678 52.9113 25.2248 52.8903C25.3919 52.8368 25.5623 52.7937 25.7348 52.7613C27.0188 52.5273 27.2588 51.9483 28.0298 51.5433C28.2128 51.4503 28.3718 51.3993 28.4198 51.2643C28.4438 51.1983 28.4198 51.1593 28.3448 51.1593C28.0448 51.1593 25.4018 52.8573 25.1978 52.4493C25.1408 52.3383 25.1978 52.3083 25.4708 52.1913C26.7728 51.6003 27.0428 51.2823 28.5638 50.7003ZM24.0008 53.7453C24.1448 53.5863 23.0258 53.6283 22.8518 53.8023C22.5218 54.1383 21.9518 54.5313 21.5528 54.5523C20.9865 54.5735 20.4275 54.4206 19.9508 54.1143C19.7393 53.9725 19.5387 53.8151 19.3508 53.6433C18.9128 53.1213 18.7328 52.9263 18.7508 52.6473C18.8048 51.9153 19.0778 52.2123 17.3588 51.9993C17.1608 51.9753 17.2598 51.9993 17.4128 52.6263C17.4848 52.9263 17.6588 53.0703 18.0668 53.5773C18.4058 53.9973 18.6308 53.9433 19.1978 54.5343C19.8428 55.1823 22.1408 55.8573 24.0008 53.7453ZM23.3588 35.7453C23.6918 35.1993 23.5478 35.0583 23.5208 34.2453C23.4968 33.5583 22.3208 32.5383 21.9008 33.4503C21.6218 34.0503 21.9218 34.2723 21.5078 34.3503C21.0938 34.4283 21.0458 34.2603 20.8808 33.9003C20.8088 33.7353 20.6408 33.8073 20.3948 33.9003C19.9148 34.0863 19.9958 33.6993 19.6088 33.8403C18.6488 34.1853 19.2248 35.1153 19.0688 35.4573C18.8018 36.0573 18.7118 35.8713 18.5258 36.1653C18.2455 36.5644 18.0833 37.0343 18.0578 37.5213C17.9618 37.9713 17.6738 38.7213 17.2118 38.6823C16.8038 38.6463 17.0078 38.3553 16.7918 38.0823C16.6832 37.9156 16.6308 37.7186 16.6421 37.52C16.6534 37.3214 16.7279 37.1316 16.8548 36.9783C17.2508 36.5613 16.5548 35.9973 16.5128 35.7243C16.4875 35.5739 16.4965 35.4197 16.5391 35.2732C16.5817 35.1267 16.6568 34.9918 16.7588 34.8783C17.0205 34.7145 17.2561 34.5122 17.4578 34.2783C17.5508 34.1763 17.5118 34.1223 17.4128 34.0173C17.349 33.9557 17.3007 33.8797 17.2719 33.7958C17.2432 33.7118 17.2347 33.6222 17.2473 33.5344C17.2599 33.4465 17.2932 33.3629 17.3444 33.2904C17.3955 33.2179 17.4632 33.1586 17.5418 33.1173C17.6752 33.0466 17.7887 32.9434 17.8718 32.8173C18.2108 32.3343 18.0338 32.6703 18.6518 31.9803C18.7928 31.8213 18.6038 31.9053 18.7028 31.2633C18.8768 30.1323 20.1278 30.4263 20.6348 29.6433C21.0428 29.0163 21.1298 28.8603 21.0938 28.5603C21.0926 28.3752 21.0496 28.1927 20.968 28.0265C20.8865 27.8602 20.7685 27.7146 20.6228 27.6003C20.2898 27.3213 20.3588 26.8443 20.6228 26.7483C20.8058 26.6823 21.1268 26.4483 21.3638 26.3283C21.7568 26.1453 22.1948 25.8783 22.1948 25.4643C22.1948 25.2123 22.0598 24.7293 21.7658 24.7683C21.6098 24.7863 21.3188 24.8253 21.1658 24.8253C20.8058 24.8253 20.3948 24.6183 20.4458 24.2553C20.5478 23.5353 21.0458 23.6553 20.8868 23.1753C20.8115 22.9578 20.8031 22.7227 20.8628 22.5003C20.878 22.4217 20.9215 22.3514 20.9851 22.3028C21.0487 22.2541 21.1279 22.2305 21.2078 22.2363C21.6422 22.3068 22.0874 22.2644 22.5008 22.1133C23.1368 21.8133 23.7998 21.3003 23.3558 20.3523C23.1338 19.8813 23.8928 19.1313 23.3138 18.6123C22.1588 17.5773 22.4558 18.8253 21.3848 18.3513C21.0668 18.2103 21.2588 17.8623 21.1358 17.4033C21.123 17.3469 21.0963 17.2946 21.058 17.2513C21.0198 17.2079 20.9712 17.1748 20.9169 17.1551C20.8625 17.1354 20.8041 17.1297 20.7469 17.1384C20.6897 17.1472 20.6357 17.1702 20.5898 17.2053C20.4129 17.2896 20.2442 17.39 20.0858 17.5053C19.7168 18.0663 19.8698 18.0243 19.8218 18.1953C19.8237 18.215 19.8218 18.2349 19.8161 18.2539C19.8104 18.2728 19.801 18.2905 19.7884 18.3058C19.7759 18.3211 19.7605 18.3338 19.743 18.3432C19.7256 18.3525 19.7065 18.3584 19.6868 18.3603C19.6671 18.3623 19.6472 18.3604 19.6282 18.3547C19.6093 18.3489 19.5916 18.3395 19.5763 18.327C19.561 18.3145 19.5483 18.299 19.5389 18.2816C19.5296 18.2641 19.5237 18.245 19.5218 18.2253C19.2368 17.4723 18.9218 17.4573 18.4028 17.6253C18.1731 17.725 17.9849 17.901 17.8701 18.1235C17.7553 18.346 17.7209 18.6014 17.7728 18.8463C17.9438 19.8963 18.4958 19.9863 18.2078 21.1173C18.0998 21.5433 17.3408 20.8923 17.3078 21.6723C17.2448 23.3403 18.3668 23.2953 17.8898 24.3093C17.3768 25.4013 18.4178 25.6863 18.1388 26.2803C16.9808 28.7403 18.0458 28.5813 18.5348 29.4213C18.5826 29.5263 18.6082 29.64 18.6099 29.7554C18.6115 29.8707 18.5892 29.9852 18.5444 30.0915C18.4996 30.1978 18.4332 30.2936 18.3494 30.3729C18.2657 30.4523 18.1663 30.5133 18.0578 30.5523C17.2868 30.9003 17.9798 31.8693 17.4008 31.9113C17.1578 31.9293 16.2008 31.3533 16.2668 33.2823C16.2818 33.6363 16.1198 33.5823 16.0838 33.5223C15.9575 33.1348 15.8927 32.7299 15.8918 32.3223C15.8918 31.7043 15.9128 31.6083 15.5918 31.1493C15.4298 30.9213 15.2558 30.8493 14.7578 30.6933C14.2598 30.5373 14.1938 29.7753 14.4398 29.3583C14.5088 29.2383 14.6528 28.8303 14.5808 28.7193C14.3258 28.3203 14.2598 28.3833 14.0318 28.3863C13.8038 28.3893 13.7318 28.1913 13.7108 27.9063C13.6928 27.3063 13.3328 27.0063 12.9308 27.0243C12.8438 27.0243 12.7808 27.0603 12.4358 27.3243C11.7008 27.9003 11.4008 27.0513 11.5118 26.8113C11.7248 26.3013 11.7668 26.3163 11.7818 26.1123C11.8148 25.6083 11.8628 25.4493 12.1148 25.4403C12.3619 25.4606 12.6106 25.4321 12.8468 25.3563C13.2368 25.1133 13.5728 24.7713 13.5188 24.3123C13.4558 23.7843 13.9088 24.3123 14.3798 23.7363C14.6665 23.3409 14.9014 22.9104 15.0788 22.4553C15.3188 21.9693 14.2328 21.5793 13.9538 21.5853C13.1228 21.6063 13.7498 20.2893 13.3838 19.9173C13.0178 19.5453 12.3638 19.4013 11.9558 19.7583C11.8568 19.8453 11.5268 20.0583 11.4878 20.2713C11.4008 20.7063 11.5028 20.6643 11.5148 21.0723C11.5207 21.1066 11.516 21.1418 11.5013 21.1734C11.4867 21.2049 11.4628 21.2312 11.4328 21.2488C11.4028 21.2664 11.3682 21.2744 11.3335 21.2719C11.2989 21.2693 11.2658 21.2562 11.2388 21.2343C11.1934 21.1988 11.1374 21.1795 11.0798 21.1795C11.0221 21.1795 10.9662 21.1988 10.9208 21.2343C10.8788 21.2643 10.5128 21.3693 10.4978 21.6903C10.4978 21.8493 10.3328 21.8763 10.0598 21.8763C9.66077 21.8763 9.71177 21.5283 9.68777 20.9763C9.68777 20.5683 10.1768 20.0763 10.4318 19.9503C11.1848 19.5393 10.2188 18.1983 10.8488 17.9463C11.2148 17.7993 11.3498 17.4843 11.5118 17.1033C11.5628 16.9803 11.5418 16.8633 11.5118 16.4823C11.4818 16.1013 11.2118 15.9603 11.0498 16.0713C10.3238 16.5663 10.7168 15.9843 10.2098 15.6693C9.82877 15.4293 9.33377 15.1533 9.00977 15.2553C8.31977 15.4773 8.32877 15.4593 8.28377 15.5373C7.82777 16.3293 8.67977 16.6803 8.22977 16.9293C7.97936 17.0987 7.70261 17.2254 7.41077 17.3043C7.05977 17.3463 6.96677 17.2083 6.90077 17.3763C6.71177 17.8473 6.63677 17.5863 6.63977 18.4263C6.63977 18.6903 7.23977 18.9933 7.41077 19.1463C7.43826 19.1673 7.45935 19.1956 7.47167 19.2279C7.48399 19.2602 7.48705 19.2954 7.48051 19.3293C7.47396 19.3633 7.45807 19.3948 7.43462 19.4202C7.41117 19.4457 7.38109 19.464 7.34777 19.4733C7.07777 19.5363 7.08677 19.6683 7.08677 19.8183C7.08677 20.0283 7.50077 19.9203 7.24577 20.3133C7.15277 20.4543 7.08677 20.2923 6.62477 20.3133C5.84777 20.3433 5.72477 20.3133 5.45177 20.5323C4.68977 21.1563 4.55177 21.2433 4.49177 21.5733C4.46477 21.7503 4.40477 21.8163 4.49177 22.0383C4.83377 22.8003 5.02877 23.0823 4.81577 23.5023C4.63577 23.8563 4.83377 24.3333 5.05277 24.6663C5.13677 24.7953 5.24777 24.8313 5.56577 24.8823C5.88377 24.9333 6.02777 24.5583 6.19277 24.3003C6.35777 24.0423 6.30977 23.9553 6.42977 23.4003C6.45377 23.2953 6.45677 23.2833 6.82877 23.0343C6.86941 23.0164 6.91352 23.0077 6.95791 23.0089C7.00231 23.0102 7.04589 23.0212 7.0855 23.0413C7.12511 23.0614 7.15976 23.09 7.18696 23.1251C7.21415 23.1602 7.23322 23.201 7.24277 23.2443C7.35977 23.5443 7.64777 23.4453 7.96877 23.1753C8.16377 23.0103 8.56877 23.0763 8.64677 23.5383C8.84177 24.5553 8.09777 24.5733 7.41077 24.9183C7.02677 25.1133 7.26377 25.4793 7.46777 25.8183C7.64777 26.1183 7.91477 25.9503 7.82777 26.2113C7.81698 26.2544 7.79489 26.2938 7.76377 26.3254C7.73265 26.3571 7.69363 26.3798 7.65077 26.3913C7.56652 26.4184 7.4782 26.4306 7.38977 26.4273C7.25798 26.4138 7.12484 26.4283 6.99902 26.4697C6.8732 26.5112 6.75753 26.5787 6.65957 26.6679C6.56162 26.757 6.48357 26.8659 6.43053 26.9873C6.37749 27.1087 6.35065 27.2399 6.35177 27.3723C6.35177 27.8193 6.82577 28.4343 7.25177 28.7013C7.59377 28.9203 7.57277 28.6383 8.18177 28.6533C8.50877 28.6533 8.44577 28.9743 8.46377 29.0553C8.48464 29.1206 8.51984 29.1803 8.5668 29.2301C8.61375 29.28 8.67126 29.3187 8.73513 29.3434C8.79899 29.3682 8.86757 29.3783 8.93586 29.3731C9.00415 29.3679 9.0704 29.3475 9.12977 29.3133C9.34877 29.1033 9.29777 29.0583 9.38777 28.8813C9.75677 28.1883 10.7588 28.5663 10.3628 29.1513C10.2908 29.2563 9.86477 30.0033 9.97877 30.2793C10.0928 30.5553 10.4078 31.0023 10.6418 30.7923C10.8758 30.5823 10.9598 30.7923 11.1188 30.5073C11.1716 30.409 11.2519 30.3282 11.35 30.2749C11.448 30.2216 11.5595 30.1981 11.6708 30.2073C11.8058 30.2073 11.8688 30.3093 11.9708 30.3723C12.0728 30.4353 12.0368 30.6723 12.1538 30.7953C12.6458 31.2573 13.0538 31.0203 13.4888 30.9873C13.9238 30.9543 13.6118 31.5873 14.0888 31.8633C14.1291 31.89 14.1623 31.926 14.1857 31.9683C14.2091 32.0106 14.2219 32.0579 14.2231 32.1062C14.2243 32.1545 14.2138 32.2024 14.1925 32.2458C14.1712 32.2891 14.1397 32.3267 14.1008 32.3553C13.8938 32.5083 13.6688 32.9163 13.8368 33.1773C14.1008 33.5853 14.8568 33.7203 15.0368 33.7263C15.2738 33.7263 15.3758 34.0263 15.4238 34.2723C15.5018 34.6563 15.2858 34.5933 15.1538 34.9233C15.1351 34.9844 15.1376 35.05 15.1611 35.1094C15.1845 35.1688 15.2274 35.2185 15.2828 35.2503C15.5303 35.3828 15.7543 35.5551 15.9458 35.7603C16.6298 36.4113 15.9128 36.9273 16.1678 37.4253C16.3538 37.7883 15.5678 38.1243 15.1628 37.0293C14.9798 36.5193 14.9918 36.4113 14.8628 36.3243C14.6807 36.1559 14.4446 36.0581 14.1968 36.0483C14.0862 36.0557 13.9764 36.0253 13.8854 35.962C13.7943 35.8988 13.7275 35.8065 13.6958 35.7003C13.6274 35.4723 13.6191 35.2305 13.6718 34.9983C13.6718 34.4943 13.0448 34.8183 12.3278 34.2273C12.0758 34.0203 12.2168 33.8223 12.2318 33.5703C12.2468 33.3183 12.2318 33.3363 11.9708 32.6133C11.9126 32.4995 11.8234 32.4045 11.7135 32.3392C11.6036 32.274 11.4775 32.2411 11.3498 32.2443C10.3478 32.5653 10.5308 32.7153 10.7078 33.4443C10.7648 33.6903 10.5128 33.9483 10.2608 33.7023C10.1182 33.5133 9.93984 33.3543 9.73577 33.2343C8.90777 32.8233 8.83577 34.5783 9.38177 34.8783C10.2338 35.3433 9.40877 35.7783 10.0868 36.2403C10.4438 36.4803 10.7678 36.2673 11.0588 35.9553C11.3498 35.6433 11.9588 35.5893 12.0308 35.8593C12.1898 36.4773 12.1118 36.5103 12.2888 36.6663C12.4658 36.8223 12.5888 36.7803 12.6908 36.8133C12.9278 36.9063 13.0538 36.7173 13.2728 36.6513C13.9478 36.4503 13.4858 37.6233 14.0978 37.8933C14.4458 38.0493 14.5688 37.7673 14.7968 37.7643C15.3728 37.7643 15.1718 38.1093 15.6968 38.2773C16.2968 38.4693 16.2488 38.8113 16.4138 38.8203C16.5278 38.8203 18.0638 38.8833 18.1508 38.8203C19.0928 37.9863 18.5138 37.5993 19.8608 37.8393C20.1021 37.8625 20.344 37.8009 20.5449 37.6651C20.7458 37.5294 20.8932 37.3279 20.9618 37.0953C21.1748 35.9553 22.0238 36.7803 22.6568 36.4953C22.9746 36.3315 23.2266 36.0636 23.3708 35.7363L23.3588 35.7453ZM19.5458 52.3503C19.5458 52.1583 19.5458 52.1583 19.3898 52.1373C19.2338 52.1163 19.2548 52.1373 19.2158 52.2453C19.138 52.4192 19.1255 52.6154 19.1806 52.7978C19.2357 52.9802 19.3547 53.1366 19.5158 53.2383C19.4788 52.9426 19.4889 52.6429 19.5458 52.3503Z" fill="#000001"/>
<path d="M44.0006 32.4001C44.6786 32.8501 42.5606 33.6781 42.2486 27.5461C42.2186 26.9461 42.0986 26.6761 42.1196 26.5531C42.1586 26.3401 42.3236 26.4031 42.3716 26.4991C42.7136 27.1951 42.4946 31.3951 44.0006 32.4001Z" fill="#000001"/>
<path d="M42.0136 35.1005C42.0136 35.4755 41.9566 36.2135 41.7676 36.5105C41.5786 36.8075 41.6926 36.9455 41.6656 37.4105C41.6279 38.2655 41.6419 39.1221 41.7076 39.9755C41.7076 40.0475 42.0256 41.2925 40.9066 41.4755C40.8826 41.4755 39.1066 41.6075 38.8906 41.5715C37.3666 41.3375 37.3396 41.6615 36.5566 41.4485C36.471 41.4315 36.39 41.397 36.3185 41.3471C36.247 41.2972 36.1866 41.233 36.1412 41.1585C36.0958 41.0841 36.0663 41.001 36.0547 40.9146C36.0431 40.8282 36.0495 40.7403 36.0736 40.6565C36.1606 40.1795 36.1246 40.1105 36.0946 37.8395C36.0946 37.5695 35.9296 37.3625 36.0586 36.7205C36.0946 36.5495 35.8006 36.5345 35.7766 36.0155C35.6806 34.0445 36.0286 34.2965 37.4386 34.2515C42.1066 34.1315 41.9986 34.1525 42.0136 35.1005ZM41.5276 36.2675C41.6681 35.8312 41.7201 35.3712 41.6806 34.9145C41.6476 34.5095 41.5546 34.5065 39.0976 34.5725C35.8366 34.6595 36.0586 34.3925 36.1186 35.6135C36.1186 35.6135 35.9266 36.3275 36.4726 36.4565C36.8566 36.5465 37.3726 36.4145 38.1766 36.5405C38.9086 36.6605 38.8036 36.9485 38.9776 36.8225C39.2319 36.6397 39.5279 36.5231 39.8386 36.4835C40.7986 36.3005 41.3986 36.6455 41.5276 36.2765V36.2675ZM40.9696 41.1005C41.5696 40.9355 41.4256 40.2725 41.3866 39.6905C41.323 38.7105 41.323 37.7274 41.3866 36.7475C40.8658 36.7384 40.3451 36.7715 39.8296 36.8465C39.5769 36.8893 39.3382 36.9921 39.1336 37.1465C38.9326 37.2995 38.7256 37.2095 38.5336 37.0445C38.2336 36.7805 37.5466 36.7955 37.1476 36.8315C36.9481 36.8527 36.747 36.8527 36.5476 36.8315C36.3466 36.8045 36.3046 36.9065 36.3166 37.1585C36.3166 37.1885 36.5266 39.6665 36.3586 40.7585C36.2806 41.2505 36.9076 41.2175 37.3696 41.1965C37.87 41.1536 38.3738 41.1728 38.8696 41.2535C39.5733 41.2976 40.2797 41.2462 40.9696 41.1005Z" fill="#000001"/>
<path d="M39.8562 40.6498C39.8862 40.9048 39.6042 40.8928 39.5562 40.7068C39.5035 40.4099 39.4814 40.1083 39.4902 39.8068C39.4902 39.5398 39.4902 37.2958 39.6312 37.2988C40.0062 37.2958 39.6642 39.0448 39.8562 40.6498Z" fill="#000001"/>
<path d="M39.1963 36.0869C39.2003 36.1519 39.1789 36.2158 39.1368 36.2654C39.0947 36.315 39.035 36.3464 38.9703 36.353C38.9055 36.3596 38.8408 36.3409 38.7895 36.3008C38.7382 36.2607 38.7045 36.2023 38.6953 36.1379C38.6383 35.7359 39.2293 35.7419 39.1963 36.0869Z" fill="#000001"/>
<path d="M38.2414 19.0237C38.5204 18.0757 39.1414 18.9097 38.9464 18.9877C38.7994 19.0417 38.6464 18.6547 38.5204 19.0027C38.4134 19.2416 38.382 19.5074 38.4304 19.7647C38.4964 19.9177 38.8234 19.8607 38.8924 20.1727C38.9105 20.2553 38.8998 20.3417 38.8622 20.4175C38.8245 20.4934 38.7622 20.5541 38.6854 20.5897C38.5774 20.6407 38.4244 20.6917 38.4034 20.5657C38.3734 20.3887 38.6764 20.4487 38.6674 20.2477C38.6584 20.0467 37.8664 20.2897 38.2414 19.0237Z" fill="#000001"/>
<path d="M38.483 12.4419C38.681 12.6309 38.183 12.8769 38.069 13.1169C38.015 13.2369 37.793 13.2669 37.793 12.9999C37.793 12.9999 37.793 12.9339 37.832 12.9129C38.099 12.7329 38.324 12.3009 38.483 12.4419Z" fill="#000001"/>
<path d="M38.307 16.2005C38.3102 16.2239 38.3083 16.2476 38.3016 16.2701C38.2948 16.2927 38.2833 16.3135 38.2678 16.3313C38.2523 16.349 38.2332 16.3632 38.2118 16.373C38.1903 16.3827 38.1671 16.3877 38.1435 16.3877C38.12 16.3877 38.0967 16.3827 38.0753 16.373C38.0538 16.3632 38.0347 16.349 38.0192 16.3313C38.0038 16.3135 37.9922 16.2927 37.9855 16.2701C37.9787 16.2476 37.9768 16.2239 37.98 16.2005C37.986 15.9635 38.301 15.9395 38.307 16.2005Z" fill="#000001"/>
<path d="M38.1649 17.1844C38.1245 17.187 38.0847 17.174 38.0535 17.1481C38.0224 17.1222 38.0023 17.0855 37.9973 17.0453C37.9923 17.0051 38.0029 16.9645 38.0268 16.9319C38.0507 16.8992 38.0861 16.8769 38.1259 16.8694C38.1664 16.8669 38.2062 16.8799 38.2374 16.9058C38.2685 16.9317 38.2886 16.9684 38.2936 17.0086C38.2986 17.0488 38.288 17.0893 38.2641 17.122C38.2402 17.1547 38.2047 17.177 38.1649 17.1844Z" fill="#000001"/>
<path d="M37.9081 37.5995C37.9081 40.1975 38.0221 39.8045 37.9651 40.7375C37.9651 40.9175 37.7101 40.9235 37.7011 40.7645C37.6023 39.6543 37.5833 38.5384 37.6441 37.4255C37.6441 37.3295 37.7041 37.2575 37.8001 37.2725C37.8961 37.2875 37.9051 37.4765 37.9081 37.5995Z" fill="#000001"/>
<path d="M37.5763 17.4999C37.573 17.48 37.5736 17.4595 37.5783 17.4398C37.583 17.4202 37.5917 17.4016 37.6037 17.3854C37.6158 17.3691 37.631 17.3555 37.6485 17.3453C37.6659 17.335 37.6853 17.3284 37.7053 17.3259C37.7252 17.3229 37.7455 17.3239 37.7651 17.3288C37.7846 17.3337 37.8029 17.3423 37.8191 17.3543C37.8353 17.3663 37.8489 17.3813 37.8592 17.3986C37.8696 17.4159 37.8764 17.435 37.8794 17.4549C37.887 17.4766 37.8897 17.4997 37.8874 17.5226C37.885 17.5455 37.8777 17.5675 37.8658 17.5872C37.8539 17.6069 37.8379 17.6238 37.8187 17.6365C37.7996 17.6493 37.7779 17.6576 37.7551 17.661C37.7324 17.6644 37.7092 17.6627 37.6871 17.6561C37.6651 17.6494 37.6448 17.638 37.6278 17.6226C37.6107 17.6072 37.5972 17.5882 37.5883 17.567C37.5794 17.5458 37.5753 17.5229 37.5763 17.4999Z" fill="#000001"/>
<path d="M37.7694 15.7478C37.7694 15.9968 37.4034 16.0088 37.4184 15.7478C37.424 15.7052 37.4449 15.666 37.4772 15.6377C37.5095 15.6094 37.551 15.5938 37.5939 15.5938C37.6369 15.5938 37.6784 15.6094 37.7107 15.6377C37.743 15.666 37.7638 15.7052 37.7694 15.7478Z" fill="#000001"/>
<path d="M37.6286 16.4556C37.6519 16.4524 37.6757 16.4543 37.6982 16.4611C37.7208 16.4678 37.7416 16.4793 37.7593 16.4948C37.7771 16.5103 37.7913 16.5294 37.801 16.5509C37.8108 16.5723 37.8158 16.5956 37.8158 16.6191C37.8158 16.6426 37.8108 16.6659 37.801 16.6873C37.7913 16.7088 37.7771 16.7279 37.7593 16.7434C37.7416 16.7589 37.7208 16.7704 37.6982 16.7771C37.6757 16.7839 37.6519 16.7858 37.6286 16.7826C37.6053 16.7858 37.5815 16.7839 37.559 16.7771C37.5364 16.7704 37.5156 16.7589 37.4979 16.7434C37.4801 16.7279 37.4659 16.7088 37.4562 16.6873C37.4464 16.6659 37.4414 16.6426 37.4414 16.6191C37.4414 16.5956 37.4464 16.5723 37.4562 16.5509C37.4659 16.5294 37.4801 16.5103 37.4979 16.4948C37.5156 16.4793 37.5364 16.4678 37.559 16.4611C37.5815 16.4543 37.6053 16.4524 37.6286 16.4556Z" fill="#000001"/>
<path d="M37.2013 17.9999C37.2106 17.9673 37.2303 17.9386 37.2574 17.9182C37.2844 17.8978 37.3174 17.8867 37.3513 17.8867C37.3852 17.8867 37.4182 17.8978 37.4453 17.9182C37.4723 17.9386 37.492 17.9673 37.5013 17.9999C37.5079 18.0231 37.5091 18.0475 37.5047 18.0713C37.5003 18.095 37.4904 18.1174 37.4759 18.1367C37.4613 18.1559 37.4425 18.1716 37.4209 18.1823C37.3993 18.1931 37.3755 18.1987 37.3513 18.1987C37.3272 18.1987 37.3034 18.1931 37.2817 18.1823C37.2601 18.1716 37.2413 18.1559 37.2268 18.1367C37.2122 18.1174 37.2024 18.095 37.1979 18.0713C37.1935 18.0475 37.1947 18.0231 37.2013 17.9999Z" fill="#000001"/>
<path d="M36.9845 17.0827C36.9857 17.0493 36.9969 17.0172 37.0164 16.9902C37.036 16.9632 37.0632 16.9427 37.0945 16.9312C37.1258 16.9197 37.1598 16.9178 37.1922 16.9257C37.2246 16.9336 37.2539 16.951 37.2764 16.9756C37.2989 17.0002 37.3135 17.0309 37.3185 17.0639C37.3235 17.0969 37.3185 17.1306 37.3043 17.1607C37.29 17.1908 37.2671 17.2161 37.2385 17.2332C37.2099 17.2502 37.1768 17.2584 37.1435 17.2567C37.0995 17.2543 37.0581 17.2348 37.0284 17.2022C36.9986 17.1697 36.9829 17.1267 36.9845 17.0827Z" fill="#000001"/>
<path d="M37.0687 29.7985C37.0687 30.0085 36.7687 30.0985 36.6817 29.8885C36.5647 29.5405 36.9577 29.3095 37.0687 29.7985Z" fill="#000001"/>
<path d="M36.9886 16.0684C37.2406 16.0684 37.1896 16.4314 36.9886 16.4284C36.9409 16.4284 36.8951 16.4094 36.8613 16.3756C36.8276 16.3419 36.8086 16.2961 36.8086 16.2484C36.8086 16.2006 36.8276 16.1548 36.8613 16.1211C36.8951 16.0873 36.9409 16.0684 36.9886 16.0684Z" fill="#000001"/>
<path d="M36.6016 15.549C36.6016 15.5029 36.6199 15.4586 36.6525 15.426C36.6852 15.3933 36.7294 15.375 36.7756 15.375C36.8217 15.375 36.866 15.3933 36.8986 15.426C36.9312 15.4586 36.9496 15.5029 36.9496 15.549C36.9496 15.5951 36.9312 15.6394 36.8986 15.672C36.866 15.7047 36.8217 15.723 36.7756 15.723C36.7294 15.723 36.6852 15.7047 36.6525 15.672C36.6199 15.6394 36.6016 15.5951 36.6016 15.549Z" fill="#000001"/>
<path d="M35.7405 17.1425C36.0135 17.2835 35.7825 17.5055 35.6385 17.4935C35.4945 17.4815 35.0895 17.1935 34.4745 16.9745C34.3261 16.9178 34.1626 16.915 34.0123 16.9665C33.8621 17.018 33.7348 17.1207 33.6525 17.2565C33.5895 17.4425 33.2385 17.4665 33.3105 17.2235C33.3838 17.0342 33.5148 16.8726 33.6849 16.7617C33.855 16.6509 34.0556 16.5962 34.2585 16.6055C34.7651 16.7474 35.2605 16.9269 35.7405 17.1425Z" fill="#000001"/>
<path d="M35.1394 19.7199C35.2084 19.9269 35.0134 20.3199 34.4974 20.2959C34.2304 20.2779 34.2694 20.0229 34.3654 20.0319C34.4882 20.0518 34.6141 20.0405 34.7314 19.9989C34.7766 19.9799 34.8153 19.9483 34.8429 19.9079C34.8706 19.8674 34.886 19.8199 34.8874 19.7709C34.9054 19.5189 35.1004 19.5939 35.1394 19.7199Z" fill="#000001"/>
<path d="M34.9211 58.1766C34.9511 58.6956 34.2971 58.5816 34.4651 58.1046C34.5731 57.7986 34.9061 57.9306 34.9211 58.1766Z" fill="#000001"/>
<path d="M34.7775 23.3313C34.8615 23.4663 34.5015 24.0093 34.1955 23.9553C34.0875 23.9253 33.9195 23.9163 33.9645 23.7513C33.9702 23.7267 33.9854 23.7054 34.0068 23.6919C34.0281 23.6784 34.0539 23.6739 34.0785 23.6793C34.5795 23.7393 34.5465 22.9623 34.7775 23.3313Z" fill="#000001"/>
<path d="M34.6005 19.5671C34.6094 19.6088 34.6035 19.6523 34.5841 19.6903C34.5646 19.7283 34.5327 19.7584 34.4937 19.7756C34.4546 19.7929 34.4109 19.7961 34.3697 19.7849C34.3285 19.7737 34.2925 19.7487 34.2675 19.7141C34.1385 19.5281 34.1925 19.3391 34.2885 19.3001C34.3845 19.2611 34.5915 19.3331 34.6005 19.5671Z" fill="#000001"/>
<path d="M34.5502 42.8014C34.5522 42.8313 34.5483 42.8614 34.5386 42.8898C34.529 42.9182 34.5138 42.9444 34.4941 42.967C34.4743 42.9896 34.4503 43.008 34.4234 43.0213C34.3964 43.0346 34.3672 43.0424 34.3372 43.0444C34.3073 43.0464 34.2773 43.0424 34.2489 43.0328C34.2204 43.0231 34.1942 43.008 34.1716 42.9882C34.1491 42.9684 34.1306 42.9444 34.1173 42.9175C34.1041 42.8906 34.0962 42.8613 34.0942 42.8314C34.0923 42.8014 34.0962 42.7714 34.1059 42.743C34.1155 42.7146 34.1306 42.6883 34.1504 42.6658C34.1702 42.6432 34.1942 42.6248 34.2211 42.6115C34.248 42.5982 34.2773 42.5904 34.3072 42.5884C34.3372 42.5864 34.3672 42.5904 34.3956 42.6C34.4241 42.6096 34.4503 42.6248 34.4729 42.6446C34.4954 42.6643 34.5139 42.6884 34.5271 42.7153C34.5404 42.7422 34.5483 42.7714 34.5502 42.8014Z" fill="#000001"/>
<path d="M34.0858 45.8377C34.1638 45.7267 34.5208 45.8047 34.4698 46.0837C34.3798 46.5577 33.7708 46.2967 34.0858 45.8377Z" fill="#000001"/>
<path d="M34.0761 54.4748C34.1439 54.4723 34.2099 54.4963 34.2603 54.5416C34.3107 54.587 34.3415 54.6501 34.3461 54.7178C34.3481 54.7515 34.3434 54.7853 34.3323 54.8172C34.3211 54.8491 34.3037 54.8785 34.2811 54.9036C34.2585 54.9288 34.2311 54.9491 34.2006 54.9636C34.17 54.978 34.1369 54.9863 34.1031 54.9878C33.7161 55.0088 33.8541 54.4718 34.0761 54.4748Z" fill="#000001"/>
<path d="M33.8584 51.4648C34.0384 51.4948 34.1104 51.5578 34.0984 51.6988C34.0984 51.8938 33.9994 51.9988 33.8584 51.9988C33.6004 51.9778 33.5674 51.5458 33.8584 51.4648Z" fill="#000001"/>
<path d="M33.8482 39.2998C34.0192 39.3178 34.0912 39.3898 34.0822 39.5488C34.0612 39.9298 33.5902 39.8728 33.6142 39.5638C33.6322 39.3388 33.7312 39.2998 33.8482 39.2998Z" fill="#000001"/>
<path d="M34.0094 23.1605C34.1414 23.2205 34.0574 23.4305 33.9374 23.4215C31.8584 23.2595 31.7924 23.6465 31.4474 23.6075C31.2104 23.5805 31.4264 23.2235 32.7134 23.0405C33.2714 23.0555 33.6014 22.9865 34.0094 23.1605Z" fill="#000001"/>
<path d="M33.5177 36.3154C33.5201 36.2493 33.5487 36.1869 33.597 36.1419C33.6454 36.0969 33.7097 36.073 33.7757 36.0754C33.8418 36.0777 33.9042 36.1063 33.9492 36.1547C33.9942 36.203 34.0181 36.2673 34.0157 36.3334C34.0134 36.3994 33.9848 36.4618 33.9364 36.5068C33.8881 36.5518 33.8238 36.5757 33.7577 36.5734C33.6917 36.571 33.6293 36.5424 33.5843 36.4941C33.5393 36.4457 33.5154 36.3814 33.5177 36.3154Z" fill="#000001"/>
<path d="M33.8414 33.1888C33.8624 33.5518 33.3794 33.6028 33.3674 33.2698C33.3554 32.9368 33.8264 32.9488 33.8414 33.1888Z" fill="#000001"/>
<path d="M30.8125 16.4072C31.6645 16.4072 31.6675 17.0072 31.1125 16.8002C30.1825 16.4492 29.5585 17.7392 29.2045 17.6672C29.1475 17.6672 29.0635 17.6402 29.0665 17.5682C29.0721 17.5048 29.0997 17.4454 29.1445 17.4002C29.9185 16.6502 30.2995 16.4132 30.8125 16.4072Z" fill="#000001"/>
<path d="M30.6856 20.3248C30.8596 20.3248 30.7966 20.5198 30.7516 20.5558C30.6827 20.5996 30.6043 20.6265 30.523 20.6343C30.4417 20.6421 30.3597 20.6306 30.2836 20.6008C29.8396 20.4688 30.0256 19.9708 30.2356 20.2318C30.4036 20.4358 30.5746 20.3368 30.6856 20.3248Z" fill="#000001"/>
<path d="M30.6625 19.6918C30.7705 19.8748 30.7076 20.0338 30.5936 20.0728C30.4796 20.1118 30.3716 19.9888 30.3386 19.8718C30.2726 19.6348 30.5365 19.4758 30.6625 19.6918Z" fill="#000001"/>
<path d="M30.4796 29.973C30.6026 30.342 30.1016 30.396 30.1016 30.03C30.1016 29.895 30.1376 29.835 30.2336 29.82C30.3776 29.799 30.4346 29.835 30.4796 29.973Z" fill="#000001"/>
<path d="M20.8785 45.16C20.7855 47.146 18.2985 46.942 18.0045 45.097C17.6235 42.724 20.7885 42.706 20.8785 45.16ZM19.0065 46.06C19.6695 46.513 20.5245 46.09 20.5455 45.118C20.4015 43.735 19.1625 43.381 18.6435 43.873C18.1245 44.365 18.1185 45.445 19.0065 46.051V46.06Z" fill="#000001"/>
</g>
<rect x="0.5" y="0.5" width="59" height="59" rx="29.5" stroke="#ABEC9A"/>
<defs>
<clipPath id="clip0_683_10198">
<rect width="60" height="60" rx="30" fill="white"/>
</clipPath>
</defs>
</svg>
