<svg width="60" height="60" viewBox="0 0 60 60" fill="none" xmlns="http://www.w3.org/2000/svg">
<g clip-path="url(#clip0_683_10042)">
<rect width="60" height="60" rx="30" fill="white"/>
<path d="M24.4761 54.8174L23.8203 58.7824C25.0489 59.1514 26.3367 59.2829 27.6145 59.1698C29.4201 58.9746 31.5094 59.3558 44.4139 59.3558C45.4448 59.3558 46.7106 59.3101 46.7106 59.121C46.7106 58.9319 46.2439 57.8339 46.1494 57.1537C46.0548 56.4736 45.6553 54.3172 45.3533 53.7103C45.0514 53.1033 36.3314 48.7662 32.5433 50.6877C28.7552 52.6092 24.4761 54.8174 24.4761 54.8174Z" fill="#FF9C9F"/>
<path d="M37.9963 42.1926C38.02 42.3008 38.0312 42.4113 38.0299 42.522C38.0299 42.5739 37.9414 42.6257 37.8743 42.6684C37.6273 42.8301 31.8933 46.7707 31.878 46.7219C31.7408 46.179 31.3717 46.7585 34.9524 44.2301C36.816 42.9185 37.5846 42.4214 37.8316 42.2567C37.8987 42.2109 37.9811 42.1682 37.9963 42.1926Z" fill="#D9D9D9"/>
<path d="M35.022 43.0746C35.3544 42.8702 35.3819 42.7513 34.717 42.6933C34.5035 42.675 31.3376 42.4981 30.752 42.4981C30.3768 42.4981 30.4165 42.367 30.2731 41.9705C30.2304 41.8576 30.2731 41.8851 31.0143 41.9095C31.9994 41.943 36.7269 42.0345 37.5047 42.1382C37.3705 42.2602 31.6761 46.0758 31.6609 46.027C31.4321 45.3041 31.3925 45.3072 31.4901 45.3041C31.9049 45.3041 31.9018 45.3468 32.2739 45.0479C32.521 44.8344 34.7688 43.224 35.022 43.0746Z" fill="#D9D9D9"/>
<path d="M34.672 42.9183C34.5103 43.1074 32.0276 44.8703 31.9056 44.9435C31.7013 45.0624 31.2956 45.0655 31.2377 44.9191C31.0306 44.4362 30.8593 43.9387 30.7253 43.4307C30.4935 42.7109 30.5148 42.7414 30.8137 42.7414C32.1222 42.8054 34.309 42.8542 34.672 42.9183Z" fill="#D9D9D9"/>
<path d="M20.8879 39.7593C20.8665 40.7475 19.9973 41.1775 19.3232 40.717C18.4082 40.107 18.4082 39.0059 18.9542 38.4935C19.5001 37.9811 20.7415 38.3532 20.8879 39.7593Z" fill="#D9D9D9"/>
<path d="M31.2566 46.0905C31.5433 46.9079 31.5433 46.8743 31.3725 46.8835L28.1456 46.8652C28.2716 46.729 28.4177 46.6128 28.5787 46.5205C28.7435 46.4321 28.9006 46.3301 29.0484 46.2155C29.0952 46.1716 29.1291 46.1157 29.1463 46.0538C29.1635 45.992 29.1634 45.9266 29.146 45.8648C29.1124 45.694 29.2222 45.7275 29.5669 45.5598C29.6263 45.5314 29.677 45.4874 29.7133 45.4324C29.7496 45.3774 29.7703 45.3136 29.7731 45.2478C29.776 45.182 29.7608 45.1166 29.7293 45.0587C29.6978 45.0009 29.6512 44.9527 29.5943 44.9193C28.4597 44.2483 25.8581 46.429 24.876 45.8343C25.1505 45.5598 25.5134 45.4774 26.096 44.9193C26.6613 44.4228 27.1884 43.8845 27.6728 43.3089C27.9778 42.9063 27.4959 42.6104 27.014 42.7385C26.5538 42.8692 26.1416 43.1309 25.8276 43.4919C25.5683 43.867 25.1657 43.9158 24.5008 44.2574C23.9793 44.5289 23.11 45.2456 22.1066 44.6509C21.643 44.3733 21.9724 43.9463 22.3018 43.5163C23.4577 41.9913 22.497 41.3111 21.9175 42.0858C21.1153 43.1564 21.7101 42.3329 20.5724 43.6535C20.2857 43.989 20.3894 44.111 20.0234 45.2914C19.5385 46.8591 20.7341 46.548 17.7664 46.4016C17.7664 46.4016 15.5033 46.2003 14.9391 46.1271C14.753 46.1027 14.6341 46.0447 14.201 44.7149C14.143 44.538 13.7435 43.6108 13.5635 43.1289C13.1457 42.0309 12.1636 38.9718 10.9588 35.8638C10.4129 34.4547 10.8063 34.107 11.8372 33.9118C13.6184 33.5763 21.7436 33.799 23.5584 33.9454C28.7007 34.3693 26.6633 33.0487 31.2566 46.0905ZM18.3002 39.7465C18.6052 41.6222 21.1275 41.8296 21.2221 39.8105C21.1336 37.3156 17.9159 37.3339 18.3002 39.7465Z" fill="#D9D9D9"/>
<path d="M37.8868 7.94494C38.1094 8.18589 38.3931 8.11879 38.3168 8.24994C37.8654 9.08259 38.1796 9.43639 37.594 8.98499C37.3591 8.81419 37.777 7.82294 37.8868 7.94494Z" fill="#FF9C9F"/>
<path d="M19.7123 46.9054C19.8709 46.9268 19.8709 46.9268 19.8709 47.122C19.8169 47.4242 19.8117 47.7331 19.8557 48.037C19.6919 47.9335 19.5709 47.7745 19.5149 47.5891C19.4589 47.4037 19.4716 47.2042 19.5507 47.0274C19.5751 46.8902 19.5812 46.8871 19.7123 46.9054Z" fill="#FFC280"/>
<path d="M23.2447 48.5985C23.4216 48.4216 24.5593 48.3789 24.4129 48.5405C22.5066 50.6755 20.1734 50.0015 19.5329 49.3427C18.9564 48.7327 18.7277 48.7967 18.383 48.3697C17.9682 47.8543 17.7913 47.7018 17.7181 47.4029C17.5626 46.7929 17.4619 46.741 17.6632 46.7654C19.4109 46.982 19.1333 46.68 19.0784 47.4242C19.0571 47.7079 19.2401 47.9061 19.6884 48.4368C19.8795 48.6114 20.0834 48.7715 20.2984 48.9157C20.783 49.2271 21.3515 49.3825 21.9271 49.361C22.3419 49.3396 22.9092 48.9401 23.2447 48.5985Z" fill="#FFC280"/>
<path d="M32.8009 46.5761C33.6549 46.0301 33.6274 45.8441 33.5603 46.2558C33.3377 47.6192 33.8653 49.6108 33.5176 52.2064C33.4037 52.759 33.379 53.3264 33.4444 53.8869C33.542 54.3841 33.4078 54.866 33.3529 55.6132C33.3529 55.6864 33.3316 55.7322 33.2645 55.7474C33.1248 55.7875 32.9778 55.7958 32.8344 55.7718C31.7935 55.5664 30.7316 55.4865 29.6716 55.5339C27.7623 55.5339 27.9087 55.1832 26.161 54.8233C25.4626 54.6799 25.7218 54.9117 23.4435 54.378C23.1903 54.32 23.6021 53.3776 23.9559 51.2792C24.3402 48.9764 24.5384 48.9825 24.8343 48.586C24.9929 48.3756 25.2186 48.7385 26.1885 48.3908C26.9235 48.1285 27.5579 48.1102 27.9239 47.7808C28.052 47.6649 28.2838 47.5917 28.293 47.3965C28.293 47.3294 28.3204 47.305 28.4394 47.2959C28.5583 47.2867 31.587 47.3172 31.6541 47.2959C31.9286 47.244 32.1024 47.0214 32.8009 46.5761Z" fill="#FFC280"/>
<path d="M42.0899 34.2454C42.1296 34.8371 42.2821 35.5111 41.666 35.6789C40.9737 35.8255 40.2649 35.8789 39.5584 35.8375C39.0543 35.757 38.5423 35.7375 38.0334 35.7795C37.5637 35.8009 36.9263 35.8344 37.0056 35.3342C37.1825 34.1966 36.9659 31.7322 36.9629 31.6742C36.9629 31.418 36.9934 31.3143 37.1977 31.3418C37.4005 31.3633 37.605 31.3633 37.8077 31.3418C38.2134 31.3052 38.9088 31.2899 39.2168 31.5583C39.409 31.7261 39.6194 31.8176 39.8268 31.662C40.0349 31.5051 40.2775 31.4005 40.5344 31.357C41.0585 31.2808 41.5879 31.2471 42.1174 31.2564C42.0421 32.251 42.033 33.2495 42.0899 34.2454ZM40.2386 35.2854C40.2752 35.4745 40.5619 35.4867 40.5436 35.2275C40.3514 33.5957 40.6961 31.8176 40.327 31.8145C40.1806 31.8145 40.1684 34.0929 40.1837 34.3643C40.1678 34.672 40.1821 34.9805 40.2264 35.2854H40.2386ZM38.6099 35.3159C38.6678 34.3674 38.5672 34.7669 38.5519 32.1256C38.5519 32.0006 38.5519 31.8206 38.4421 31.7932C38.3323 31.7657 38.2896 31.8511 38.2835 31.9487C38.2217 33.0802 38.2411 34.2147 38.3415 35.3434C38.3384 35.505 38.5885 35.4989 38.5977 35.3159H38.6099Z" fill="#FFC280"/>
<path d="M42.3761 29.4046C42.4148 29.8688 42.362 30.3362 42.2206 30.7801C42.0986 31.1553 41.4642 30.7801 40.5034 30.9997C40.1875 31.04 39.8867 31.1585 39.6281 31.3444C39.4512 31.4725 39.5579 31.1797 38.8137 31.0577C37.9963 30.9265 37.4717 31.0577 37.0813 30.9723C36.5262 30.8411 36.7153 30.1152 36.7214 30.1152C36.6604 28.8739 36.4347 29.1453 39.7501 29.0569C42.248 28.9898 42.3426 28.9928 42.3761 29.4046ZM39.8477 30.588C39.8812 30.2372 39.2773 30.2311 39.3383 30.6398C39.3477 30.7053 39.382 30.7646 39.4341 30.8054C39.4862 30.8462 39.5521 30.8652 39.6179 30.8585C39.6837 30.8518 39.7444 30.8199 39.7872 30.7694C39.8301 30.719 39.8517 30.654 39.8477 30.588Z" fill="#FFC280"/>
<path d="M32.7259 22.5691C32.7597 22.7597 32.7407 22.9559 32.671 23.1364C32.4697 22.0872 31.5547 22.9351 31.3778 23.9904C31.1216 25.491 31.1704 25.613 31.0911 25.4941C30.1151 24.0148 30.414 25.1067 29.926 23.4231C29.7821 23.0605 29.5002 22.7699 29.1422 22.6149C28.9592 22.5203 28.7487 22.2123 28.8067 22.1238C29.1605 21.6023 28.8829 21.465 29.499 20.7086C29.6268 20.5477 29.7721 20.4014 29.9321 20.2725C29.8713 20.4997 29.8913 20.741 29.9887 20.9552C30.086 21.1694 30.2547 21.3431 30.4659 21.4467C30.8532 21.6846 30.7312 22.0262 31.4388 22.1543C32.2654 22.3099 32.6649 22.3129 32.7259 22.5691ZM30.5909 24.4235C30.5909 24.7956 31.0972 24.7285 30.9752 24.3656C30.9295 24.2253 30.8715 24.1887 30.7251 24.21C30.6397 24.2314 30.6031 24.2924 30.6031 24.4296L30.5909 24.4235Z" fill="#FFC280"/>
<path d="M53.7956 11.3915C55.0827 11.4891 56.1136 11.8002 56.077 13.1178C56.0526 13.9962 56.2143 13.6149 55.281 13.377C54.3477 13.1391 53.7163 13.072 51.8863 13.7766C51.4319 13.9535 50.1509 14.4872 49.608 15.0484C49.5839 15.0722 49.5667 15.1021 49.5581 15.1348C49.5496 15.1675 49.5499 15.2019 49.5592 15.2345C49.5592 15.2863 49.6141 15.3473 49.7452 15.2772C50.6907 14.7587 53.3564 13.072 55.3572 13.8376C57.0256 14.472 56.1716 15.8475 55.9154 15.6676C54.8326 14.9447 51.8772 15.4236 50.5169 15.634C50.2607 15.6737 50.3644 15.8567 50.5169 15.8689C51.6362 15.9604 56.1075 15.0454 55.9367 16.5948C55.6958 18.7786 52.5207 21.1972 50.8402 22.9479C50.0594 23.7592 49.1779 25.452 47.6804 27.0837C46.256 28.6362 45.8199 30.0422 45.2892 29.6122C42.3673 27.2484 41.9769 23.6982 41.7085 23.5762C41.687 23.5654 41.6628 23.5609 41.6389 23.5631C41.6149 23.5654 41.5921 23.5744 41.573 23.589C41.5539 23.6037 41.5393 23.6234 41.5309 23.6459C41.5225 23.6685 41.5206 23.693 41.5255 23.7165C41.7725 26.3243 44.9842 30.6065 45.7101 30.027C45.7172 32.5564 45.5654 35.0837 45.2556 37.594C44.8591 40.3726 44.4382 41.254 44.5084 42.2971C44.8378 47.2564 45.2007 46.1157 45.5454 48.5191C45.8656 50.7456 45.829 49.7391 46.6434 52.6305C46.9484 53.7163 46.8874 53.6187 46.7776 53.6919C45.341 54.6405 45.6399 54.4697 44.1454 54.7198C42.5259 54.9943 43.0444 55.8666 39.2959 55.5524C37.7252 55.4213 38.8232 55.2474 36.5509 55.7141C35.9013 55.8483 36.0812 55.8635 35.6146 55.8605C35.2821 55.8605 35.2089 55.8879 35.154 55.711C34.4525 53.3656 35.0717 54.6557 34.0652 51.4166C33.8547 50.7456 34.0652 50.2271 33.9859 49.5378C33.9706 49.4128 33.8944 48.2873 33.8883 47.9884C33.8303 45.6338 33.995 45.7009 34.2512 45.5179C38.8262 42.2544 38.2833 42.9468 38.2681 42.1172C38.2681 41.739 37.3531 41.9342 34.541 41.7268C34.2604 41.7054 34.236 41.7603 34.2177 41.6017C34.0926 39.055 34.3 38.4602 34.2848 37.6001C34.2665 36.2459 33.6961 36.0934 33.809 34.3092C33.9371 32.2474 33.9859 33.1105 33.8242 30.9115C33.7998 30.5821 33.7968 29.8531 33.7724 29.4902C33.6817 28.8562 33.6247 28.2178 33.6016 27.5778C33.6016 26.4463 33.9066 23.1218 34.7941 22.3928C35.6817 21.6639 35.7427 22.1275 36.5296 21.3589C37.4446 20.4439 37.6001 20.3158 38.0058 19.6326C38.1918 19.3276 38.0363 19.2117 37.8655 19.0226C37.9919 18.9559 38.132 18.919 38.2749 18.9146C38.4178 18.9102 38.5598 18.9385 38.6901 18.9974C38.8204 19.0562 38.9356 19.144 39.0268 19.2541C39.1181 19.3642 39.183 19.4936 39.2166 19.6326C39.3539 20.1236 39.5216 20.1755 39.7443 20.7458C40.3726 22.4477 38.3291 22.9571 38.0363 24.0307C37.9168 24.4089 37.6964 24.7474 37.3988 25.0097C37.289 25.1348 37.0938 24.5736 37.0694 24.3997C37.0068 24.1842 36.8939 23.9867 36.74 23.8233C36.0812 22.9998 35.947 21.9536 34.8185 22.8412C34.5135 23.073 34.1292 24.2289 34.4037 24.296C34.6782 24.3631 34.7087 23.2743 35.1083 23.076C35.3492 22.9571 35.4621 22.7161 35.6664 22.9388C36.0873 23.3902 36.2002 23.7745 36.5814 24.2442C36.6821 24.3631 37.0816 25.9705 37.5422 25.3727C37.6642 25.2141 37.8167 25.0677 37.9448 24.9243C38.4633 24.2869 38.2498 24.0398 38.6798 23.6464C39.4149 23.0028 40.0188 22.4508 40.2048 21.6547C40.2444 21.5264 40.2537 21.3907 40.2323 21.2582C40.1926 21.0844 40.1804 20.9075 40.1408 20.7306C40.1011 20.5537 39.9059 20.3493 40.1011 20.3554C41.2632 20.3859 41.2662 20.5018 41.7908 20.2395C43.8221 19.23 42.4008 19.599 45.7406 18.1045C47.3296 17.4 47.6743 16.3538 48.022 16.4667C48.3697 16.5795 48.632 16.4667 49.3945 16.241C49.4799 16.2166 49.5714 16.2074 49.6202 16.0763C49.6275 16.0575 49.631 16.0374 49.6306 16.0172C49.6301 15.997 49.6256 15.9771 49.6174 15.9587C49.6091 15.9402 49.5973 15.9236 49.5826 15.9098C49.5679 15.8959 49.5506 15.8851 49.5317 15.878C49.2816 15.7865 48.2751 16.488 48.0464 15.997C47.8481 15.5639 47.717 15.3412 47.9213 15.0606C48.937 13.6851 48.635 14.3713 49.6812 13.0476C50.1804 12.4576 50.8161 11.9983 51.5332 11.7097C52.2502 11.4211 53.0268 11.3119 53.7956 11.3915ZM42.9498 21.9048C43.2548 28.139 45.4203 27.2972 44.731 26.8397C43.206 25.818 43.4226 21.548 43.0749 20.8404C43.0261 20.7428 42.8583 20.6787 42.8187 20.8953C42.7973 21.0203 42.9193 21.2918 42.9498 21.9048ZM42.4649 31.0274C42.657 30.7224 42.7211 29.9751 42.715 29.5939C42.715 28.6209 42.8095 28.5996 38.0637 28.7551C36.6302 28.8009 36.2764 28.5447 36.374 30.5485C36.3984 31.0762 36.6973 31.0914 36.6607 31.2653C36.5296 31.918 36.6912 32.1284 36.6973 32.4029C36.7278 34.7118 36.7644 34.7819 36.676 35.2669C36.6515 35.3521 36.6449 35.4414 36.6568 35.5293C36.6686 35.6172 36.6986 35.7016 36.7447 35.7773C36.7909 35.853 36.8522 35.9183 36.9249 35.969C36.9976 36.0197 37.0801 36.0548 37.167 36.0721C37.9631 36.2886 37.9905 35.9592 39.5399 36.1971C39.7595 36.2337 41.5651 36.1026 41.5895 36.0995C42.7272 35.8982 42.4069 34.6325 42.4039 34.5745C42.3371 33.7069 42.3229 32.8361 42.3612 31.9668C42.3947 31.4696 42.291 31.3049 42.4649 31.0274ZM37.2799 24.2869C37.3531 24.4973 37.6794 24.4089 37.6733 24.1954C37.5727 23.6982 37.1731 23.9331 37.2921 24.2869H37.2799ZM35.0259 52.9721C34.8551 53.4571 35.52 53.5821 35.4895 53.0453C35.4865 52.7952 35.1479 52.661 35.0381 52.9721H35.0259ZM34.6477 37.4446C34.6518 37.5061 34.6801 37.5634 34.7264 37.604C34.7727 37.6446 34.8333 37.6652 34.8948 37.6611C34.9562 37.6571 35.0136 37.6288 35.0542 37.5824C35.0948 37.5361 35.1154 37.4756 35.1113 37.4141C35.1166 37.3797 35.1141 37.3447 35.104 37.3114C35.0939 37.2782 35.0764 37.2477 35.0529 37.2221C35.0294 37.1965 35.0005 37.1765 34.9682 37.1636C34.936 37.1507 34.9012 37.1452 34.8666 37.1476C34.8319 37.1499 34.7982 37.16 34.768 37.1771C34.7378 37.1943 34.7118 37.2179 34.6919 37.2465C34.6721 37.275 34.6589 37.3076 34.6534 37.3419C34.6478 37.3762 34.6501 37.4113 34.6599 37.4446H34.6477ZM35.029 40.7508C35.0808 40.4671 34.724 40.3878 34.6386 40.5007C34.3275 40.9673 34.9527 41.2327 35.0412 40.7508H35.029ZM34.6325 49.8032C34.6668 49.8052 34.7011 49.8004 34.7336 49.7891C34.766 49.7778 34.7959 49.7601 34.8214 49.7371C34.847 49.7141 34.8677 49.6863 34.8824 49.6552C34.897 49.6241 34.9054 49.5905 34.907 49.5561C34.9095 49.4867 34.8847 49.4192 34.8379 49.3678C34.7912 49.3165 34.7262 49.2856 34.6569 49.2816C34.4037 49.2694 34.2939 49.8062 34.6447 49.8032H34.6325ZM34.6538 46.4482C34.6538 46.3048 34.5928 46.2408 34.4098 46.2103C34.1048 46.2926 34.1353 46.7318 34.4098 46.744C34.5654 46.7623 34.6508 46.6647 34.666 46.4604L34.6538 46.4482ZM34.6538 34.1018C34.6538 33.9401 34.5898 33.8669 34.4159 33.8486C34.297 33.8486 34.1963 33.8822 34.178 34.117C34.1597 34.4434 34.6294 34.5013 34.6508 34.114L34.6538 34.1018ZM34.5837 30.8261C34.5837 30.4875 34.0865 30.4113 34.0774 30.8078C34.0705 30.8748 34.0904 30.9419 34.1326 30.9944C34.1748 31.0469 34.2361 31.0807 34.3031 31.0884C34.338 31.0918 34.3733 31.0878 34.4067 31.0768C34.4401 31.0658 34.4708 31.048 34.4969 31.0245C34.523 31.0009 34.544 30.9722 34.5584 30.9402C34.5728 30.9081 34.5804 30.8734 34.5806 30.8383L34.5837 30.8261ZM33.9218 27.7242C33.9218 28.0628 34.4251 28.0109 34.4037 27.6419C34.3885 27.3979 33.9066 27.4009 33.9218 27.7242Z" fill="#FFC280"/>
<path d="M33.8551 41.0008C33.8887 41.9463 34.1906 41.748 32.0251 41.6779C30.0792 41.6108 30.1951 41.6474 30.125 41.4552C28.0967 35.6602 28.0632 34.4097 26.9286 34.0041C25.916 33.6411 25.0986 33.7967 25.065 33.571C24.8759 31.3597 25.306 31.0669 25.065 29.6853C25.065 29.5877 24.8393 29.4931 24.8485 29.7737C24.8691 30.3857 24.8334 30.9983 24.7417 31.6037C24.5526 33.0159 24.8515 33.6442 24.6228 33.6411C23.8908 33.6411 21.6917 33.4673 18.9772 33.3849C18.8979 33.3849 18.9254 33.3605 18.9437 33.33C19.2853 32.8298 19.4347 32.4547 19.7946 32.6163C20.1038 32.7201 20.439 32.7163 20.7457 32.6056C21.0525 32.4949 21.3128 32.2837 21.4843 32.0063C21.4843 31.985 21.7192 31.3719 21.7222 31.3658C21.7802 31.195 21.7619 31.3658 22.8904 31.3658C23.6193 31.3658 24.3818 30.1458 24.2598 29.3711C24.1622 28.7215 24.3818 28.389 23.8084 27.7577C22.7958 26.6414 21.89 27.3246 21.8107 28.4104C21.8107 28.5537 21.6551 28.5232 21.6216 28.447C21.5301 28.2335 21.4477 27.9529 21.1183 27.9315C21.0024 27.9315 20.9811 27.898 21.3013 27.3398C21.6216 26.7817 21.8808 26.5956 22.2163 26.4828C22.7592 26.2998 22.7257 25.8728 23.0825 25.7386C25.0284 25.0218 24.3025 24.2715 28.1425 22.7282C28.4688 22.6001 28.5054 22.4842 28.5634 22.5879C28.8684 23.0973 29.4784 22.9631 29.6553 23.8659C29.6961 24.309 29.9005 24.7212 30.2287 25.0218C30.7868 25.4976 30.9302 26.4462 31.3267 25.9673C31.7232 25.4885 31.4517 23.4175 32.2417 23.0454C32.4155 23.5212 32.2142 24.8754 33.0255 25.461C33.5501 25.8484 33.1292 26.5194 33.3732 29.362C33.788 34.1749 33.1262 34.4067 33.5776 36.0384C34.276 38.4723 33.7148 37.0968 33.8551 41.0008Z" fill="#FFC280"/>
<path d="M34.9194 19.8519C35.2823 19.8092 35.3159 20.0623 35.2549 20.2484C35.2496 20.2859 35.2353 20.3217 35.2132 20.3525C35.1911 20.3834 35.1619 20.4084 35.128 20.4255C35.0942 20.4426 35.0567 20.4512 35.0187 20.4507C34.9808 20.4501 34.9436 20.4403 34.9102 20.4222C34.8126 20.3856 34.7303 20.3155 34.6998 20.4222C34.6693 20.529 34.8157 20.7455 34.6022 20.898C34.4985 20.9712 34.3155 20.9773 34.1782 20.6906C34.1646 20.6605 34.1421 20.6354 34.1137 20.6185C34.0854 20.6016 34.0525 20.5937 34.0196 20.5961C33.8275 20.5961 33.9617 20.9194 33.6475 21.0292C33.4005 21.1176 33.2663 20.9926 33.1839 20.7242C33.129 20.5473 32.9613 20.5656 32.8972 20.7089C32.8057 20.9194 32.3787 21.0139 32.3208 20.6723C32.275 20.4039 32.3574 20.3033 32.0798 20.2667C32.0172 20.271 31.9552 20.2524 31.9052 20.2145C31.8552 20.1766 31.8207 20.1218 31.8081 20.0604C31.7954 19.9989 31.8055 19.9349 31.8364 19.8803C31.8673 19.8257 31.9169 19.7842 31.9761 19.7634C32.1286 19.6994 32.336 20.0257 32.5373 19.7329C32.5744 19.6624 32.6376 19.6092 32.7134 19.5847C32.7892 19.5602 32.8716 19.5663 32.943 19.6018C33.0451 19.6656 33.1299 19.7536 33.19 19.858C33.2297 19.9251 33.2937 19.9373 33.3273 19.8885C33.3718 19.8139 33.3998 19.7307 33.4096 19.6445C33.4645 19.4432 33.6841 19.3059 33.8397 19.4706C33.9952 19.6353 33.9769 19.8 34.1172 19.8153C34.2575 19.8305 34.2362 19.7604 34.3368 19.6018C34.5229 19.2968 34.7303 19.3273 34.7577 19.6323C34.7699 19.8244 34.7699 19.8702 34.9194 19.8519Z" fill="#585858"/>
<path d="M38.7575 5.34625C40.3618 5.04125 40.249 7.20065 39.9379 7.0146C39.8342 6.9536 39.7549 6.9963 39.7488 6.8621C39.7337 6.69771 39.6783 6.53958 39.5875 6.40172C39.4967 6.26387 39.3732 6.15055 39.2281 6.07182C39.083 5.99308 38.9207 5.95136 38.7557 5.95036C38.5906 5.94935 38.4278 5.98909 38.2817 6.06605C38.0469 6.2033 36.4518 4.6417 34.8414 4.01645C34.0301 3.71145 33.6488 3.5254 33.4292 3.44C33.3342 3.39546 33.231 3.37086 33.1261 3.36772C33.0212 3.36457 32.9167 3.38294 32.8192 3.4217C32.63 3.47883 32.4587 3.58389 32.3221 3.7267C32.2031 3.8975 31.9743 3.6169 31.5687 3.9097C31.4955 3.96155 31.3369 4.0317 31.3247 4.1781C31.3125 4.3245 31.1569 4.32145 31.0441 4.3855C30.6933 4.5685 30.0986 4.9955 29.9675 5.37675C29.8912 5.59983 29.7601 5.80015 29.5862 5.9593C29.3239 6.31005 29.8333 6.5693 30.1688 6.43815C30.4817 6.30238 30.7487 6.07886 30.9374 5.7946C31.0563 5.64515 31.1844 5.6543 31.6145 5.6482C31.7548 5.6482 31.7639 5.6848 31.8676 5.7763C31.5138 6.0813 30.5775 6.0264 30.1566 6.82855C29.9705 7.1793 29.8759 7.13355 29.5282 7.64595C29.4215 7.80455 29.4703 8.0882 29.9248 8.12175C30.069 8.13787 30.2149 8.11851 30.3499 8.06535C30.485 8.0122 30.6049 7.92686 30.6995 7.81675C31.343 7.2708 31.0045 7.2586 31.6145 7.27995C31.9767 7.27065 32.3346 7.19947 32.6728 7.0695C32.7704 7.04205 34.2893 8.11565 35.1128 8.3139C35.6677 8.43868 36.2339 8.50613 36.8025 8.5152C36.9306 8.5152 37.3118 8.7043 37.2356 8.78665C36.7171 9.3753 36.3847 8.9178 36.037 8.8873C35.6892 8.8568 35.5764 9.06725 35.1738 8.8873C35.003 8.8141 35.0975 8.4298 34.8108 8.6555C34.6851 8.73886 34.534 8.77537 34.384 8.75864C34.2341 8.74192 34.0947 8.67302 33.9904 8.564C33.8867 8.4481 33.6854 8.39625 33.6854 8.5823C33.7059 8.6609 33.7043 8.7436 33.6808 8.82136C33.6574 8.89911 33.613 8.96891 33.5525 9.02309C33.492 9.07728 33.4178 9.11377 33.3379 9.12855C33.2581 9.14333 33.1757 9.13584 33.0998 9.1069C32.9351 9.0642 32.932 8.8019 32.7948 8.8263C32.5752 8.87815 32.8894 9.67725 32.0842 9.4363C32.0139 9.40968 31.9499 9.36893 31.896 9.31656C31.8421 9.26419 31.7996 9.20132 31.771 9.13185C31.7424 9.06237 31.7284 8.98777 31.7298 8.91265C31.7312 8.83754 31.748 8.76351 31.7792 8.69515C31.8432 8.6006 31.8737 8.4786 31.7792 8.41455C31.5504 8.259 31.4742 8.9117 30.9831 8.46335C30.8459 8.3383 30.794 8.4298 30.733 8.60365C30.6775 8.76086 30.5668 8.89261 30.4216 8.97449C30.2763 9.05637 30.1063 9.08282 29.943 9.04895C29.638 8.9849 29.4429 8.5152 29.2599 8.64025C28.9793 8.8324 29.8882 9.62845 28.9549 10.3971C28.293 10.94 28.3449 9.97615 28.3449 9.967C28.3421 9.94464 28.333 9.92353 28.3186 9.90613C28.3043 9.88873 28.2853 9.87576 28.2639 9.86873C28.2425 9.8617 28.2195 9.8609 28.1977 9.86642C28.1758 9.87194 28.156 9.88355 28.1405 9.8999C28.0429 9.98225 28.0276 10.1836 27.7074 10.333C27.2163 10.5587 26.7345 9.723 27.2682 9.38445C27.6403 9.15265 27.5732 9.1374 27.3261 9.0215C27.2616 8.99696 27.2044 8.95633 27.1599 8.90347C27.1154 8.85062 27.0852 8.78728 27.0721 8.71947C27.0589 8.65166 27.0633 8.58161 27.0848 8.51597C27.1063 8.45034 27.1443 8.39128 27.195 8.3444C27.2377 8.29865 27.3384 8.2346 27.2865 8.1309C27.2347 8.0272 27.1706 8.00585 27.07 8.01195C26.5606 8.0455 26.155 7.2281 26.6704 6.6425C26.7292 6.56599 26.8112 6.51064 26.9042 6.48479C26.9972 6.45894 27.096 6.46398 27.1858 6.49915C27.3292 6.51745 27.4116 6.41375 27.3445 6.2826C26.8961 5.42555 27.8721 4.59595 28.5645 5.28525C28.6346 5.35845 28.659 5.4652 28.8268 5.40725C28.9945 5.3493 28.9244 5.21205 28.8725 5.0565C28.7983 4.86613 28.7992 4.65464 28.8751 4.46492C28.951 4.27519 29.0961 4.12141 29.2812 4.03475C29.6045 3.93105 30.1962 4.4404 30.0163 3.87005C29.5649 2.50975 31.5413 1.53985 32.0598 2.8422C32.1238 3.00995 32.2397 3.0984 32.319 2.952C32.4959 2.647 32.4959 2.31455 32.9107 2.09495C33.3255 1.87535 33.5512 1.7686 33.8562 2.0797C34.1612 2.3908 34.1307 2.891 34.3991 2.61955C35.0731 1.9455 35.1799 3.10145 35.4574 3.10145C35.735 3.10145 35.5337 2.7446 36.1132 2.3969C36.5493 2.13765 36.9092 2.0187 37.2691 2.3725C37.7998 2.8971 37.446 3.43695 37.5558 3.6718C37.7205 4.02255 38.0408 3.1411 38.4525 3.3668C38.5809 3.4535 38.6842 3.57238 38.7522 3.71154C38.8202 3.85071 38.8504 4.00528 38.8399 4.1598C38.8917 4.82165 37.7876 5.5262 38.7575 5.34625Z" fill="#585858"/>
<path d="M29.3042 45.1145C29.5116 45.2609 29.353 45.3341 29.0388 45.45C27.4925 46.0326 27.2088 46.365 25.8943 46.9567C25.6259 47.0757 25.5588 47.1062 25.6167 47.219C25.8241 47.6338 28.5112 45.9075 28.8162 45.9075C28.8863 45.9075 28.9168 45.9472 28.8924 46.0143C28.8436 46.1515 28.682 46.2034 28.4959 46.2979C27.7151 46.7066 27.462 47.2983 26.1627 47.5362C25.9873 47.5692 25.8141 47.613 25.6442 47.6674C25.5801 47.6887 25.5771 47.7467 25.5862 47.8077C25.5954 47.8687 25.6259 47.9053 26.0132 47.8351C27.3583 47.5881 26.8367 47.3319 27.9195 47.2983C28.1147 47.2983 28.0018 47.463 27.7121 47.6033C27.4491 47.7093 27.1803 47.8 26.9069 47.8748C25.1348 48.4848 24.5248 48.0029 23.5732 48.1554C22.5515 48.314 22.399 49.3571 21.1698 48.8325C19.7058 48.2225 20.325 47.2282 20.2243 46.5907C20.142 46.0814 20.264 45.9014 20.4897 44.959C20.7154 44.0165 20.3402 44.2971 22.2739 42.1499C22.524 41.8724 22.8016 42.4122 21.9201 43.5468C21.6365 43.9128 21.4016 44.23 21.667 44.6509C21.9323 45.0718 22.9693 45.5903 24.3052 44.7485C25.144 44.2178 25.5252 44.3673 26.0895 43.7329C26.5927 43.1503 27.5718 42.8789 27.3461 43.1717C26.9435 43.6963 26.6049 43.8366 26.2206 44.288C25.449 45.1877 24.6956 45.2518 24.4669 45.7337C24.3296 46.0143 24.9 46.5602 26.2145 46.1302C27.0136 45.8679 28.2153 45.1298 28.9168 45.0596C29.0485 45.0435 29.1821 45.0624 29.3042 45.1145Z" fill="#C49E91"/>
<path d="M51.2404 10.2626C51.6156 10.3876 53.168 10.9488 52.7654 11.0098C49.6758 11.507 49.6727 12.8978 48.3643 13.9622C47.8244 14.3984 47.7787 14.7857 47.5835 14.679C44.7348 13.154 45.6345 13.3309 42.5601 11.5283C37.9851 8.83824 38.2901 9.06699 38.3481 8.87789C38.6287 7.86224 38.8757 8.37464 39.4095 7.78904C39.992 7.15159 38.9977 7.05399 41.7214 7.94764C45.4851 9.18289 48.6784 9.42384 51.2404 10.2626Z" fill="#C49E91"/>
<path d="M39.1563 9.98469C39.2355 10.5867 39.2159 11.1976 39.0984 11.7933C39.0465 12.0556 38.9459 11.653 38.7537 11.8208C38.7168 11.8594 38.6962 11.9107 38.6962 11.9641C38.6962 12.0175 38.7168 12.0689 38.7537 12.1075C38.8178 12.1868 38.8178 12.1868 38.7354 12.2417C38.5433 12.3667 38.6287 12.4338 38.2139 12.5101C37.4178 12.6565 37.4392 12.7175 37.4056 12.5924C37.1006 11.5188 33.8463 11.5127 33.401 12.7175C33.3034 12.9859 33.0258 12.5528 32.4463 12.9401C32.2359 13.0804 32.4463 11.9336 30.3113 12.2722C29.4299 12.4125 29.6068 12.8822 29.1218 10.8387C29.07 10.616 29.195 10.6282 29.2255 10.5916C30.1405 9.44179 29.2865 9.17949 29.8965 9.34419C30.0859 9.38926 30.2847 9.37275 30.4641 9.29705C30.6435 9.22136 30.794 9.09042 30.8939 8.92329C30.9335 8.85314 30.964 8.83179 31.0464 8.87449C31.3514 9.03004 31.4825 8.81044 31.4642 8.97819C31.3849 9.67969 32.4433 10.1341 32.8703 9.50279C32.9404 9.40214 32.9343 9.40214 33.0502 9.42349C33.2013 9.45934 33.3594 9.4511 33.5059 9.39974C33.6525 9.34838 33.7812 9.25606 33.8768 9.13374C33.9835 8.99954 33.9134 8.91109 34.072 8.99954C34.4959 9.24354 34.682 8.99954 34.8528 9.08799C34.9956 9.18188 35.1573 9.24337 35.3264 9.26814C35.4955 9.2929 35.6681 9.28034 35.8318 9.23134C36.0789 9.12459 36.3015 9.40214 36.6309 9.40824C37.2592 9.40824 37.2409 9.04834 37.4239 9.21914C37.9821 9.72239 38.3023 9.44179 38.3969 9.42654C38.4396 9.42654 38.6195 9.51194 38.6287 9.55464C38.6378 9.59734 38.6287 9.65224 38.6622 9.73459C38.6861 9.77204 38.7235 9.79892 38.7666 9.8097C38.8097 9.82047 38.8553 9.81433 38.894 9.79254C39.0404 9.72544 39.1228 9.78339 39.1563 9.98469ZM38.6134 10.369C38.6102 10.3927 38.6121 10.4168 38.619 10.4398C38.6258 10.4627 38.6376 10.4839 38.6533 10.5019C38.669 10.5199 38.6885 10.5344 38.7103 10.5443C38.732 10.5542 38.7557 10.5593 38.7796 10.5593C38.8036 10.5593 38.8272 10.5542 38.849 10.5443C38.8708 10.5344 38.8902 10.5199 38.906 10.5019C38.9217 10.4839 38.9334 10.4627 38.9403 10.4398C38.9472 10.4168 38.9491 10.3927 38.9459 10.369C38.9398 10.1036 38.6195 10.128 38.6134 10.369ZM38.6287 11.223C38.6295 11.2637 38.6462 11.3025 38.6753 11.331C38.7044 11.3595 38.7435 11.3755 38.7842 11.3755C38.8142 11.3749 38.8434 11.3654 38.8681 11.3483C38.8928 11.3312 38.9118 11.3072 38.9229 11.2793C38.934 11.2514 38.9366 11.2208 38.9304 11.1914C38.9241 11.162 38.9094 11.1351 38.8879 11.1141C38.8665 11.0931 38.8393 11.0789 38.8098 11.0732C38.7803 11.0676 38.7498 11.0708 38.7221 11.0824C38.6944 11.094 38.6708 11.1136 38.6542 11.1386C38.6375 11.1636 38.6287 11.193 38.6287 11.223ZM38.5097 11.6835C38.5118 11.6631 38.5098 11.6424 38.5039 11.6228C38.498 11.6031 38.4882 11.5848 38.4752 11.5689C38.4621 11.553 38.4461 11.5399 38.4279 11.5302C38.4098 11.5206 38.3899 11.5146 38.3694 11.5127C38.328 11.5101 38.2871 11.5236 38.2553 11.5503C38.2235 11.5769 38.2032 11.6148 38.1986 11.6561C38.1927 11.6786 38.1917 11.702 38.1959 11.7249C38.2 11.7478 38.2091 11.7695 38.2226 11.7884C38.236 11.8074 38.2535 11.8231 38.2737 11.8346C38.2939 11.8461 38.3164 11.8529 38.3395 11.8548C38.3627 11.8566 38.386 11.8533 38.4077 11.8451C38.4295 11.8369 38.4492 11.8241 38.4654 11.8075C38.4816 11.7908 38.494 11.7708 38.5017 11.7489C38.5093 11.727 38.5121 11.7036 38.5097 11.6805V11.6835ZM38.0431 9.92064C38.0431 10.1768 38.403 10.1646 38.3999 9.92064C38.3946 9.87728 38.3737 9.83732 38.3412 9.80822C38.3086 9.77912 38.2665 9.76287 38.2228 9.7625C38.1791 9.76213 38.1368 9.77766 38.1037 9.80619C38.0707 9.83473 38.0491 9.87432 38.0431 9.91759V9.92064ZM38.2566 10.9637C38.2803 10.967 38.3044 10.9651 38.3273 10.9582C38.3503 10.9513 38.3715 10.9396 38.3895 10.9239C38.4075 10.9081 38.422 10.8887 38.4319 10.8669C38.4418 10.8451 38.4469 10.8215 38.4469 10.7975C38.4469 10.7736 38.4418 10.7499 38.4319 10.7281C38.422 10.7063 38.4075 10.6869 38.3895 10.6712C38.3715 10.6554 38.3503 10.6437 38.3273 10.6368C38.3044 10.63 38.2803 10.6281 38.2566 10.6313C38.2323 10.6266 38.2073 10.6273 38.1833 10.6334C38.1593 10.6395 38.137 10.6509 38.118 10.6666C38.0989 10.6823 38.0835 10.7021 38.073 10.7245C38.0624 10.7468 38.057 10.7713 38.057 10.796C38.057 10.8207 38.0624 10.8451 38.073 10.8675C38.0835 10.8899 38.0989 10.9096 38.118 10.9254C38.137 10.9411 38.1593 10.9524 38.1833 10.9585C38.2073 10.9647 38.2323 10.9654 38.2566 10.9607V10.9637ZM38.1254 12.199C38.1159 12.1658 38.0959 12.1367 38.0684 12.1159C38.0409 12.0952 38.0074 12.084 37.9729 12.084C37.9384 12.084 37.9049 12.0952 37.8774 12.1159C37.8499 12.1367 37.8299 12.1658 37.8204 12.199C37.8137 12.2226 37.8125 12.2474 37.817 12.2716C37.8215 12.2957 37.8315 12.3185 37.8463 12.3381C37.8611 12.3577 37.8802 12.3736 37.9022 12.3845C37.9242 12.3955 37.9484 12.4012 37.9729 12.4012C37.9975 12.4012 38.0217 12.3955 38.0436 12.3845C38.0656 12.3736 38.0847 12.3577 38.0995 12.3381C38.1143 12.3185 38.1243 12.2957 38.1288 12.2716C38.1333 12.2474 38.1322 12.2226 38.1254 12.199ZM37.9272 11.284C37.9296 11.2499 37.9218 11.2159 37.9047 11.1863C37.8876 11.1568 37.862 11.133 37.8313 11.1181C37.8006 11.1032 37.7661 11.0979 37.7323 11.1028C37.6985 11.1077 37.6669 11.1226 37.6417 11.1456C37.6165 11.1687 37.5987 11.1987 37.5907 11.2319C37.5827 11.2651 37.5849 11.3 37.5969 11.3319C37.6089 11.3639 37.6303 11.3915 37.6581 11.4113C37.686 11.431 37.7192 11.4419 37.7533 11.4426C37.7761 11.4451 37.7991 11.443 37.821 11.4362C37.8429 11.4295 37.8632 11.4184 37.8806 11.4035C37.8981 11.3887 37.9123 11.3704 37.9224 11.3498C37.9325 11.3293 37.9383 11.3069 37.9394 11.284H37.9272ZM37.5917 10.6008C37.7991 10.6008 37.8509 10.2317 37.5917 10.2348C37.5676 10.2356 37.544 10.2411 37.5221 10.2511C37.5002 10.261 37.4805 10.2751 37.4641 10.2927C37.4476 10.3103 37.4348 10.3309 37.4264 10.3534C37.4179 10.3759 37.414 10.3999 37.4148 10.4239C37.4156 10.4479 37.4211 10.4716 37.431 10.4935C37.441 10.5154 37.4551 10.5351 37.4727 10.5515C37.4902 10.5679 37.5109 10.5807 37.5334 10.5892C37.5559 10.5977 37.5798 10.6016 37.6039 10.6008H37.5917ZM37.5642 9.71019C37.5642 9.66327 37.5456 9.61828 37.5124 9.5851C37.4792 9.55193 37.4342 9.53329 37.3873 9.53329C37.3404 9.53329 37.2954 9.55193 37.2622 9.5851C37.2291 9.61828 37.2104 9.66327 37.2104 9.71019C37.2104 9.75872 37.2297 9.80527 37.264 9.83959C37.2983 9.87391 37.3449 9.89319 37.3934 9.89319C37.4419 9.89319 37.4885 9.87391 37.5228 9.83959C37.5571 9.80527 37.5764 9.75872 37.5764 9.71019H37.5642ZM36.2222 11.6835C36.3686 11.6835 36.6035 11.47 36.3259 11.3267C35.838 11.1075 35.3343 10.925 34.8192 10.7807C34.613 10.7713 34.409 10.8268 34.2361 10.9396C34.0631 11.0523 33.93 11.2165 33.8554 11.409C33.7822 11.6561 34.1391 11.6317 34.2031 11.4426C34.2868 11.3045 34.4163 11.2001 34.569 11.1477C34.7217 11.0953 34.888 11.0982 35.0388 11.1559C35.6854 11.3877 36.0667 11.6683 36.2344 11.6835H36.2222ZM31.6381 10.979C32.1962 11.1894 32.1932 10.5672 31.3331 10.5794C30.8176 10.5794 30.4181 10.8265 29.6434 11.589C29.5978 11.6349 29.5698 11.6954 29.5641 11.7598C29.5641 11.833 29.6464 11.8482 29.7044 11.8604C30.0582 11.9336 30.6926 10.6221 31.6381 10.979Z" fill="#C49E91"/>
<path d="M35.9254 4.87933C38.1001 6.40432 37.9933 6.27622 37.9018 6.37992C37.7577 6.53358 37.6558 6.72193 37.6061 6.92664C37.5564 7.13135 37.5606 7.34544 37.6182 7.54807C37.7005 7.70972 37.6182 7.77072 37.3498 8.33802C37.2705 8.50577 37.304 8.28922 36.7977 8.24347C35.6845 8.14282 35.2331 8.18857 34.3394 7.68837C32.6467 6.74287 32.8144 6.72762 32.2044 6.91672C31.5944 7.10582 31.2254 6.88012 30.9326 7.22172C30.5269 7.69447 30.3592 7.95677 29.9169 7.89882C29.7339 7.87442 29.737 7.78597 29.7949 7.70667C29.8681 7.6061 29.9465 7.50939 30.0298 7.41692C30.5147 6.91062 30.3348 6.85572 30.7496 6.57512C31.4389 6.11152 31.6341 6.39822 32.0672 6.00172C32.3173 5.77297 32.18 5.31548 31.4236 5.37343C30.7099 5.37343 31.0027 5.56557 30.2036 6.14812C30.045 6.26402 29.7705 6.19998 29.8559 6.08408C30.5269 5.16908 29.9657 5.54728 30.9783 4.76953C31.1291 4.67657 31.2972 4.61534 31.4724 4.58958C31.6188 4.54993 31.6127 4.58958 32.6162 4.98608C32.9212 5.10503 33.2902 4.96472 32.4484 4.60788C32.1733 4.48648 31.8899 4.38457 31.6005 4.30288C31.5212 4.28153 31.6219 4.18088 31.7561 4.10768C31.8572 4.05458 31.9737 4.0384 32.0855 4.06193C32.2521 4.08479 32.4145 4.13207 32.5674 4.20223C32.8724 4.32118 33.1225 4.36388 33.5007 4.50723C33.6654 4.56823 33.7843 4.41573 33.6227 4.30288C33.3878 4.13513 33.1072 4.17783 32.5369 3.89113C32.6333 3.79422 32.7525 3.72306 32.8836 3.68417C33.0147 3.64527 33.1534 3.63987 33.2872 3.66848C33.7447 3.79048 33.9673 4.01008 34.6902 4.27848C35.1277 4.42071 35.5434 4.62292 35.9254 4.87933Z" fill="#C49E91"/>
<path d="M37.5304 19.6875C37.6188 19.8674 36.1914 21.2613 35.8132 21.4717C35.7004 21.5388 35.4472 21.5846 35.3435 21.6364C33.9527 22.3288 34.0869 22.8747 33.7179 24.0764C33.5715 24.5614 33.5989 25.4947 33.4647 25.3605C32.8547 24.7505 32.6504 24.7352 32.9493 23.4786C33.1658 22.5636 33.2299 22.0604 32.2966 21.9262C30.7716 21.7035 31.1711 21.7615 31.1681 20.9746C31.1681 20.9105 31.2138 19.3855 31.223 19.3245C31.3653 19.4322 31.4811 19.5709 31.5615 19.7302C31.5951 19.8095 31.5615 19.8674 31.531 20.0169C31.5146 20.0858 31.5131 20.1574 31.5266 20.2269C31.54 20.2965 31.5682 20.3623 31.6092 20.4201C31.6503 20.4779 31.7031 20.5262 31.7643 20.5619C31.8256 20.5975 31.8937 20.6197 31.9641 20.6269C32.1471 20.6269 31.9428 21.2155 32.5436 21.2369C32.8913 21.2735 32.9615 20.9807 33.0682 21.1301C33.1192 21.207 33.1868 21.2713 33.2662 21.3183C33.3455 21.3652 33.4345 21.3936 33.5263 21.4012C33.6182 21.4089 33.7106 21.3956 33.7966 21.3623C33.8827 21.3291 33.96 21.2768 34.0229 21.2094C34.151 21.0844 34.154 21.2094 34.456 21.2704C34.571 21.2872 34.6882 21.2602 34.7842 21.1946C34.8803 21.1291 34.9482 21.0299 34.9745 20.9166C34.9811 20.88 35.0009 20.8471 35.0301 20.8241C35.0593 20.801 35.096 20.7895 35.1331 20.7916C35.4869 20.7458 35.5296 20.3371 35.5265 20.2822C35.5265 20.0047 36.4171 19.9101 37.2132 19.1751C37.5914 18.8243 37.5029 18.8701 37.4999 19.1324C37.4672 19.3173 37.4776 19.5073 37.5304 19.6875Z" fill="#C49E91"/>
<path d="M39.9555 13.5718C39.9555 13.3552 39.9982 12.8215 39.5956 12.4951C39.4763 12.4237 39.3378 12.3909 39.1991 12.4013C39.0604 12.4117 38.9283 12.4647 38.8209 12.5531C38.6932 12.679 38.5927 12.8298 38.5255 12.9961C38.4584 13.1624 38.4261 13.3407 38.4305 13.5199C38.4305 13.6541 38.2536 13.7914 38.1987 13.6541C38.1438 13.5169 38.1652 13.4559 38.2231 13.0441C38.2445 12.8947 38.1713 12.9892 37.7931 13.1204C37.055 13.3796 38.0615 14.7704 35.8411 15.112C35.31 15.1674 34.7731 15.1177 34.2612 14.9656C33.2699 14.5783 33.5749 13.3156 33.1449 13.2027C32.8399 13.1173 32.5013 13.3034 32.5532 13.4894C32.6283 13.6667 32.6533 13.8611 32.6253 14.0515C32.5973 14.242 32.5175 14.421 32.3946 14.5691C32.0255 14.9443 31.7449 15.2279 32.0255 15.6458C32.1144 15.77 32.2355 15.8676 32.3759 15.9278C32.5162 15.988 32.6704 16.0086 32.8216 15.9874C33.4529 15.9874 33.459 15.478 33.7366 15.7129C34.0141 15.9477 34.4808 15.8105 34.2856 15.4353C34.2093 15.2889 34.1331 15.2615 34.2093 15.1547C34.3954 14.8985 34.92 15.5909 34.4991 15.9843C34.1666 16.2893 33.8464 16.1307 33.5841 16.027C32.8612 16.7072 31.4765 16.2588 31.5924 15.2767C31.6138 15.0937 30.897 15.6641 29.9241 15.4231C29.7594 15.3835 29.7441 15.3957 29.7441 15.5573C29.7937 16.2944 29.9723 17.0171 30.2718 17.6923C30.653 18.4304 31.4918 19.0953 31.7144 19.4735C31.812 19.6535 31.9035 19.3851 32.239 19.5467C32.3031 19.5772 32.3671 19.626 32.4007 19.5803C32.4342 19.5345 32.4739 19.4217 32.6508 19.3607C32.7274 19.3342 32.8096 19.3282 32.8893 19.3432C32.969 19.3581 33.0434 19.3936 33.1052 19.4461C33.1723 19.4918 33.1998 19.4674 33.2852 19.3759C33.3395 19.3044 33.412 19.2489 33.4952 19.2151C33.5784 19.1812 33.6692 19.1704 33.7579 19.1838C33.9165 19.2112 33.9897 19.3576 34.0629 19.4613C34.0873 19.504 34.0965 19.5833 34.1727 19.4613C34.2264 19.3634 34.3027 19.2797 34.3954 19.2173C34.5026 19.1673 34.625 19.1607 34.737 19.199C34.9535 19.2875 34.9413 19.504 34.981 19.6047C34.981 19.6382 35.0542 19.5681 35.1914 19.6047C35.6337 19.7114 35.1914 20.0164 36.3474 19.3698C38.8301 17.9699 37.8327 15.0144 38.6959 15.3652C38.8274 15.4367 38.9785 15.4634 39.1265 15.4414C39.2745 15.4194 39.4114 15.3498 39.5163 15.2432C39.8793 14.8375 40.0013 14.1238 39.9555 13.5718ZM34.5021 17.7106C32.3854 17.5459 32.3214 17.9394 31.9706 17.8997C31.7297 17.8723 31.9493 17.5093 33.2577 17.3233C33.825 17.3385 34.1727 17.2684 34.5753 17.4453C34.7095 17.5063 34.6241 17.7198 34.5021 17.7106ZM34.7644 18.2535C34.6546 18.223 34.4869 18.2169 34.5296 18.0461C34.5354 18.0212 34.5508 17.9995 34.5725 17.9858C34.5942 17.9721 34.6204 17.9675 34.6455 17.9729C35.1548 18.0339 35.1213 17.244 35.3561 17.6191C35.4415 17.7564 35.0755 18.2993 34.7705 18.2535H34.7644ZM39.5956 13.2027C39.4462 13.2576 39.2906 12.8642 39.1625 13.218C39.0553 13.4613 39.0234 13.7311 39.071 13.9927C39.1381 14.1482 39.4706 14.0903 39.5407 14.4075C39.5591 14.4916 39.5483 14.5794 39.51 14.6565C39.4718 14.7335 39.4084 14.7953 39.3303 14.8314C39.2205 14.8833 39.0649 14.9351 39.0436 14.807C39.0131 14.6271 39.3211 14.6881 39.312 14.4837C39.3028 14.2794 38.4976 14.5264 38.8789 13.2393C39.1625 12.2755 39.8 13.1143 39.5956 13.2027Z" fill="#C49E91"/>
<path d="M56.4466 14.1056C56.6066 14.2992 56.7102 14.533 56.7463 14.7815C56.7823 15.0301 56.7493 15.2837 56.6509 15.5147C56.4984 15.9814 56.1599 15.9112 56.2666 16.1247C56.7302 17.119 54.9582 19.3821 54.2079 20.1904C53.1251 21.3646 52.1278 22.0204 51.2311 23.1001C49.3065 25.3937 49.5658 25.6133 48.1811 27.1017C47.1532 28.1966 47.0556 28.3796 46.1986 29.743C45.982 30.0846 46.1803 33.7354 45.6648 37.368C44.8383 43.1904 44.2527 40.6315 45.8478 47.8783C46.0491 48.7933 45.9912 49.5283 46.4578 50.6233C46.5951 50.9435 46.6134 51.032 47.019 52.4807C47.4064 53.8746 47.4765 53.7007 46.162 54.5334C45.7228 54.8109 45.8966 54.4785 46.223 56.5189C46.5707 58.7027 46.955 58.779 46.9245 59.206C46.9062 59.453 46.6408 59.4408 46.5646 59.2578C45.7258 57.1869 45.8783 56.1651 45.4879 54.9268C45.4574 54.8323 45.5276 54.9268 44.1764 55.1098C43.5664 55.1922 42.993 55.5826 42.4288 55.8083C41.7029 56.1133 41.3613 55.9882 39.6838 55.9272C39.3329 55.9611 38.9788 55.9395 38.6346 55.8632C38.0703 55.7046 37.6342 55.8815 37.012 56.0218C34.087 56.6745 35.0813 56.1224 34.0596 52.6271C33.8735 51.9927 33.9162 51.95 33.8278 52.5875C33.7647 53.0997 33.775 53.6184 33.8583 54.1277C33.8391 54.6126 33.7953 55.0961 33.7271 55.5765C33.6966 56.5342 32.2021 55.8815 30.3233 55.8632C28.6214 55.8632 29.0271 56.0889 26.9683 55.427C25.7697 55.0427 25.6995 55.1861 24.7235 55.0305C24.5771 55.0061 24.5375 55.2806 24.4795 55.8754C24.3667 57.0039 24.1349 57.44 24.0342 58.2788C24.0299 58.4514 23.9948 58.6218 23.9305 58.782C23.9116 58.8139 23.8838 58.8394 23.8504 58.8556C23.8171 58.8717 23.7798 58.8777 23.7431 58.8728C23.7064 58.868 23.672 58.8524 23.644 58.8282C23.6161 58.8039 23.5958 58.7719 23.5859 58.7363C23.534 58.4313 24.385 54.9329 24.2233 54.8994C22.5946 54.5456 22.8661 55.2349 23.775 50.4677C23.9458 49.5527 23.9915 49.5131 23.9031 49.5527C23.1741 49.9614 22.4177 50.4433 21.5058 50.3671C20.725 50.3 19.813 50.1932 19.261 49.5985C18.651 48.9397 17.5591 48.6591 17.2571 46.7894C17.2571 46.6949 17.2968 46.6674 15.9853 46.582C15.1038 46.5241 14.5548 46.6064 14.2803 45.8897C13.8777 44.8496 10.5715 36.2364 10.4099 35.1415C10.2482 34.0465 10.7423 33.6165 12.1697 33.5036C15.36 33.2474 16.4397 33.464 16.2201 33.3206C16.0469 33.1919 15.8558 33.0891 15.6528 33.0156C15.4088 32.9302 15.3997 32.7899 15.2655 32.6618C15.0428 32.4453 15.0093 32.8967 14.2498 32.7228C14.1136 32.6738 13.993 32.589 13.9007 32.4774C13.8084 32.3658 13.7478 32.2315 13.7252 32.0884C13.6825 31.5516 13.6429 31.6157 13.5941 31.5211C13.5117 31.3686 13.3714 31.8963 12.5083 31.5882C11.9593 31.3961 12.0508 30.9477 11.9898 30.6244C11.9501 30.414 11.5353 30.5939 11.3798 30.7678C11.2991 30.8812 11.1951 30.9759 11.0747 31.0457C10.9543 31.1154 10.8204 31.1586 10.6819 31.1721C10.5435 31.1857 10.4037 31.1695 10.2721 31.1244C10.1404 31.0794 10.02 31.0067 9.91883 30.9111C9.39728 30.4292 9.85478 29.9321 9.46438 29.7094C8.90928 29.4044 8.86963 29.0049 8.89708 28.3278C8.93063 27.5927 9.20208 27.4951 9.43388 27.3426C9.61961 27.3184 9.80845 27.3406 9.98354 27.4071C10.1586 27.4736 10.3145 27.5825 10.4373 27.7239C10.6783 28.0014 10.0591 27.0071 10.904 26.5862C11.4896 26.2812 11.7183 26.3697 11.9501 26.4581C12.4229 26.6381 12.4168 26.9278 12.7004 27.6781C12.9048 28.218 12.3283 28.2698 13.0054 28.6785C13.0847 28.7243 13.5026 28.8097 13.8106 28.9073C14.5365 29.136 13.7771 30.2889 14.4481 30.2493C14.6774 30.2441 14.9028 30.3099 15.0933 30.4376C15.2838 30.5654 15.4303 30.7489 15.5125 30.963C15.8175 31.9573 16.1683 32.1037 16.1012 31.9359C16.0571 31.7003 16.0707 31.4576 16.1408 31.2283C16.3787 30.7403 15.7931 30.2188 15.3509 30.0083C14.9086 29.7979 15.0245 29.1635 15.3204 28.9286C15.3448 28.9103 15.3509 28.8615 15.357 28.8249C15.3631 28.7883 15.357 28.7822 15.3356 28.7609C15.2502 28.3827 15.0977 28.5901 14.2315 28.2393C14.1158 28.1934 14.011 28.1236 13.9241 28.0344C13.8372 27.9453 13.7701 27.8388 13.7272 27.7219C13.6843 27.605 13.6666 27.4804 13.6752 27.3561C13.6838 27.2319 13.7185 27.1109 13.7771 27.001C13.9936 26.6045 14.1278 26.5649 14.0241 26.51C13.5422 26.2477 13.8838 25.6255 13.4599 25.7688C12.8956 25.9579 12.066 25.6712 11.9776 25.1588C11.9532 25.0094 11.7976 24.8782 11.6482 25.0002C11.4987 25.1222 11.453 25.4028 11.1053 25.4242C10.9985 25.4242 10.6691 25.7292 10.355 25.5035C9.03738 24.5336 10.5563 23.3685 10.2025 23.2373C9.63823 23.0391 9.84868 24.1523 9.08618 24.0974C7.78383 24.009 8.72933 23.0848 7.83263 23.4417C7.22263 23.6918 6.57298 22.8896 6.28018 22.2766C6.18338 22.0973 6.13302 21.8967 6.13368 21.693C6.13434 21.4893 6.18601 21.2889 6.28396 21.1103C6.38192 20.9317 6.52305 20.7804 6.69446 20.6704C6.86588 20.5603 7.06214 20.4949 7.26533 20.4801C7.35378 20.4801 7.44223 20.5045 7.38428 20.4161C6.49673 19.007 7.40868 18.9582 8.15898 18.6105C8.52803 18.4366 8.55548 18.2597 8.46398 17.851C8.45886 17.8286 8.4484 17.8076 8.43348 17.79C8.25963 17.5033 8.25353 17.9517 7.69538 18.0096C7.23178 18.0615 7.22263 17.8693 7.02743 17.5918C6.53028 18.0157 6.89018 18.2811 6.41743 18.9277C6.30458 19.0893 6.17953 19.7573 5.13338 19.3821C4.97779 19.3127 4.85378 19.1876 4.78568 19.0314C4.17568 17.8998 4.81008 17.6253 4.63318 17.2776C4.55998 17.1343 4.46238 16.811 4.38613 16.692C4.25941 16.4771 4.19617 16.2307 4.20373 15.9813C4.21129 15.7319 4.28933 15.4898 4.42883 15.2829C4.59048 15.1091 5.23403 14.5845 5.38043 14.4686C5.68543 14.2276 5.91418 14.2825 6.74378 14.2368C6.84443 14.2368 6.89628 14.2734 6.86273 13.8647C6.82918 13.456 7.22568 13.5414 7.03963 13.4316C6.17953 12.9192 6.28933 12.2573 6.73463 11.3728C6.82003 11.2051 6.90238 11.1288 7.28363 11.1868C7.56728 11.2325 7.64048 11.1197 8.09188 10.8818C8.15593 10.8482 8.14678 10.8208 8.07053 10.6866C7.79298 10.1772 8.04308 9.46659 8.31758 9.35374C8.76288 9.14939 9.34848 8.96029 9.76023 9.14939C10.7088 9.59469 10.7698 9.68009 10.9101 9.96069C10.9924 10.1315 10.9772 9.90884 11.4072 9.89054C12.0477 9.86614 12.3588 11.3911 11.5445 12.1719C11.2974 12.4098 11.1419 12.3397 11.1144 12.6203C11.0656 13.1449 11.3645 13.2852 11.1785 13.8403C11.1205 14.008 11.2059 14.1453 10.9223 14.3374C10.0073 14.923 10.1567 15.2158 10.1659 15.7221C10.1659 15.777 10.1659 15.8319 10.2482 15.838C10.3306 15.8441 10.416 15.838 10.4251 15.7557C10.477 15.4049 11.0626 15.1091 11.3401 15.1213C11.4743 15.1213 11.1571 14.4198 11.6451 14.005C12.2216 13.5109 12.4137 13.3675 13.2952 13.5871C14.2956 13.8372 13.9906 14.7827 14.0211 15.3256C14.0211 15.533 14.1888 15.5422 14.3779 15.5422C14.567 15.5422 14.567 15.5971 15.0367 15.7953C15.6803 16.0637 15.7748 16.5975 15.5918 16.933C15.2868 17.4789 14.9818 18.5373 14.1888 18.6532C13.9906 18.6837 14.0851 18.7386 13.9875 19.1046C13.8948 19.3408 13.7462 19.5511 13.5544 19.7173C13.3627 19.8836 13.1335 20.0009 12.8865 20.0592C12.3375 20.1111 12.3344 19.9891 12.2978 20.2148C12.2863 20.443 12.2442 20.6687 12.1728 20.8858C12.0721 21.1481 11.8922 21.1908 12.0538 21.4622C12.2887 21.8343 12.6638 20.9803 13.2952 21.0718C14.3779 21.2335 14.1553 22.3132 14.2559 22.426C14.3566 22.5389 14.6616 22.3406 14.8659 22.6578C14.9757 22.8256 15.2441 22.9628 15.0947 23.4569C14.9178 24.0364 14.7287 24.1554 14.9025 24.6281C15.055 25.0399 16.2476 24.805 16.4275 26.1531C16.4269 26.2419 16.433 26.3306 16.4458 26.4185C16.5983 26.2843 16.6166 25.8573 17.6353 26.0372C17.6597 25.7109 17.6963 25.4272 17.7207 25.2564C17.8122 24.6464 18.9407 24.6464 18.5961 23.9693C18.3368 23.4752 16.8484 23.0208 18.1935 20.4771C18.2728 20.3307 17.9861 20.1721 17.8031 19.5133C17.5286 18.5037 18.3734 18.5342 17.8305 17.6833C17.5195 17.3554 17.345 16.9213 17.3425 16.4694C17.2912 16.1446 17.3047 15.8129 17.3822 15.4934C17.4462 15.2341 18.0349 15.1884 18.1782 15.1884C18.2606 15.1884 18.2941 15.1884 18.3155 14.8315C18.3673 14.0019 17.1138 13.1052 18.1965 11.7602C18.4161 11.4887 18.8218 11.4552 19.1634 11.4094C19.505 11.3637 19.6971 11.5894 19.9594 11.8273C20.0845 11.6168 20.176 11.4094 20.3834 11.324C20.6609 11.2112 20.7768 10.9885 21.2984 10.9977C21.9511 10.9977 21.8077 12.1658 21.8565 12.2177C22.2042 12.6752 22.8661 11.626 23.5188 12.2177C24.0098 12.6538 24.1715 12.6996 24.2294 13.2547C24.2965 13.886 23.897 14.191 24.0586 14.4991C24.2111 14.8971 24.2219 15.3354 24.0891 15.7404C23.9793 15.9966 23.9092 16.1095 23.0369 16.631C22.4269 17.0062 21.5759 16.631 21.4875 16.936C21.399 17.241 21.6247 17.2898 21.5271 17.8022C21.4448 18.2445 21.1276 18.153 21.0879 18.5647C21.0696 18.766 21.4661 18.8514 21.7376 18.8179C22.2073 18.7569 22.4574 18.6837 22.6526 19.007C23.778 20.9193 20.6091 21.0993 21.1093 21.6513C21.3441 21.9075 21.7681 22.2613 21.7711 22.8713C21.7893 23.079 21.7622 23.2882 21.6918 23.4844C21.2435 24.3567 21.1093 24.4604 20.7982 24.6434C20.5489 24.7998 20.2867 24.9345 20.0143 25.046C19.843 25.0949 19.6881 25.1894 19.5661 25.3193C19.4442 25.4493 19.3598 25.6099 19.322 25.7841C19.2518 26.3056 19.4501 26.4215 19.2183 26.6259C19.0965 26.7919 18.9529 26.9407 18.7913 27.0681C18.4436 27.3304 18.349 27.7025 18.102 27.8062C17.3822 28.1112 18.468 28.4162 18.0135 28.9591C17.5591 29.502 17.2297 29.5691 17.1717 29.7582C17.0863 30.0358 17.0131 30.173 17.2083 30.3682C17.4152 30.5813 17.5386 30.8617 17.556 31.1582C17.7268 31.6218 16.946 31.9725 17.3212 32.4544C17.556 32.7594 17.431 33.0644 17.6262 32.9211C17.8214 32.7777 17.7939 32.7167 17.9098 32.4636C18.2575 31.7133 17.9098 31.881 18.5198 30.6336C18.7028 30.2615 19.2061 30.1029 19.1298 29.5966C19.0292 28.8951 19.0963 28.2637 19.7581 28.0716C20.0296 27.9831 20.2126 27.8977 20.4413 28.0716C20.6701 28.2454 20.5725 28.0319 20.786 27.5927C21.091 26.9827 21.4997 26.2721 22.1981 26.1226C22.5031 26.0525 22.555 25.6926 22.9088 25.4821C23.8817 24.9057 22.9972 25.6987 24.8791 24.1462C26.5413 22.7768 27.6759 22.6212 28.3378 22.3162C28.4659 22.2613 28.3896 22.1759 28.536 21.9289C28.8929 21.3189 28.6458 21.2487 29.2162 20.5594C29.8262 19.8213 29.9726 19.8152 30.7412 19.5834C30.9089 19.5346 30.8998 19.6475 30.912 19.3699C30.9455 18.6593 30.2532 18.8819 29.6432 17.0245C29.4909 16.4925 29.424 15.9396 29.4449 15.3866C29.4876 15.1975 29.3748 15.2707 29.0484 14.801C28.7337 14.3279 28.5995 13.7575 28.6702 13.1937C28.7617 12.8277 28.9081 12.7819 29.2467 12.5837C28.6367 10.7933 28.9173 10.8574 28.6702 10.8726C28.1029 10.9062 28.2249 10.3938 27.9809 10.5463C27.3709 10.9306 26.6084 10.4731 26.7609 9.59164C26.8219 9.24089 27.1086 9.30189 26.9988 9.18904C26.5047 8.68579 27.0293 8.36249 26.7823 8.27404C25.8673 7.92329 26.0259 6.37389 26.8768 6.21224C27.1513 6.16039 26.6999 5.71204 27.2367 5.08069C27.6058 4.64149 28.1243 4.73299 28.533 4.86109C28.5574 4.38529 28.6611 4.00709 29.1094 3.79054C29.4846 3.60754 29.7194 3.86984 29.695 3.68074C29.5852 2.08254 31.3512 1.38714 32.1686 2.43939C32.3089 2.61629 32.2265 1.91784 33.2117 1.64639C34.0809 1.40544 34.2548 2.31129 34.3951 2.21369C34.5215 2.1358 34.6704 2.10249 34.818 2.11908C34.9656 2.13566 35.1034 2.20118 35.2094 2.30519C35.4138 2.54004 35.426 2.64374 35.4961 2.55224C36.3623 1.43594 37.8172 1.73179 37.8599 3.03109C37.8599 3.07989 37.8599 3.24459 37.9361 3.18054C38.5675 2.70779 39.4367 3.60449 39.0463 4.70554C38.9945 4.86414 38.8115 5.01054 39.025 5.01054C39.3524 5.00851 39.6697 5.12359 39.9197 5.335C40.1698 5.54642 40.3359 5.84024 40.3883 6.16344C40.5378 6.91374 40.1687 7.10284 40.3578 7.17604C43.847 8.51499 47.1136 8.83829 50.2551 9.64654C52.3077 10.1742 52.8689 10.4975 53.1556 10.6988C53.3569 10.879 53.6175 10.9788 53.8876 10.9794C55.2022 11.1075 56.2209 11.3789 56.4191 12.6965C56.5808 13.7701 56.2697 13.8403 56.4466 14.1056ZM56.0775 13.1144C56.1141 11.7968 55.0832 11.4857 53.7961 11.3881C53.025 11.3117 52.2469 11.4252 51.5297 11.7187C50.8125 12.0122 50.1781 12.4767 49.6817 13.0717C48.6355 14.3954 48.9375 13.7122 47.9218 15.0847C47.7175 15.3653 47.8486 15.5879 48.0469 16.021C48.2451 16.4541 49.2181 15.8746 49.4834 15.8929C49.5078 15.8937 49.5316 15.9004 49.5528 15.9122C49.5741 15.9241 49.5922 15.9409 49.6056 15.9612C49.619 15.9815 49.6274 16.0047 49.63 16.0289C49.6327 16.0531 49.6295 16.0776 49.6207 16.1003C49.5719 16.2315 49.4804 16.2406 49.395 16.265C48.6447 16.4877 48.3305 16.5914 48.0225 16.4907C47.7144 16.3901 47.3301 17.424 45.7411 18.1286C42.3861 19.6139 43.8226 19.2449 41.7913 20.2636C41.2667 20.5259 41.2637 20.41 40.1016 20.3795C39.9064 20.3795 40.1016 20.5503 40.1413 20.7546C40.1809 20.959 40.1931 21.1084 40.2328 21.2823C40.2543 21.4148 40.2449 21.5505 40.2053 21.6788C40.0315 22.4748 39.4276 23.0269 38.6803 23.6704C38.235 24.0639 38.4638 24.3109 37.9453 24.9484C37.8172 25.1039 37.6647 25.2534 37.5427 25.3967C37.0821 26.0067 36.6795 24.3872 36.5819 24.2682C36.1885 23.7985 36.0756 23.4142 35.6669 22.9628C35.4626 22.7402 35.3619 22.9811 35.1088 23.1001C34.7092 23.3014 34.6879 24.3902 34.4042 24.3201C34.1206 24.2499 34.5232 23.1001 34.819 22.8652C35.9475 21.9777 36.0848 23.0238 36.7405 23.8473C36.8944 24.0107 37.0073 24.2083 37.0699 24.4238C37.1035 24.5854 37.2895 25.1466 37.3993 25.0338C37.6997 24.7665 37.9203 24.4213 38.0368 24.0364C38.3418 22.9628 40.3731 22.4535 39.7448 20.7516C39.5343 20.1812 39.3544 20.1416 39.2171 19.6383C39.1835 19.4994 39.1186 19.3699 39.0273 19.2598C38.9361 19.1498 38.8209 19.062 38.6906 19.0031C38.5603 18.9443 38.4183 18.916 38.2754 18.9204C38.1325 18.9247 37.9925 18.9617 37.866 19.0283C38.0368 19.2144 38.1923 19.3333 38.0063 19.6383C37.6006 20.3215 37.4512 20.4618 36.5301 21.3646C35.7432 22.1332 35.6608 21.6696 34.7946 22.3986C33.9284 23.1275 33.6143 26.4581 33.6021 27.5836C33.6252 28.2236 33.6822 28.862 33.7729 29.4959C33.7973 29.8589 33.8003 30.5878 33.8247 30.9172C33.9864 33.1163 33.9376 32.2531 33.8095 34.3149C33.6966 36.0992 34.267 36.2517 34.2853 37.6059C34.2853 38.466 34.0931 39.0607 34.2182 41.6075C34.2182 41.7661 34.2609 41.7112 34.5415 41.7325C37.3505 41.9399 38.2594 41.7325 38.2686 42.1229C38.2686 42.9556 38.8328 42.2602 34.2517 45.5237C33.9955 45.7067 33.8308 45.6396 33.8888 47.9942C33.8888 48.2992 33.9711 49.4185 33.9864 49.5436C34.0687 50.2329 33.8552 50.7636 34.0657 51.4224C35.0722 54.6615 34.453 53.3713 35.1545 55.7168C35.2094 55.8937 35.2826 55.8632 35.6151 55.8662C36.0817 55.8662 35.9018 55.8662 36.5514 55.7198C38.8298 55.2471 37.7318 55.4148 39.2964 55.5582C43.0449 55.8632 42.5264 55 44.1459 54.7255C45.6404 54.4754 45.3415 54.6462 46.7781 53.6977C46.8879 53.6245 46.9458 53.7221 46.6439 52.6363C45.8295 49.7327 45.8661 50.7514 45.5459 48.5249C45.2012 46.1215 44.8383 47.2622 44.5089 42.3029C44.4387 41.2689 44.8596 40.3783 45.2561 37.5998C45.5659 35.0894 45.7176 32.5621 45.7106 30.0327C44.9847 30.6122 41.773 26.33 41.526 23.7223C41.5211 23.6987 41.523 23.6743 41.5314 23.6517C41.5398 23.6292 41.5544 23.6094 41.5735 23.5948C41.5926 23.5801 41.6154 23.5712 41.6394 23.5689C41.6634 23.5667 41.6875 23.5712 41.709 23.582C41.9774 23.704 42.3678 27.242 45.2897 29.6179C45.8204 30.048 46.2565 28.6419 47.6809 27.0895C49.1784 25.4577 50.0599 23.765 50.8407 22.9537C52.5212 21.203 55.6963 18.7843 55.9372 16.6005C56.108 15.0511 51.6367 15.9661 50.5174 15.8746C50.3588 15.8746 50.2551 15.6794 50.5174 15.6398C51.8777 15.4293 54.8331 14.9505 55.9159 15.6733C56.1721 15.8472 57.0261 14.4716 55.3577 13.8433C53.3569 13.0778 50.6912 14.7583 49.7457 15.2829C49.6146 15.3531 49.5749 15.2829 49.5597 15.2402C49.5504 15.2077 49.5501 15.1733 49.5587 15.1406C49.5672 15.1078 49.5844 15.078 49.6085 15.0542C50.1514 14.493 51.4385 13.9592 51.8868 13.7823C53.7168 13.0625 54.3268 13.1418 55.2815 13.3828C56.2361 13.6237 56.0531 13.9958 56.0775 13.1144ZM52.7805 11.0099C53.1709 10.9489 51.6184 10.3999 51.2555 10.2626C48.6935 9.42084 45.4971 9.18294 41.7486 7.94769C39.025 7.05404 40.0193 7.15164 39.4367 7.78909C38.903 8.37469 38.6559 7.86229 38.3753 8.87794C38.3235 9.06704 38.0063 8.83829 42.5874 11.5284C45.6618 13.3309 44.762 13.1418 47.6107 14.679C47.8059 14.7858 47.8517 14.3984 48.3915 13.9623C49.6878 12.8978 49.6908 11.507 52.7805 11.0099ZM47.5619 16.3474C47.7297 16.1918 47.748 16.2955 47.6382 16.0241C47.5048 15.7507 47.4631 15.4416 47.5192 15.1426C47.5589 14.9688 47.3118 15.0877 45.4025 13.8006C45.0975 13.5902 39.4123 9.75939 39.4855 10.1406C39.5176 10.6062 39.4961 11.0739 39.4215 11.5345C39.3483 12.0255 39.2781 12.0865 39.4215 12.1109C40.6415 12.3244 40.2755 14.1331 40.0315 14.9322C40.0007 15.1072 39.9249 15.2713 39.8115 15.4081C39.6981 15.545 39.5511 15.6501 39.3849 15.713C39.1845 15.7621 38.9752 15.7621 38.7749 15.713C38.659 15.713 38.6102 15.8167 38.598 15.9143C38.3113 18.0493 37.4329 18.7477 38.1313 18.6257C38.2952 18.5912 38.4646 18.5927 38.6279 18.63C38.7911 18.6674 38.9443 18.7399 39.0768 18.8423C39.5038 19.1259 39.635 20.0318 39.8942 20.0257C40.6659 20.0074 41.2393 20.1141 41.529 19.9799C42.9351 19.3333 43.1791 18.9399 43.908 18.5586C45.9942 17.4637 45.5367 18.2445 47.5619 16.3474ZM39.9369 7.01439C40.2419 7.20044 40.3609 5.04714 38.7566 5.34604C37.7867 5.52599 38.8908 4.82144 38.8389 4.16874C38.8494 4.01422 38.8192 3.85965 38.7512 3.72048C38.6832 3.58132 38.5799 3.46244 38.4516 3.37574C38.0398 3.14089 37.7196 4.02234 37.5549 3.68074C37.4451 3.44589 37.7989 2.90604 37.2682 2.38144C36.9083 2.02764 36.5484 2.14659 36.1122 2.40584C35.5327 2.74744 35.7157 3.10734 35.4656 3.11039C35.2155 3.11344 35.0752 1.94529 34.4073 2.61934C34.1389 2.89079 34.2212 2.41499 33.8644 2.07949C33.5075 1.74399 33.3032 1.88429 32.9067 2.07949C32.5102 2.27469 32.4919 2.63764 32.3302 2.95179C32.2509 3.09819 32.135 3.00974 32.071 2.84199C31.5677 1.53964 29.5761 2.50954 30.0275 3.86984C30.2135 4.44019 29.6157 3.93084 29.2924 4.03454C29.1042 4.11964 28.9557 4.27357 28.8775 4.46472C28.7992 4.65587 28.7971 4.86973 28.8715 5.06239C28.9234 5.21794 28.9844 5.36739 28.8258 5.41314C28.6672 5.45889 28.6336 5.36434 28.5635 5.29114C27.8803 4.60184 26.9043 5.43144 27.3435 6.28849C27.4106 6.41964 27.3435 6.52334 27.1849 6.50504C27.095 6.46987 26.9962 6.46483 26.9032 6.49068C26.8103 6.51653 26.7282 6.57188 26.6694 6.64839C26.1448 7.23399 26.5596 8.05139 27.069 8.01784C27.1696 8.01784 27.2306 8.01784 27.2855 8.13679C27.3404 8.25574 27.2367 8.30454 27.194 8.35029C27.1433 8.39717 27.1054 8.45623 27.0839 8.52186C27.0623 8.5875 27.0579 8.65755 27.0711 8.72536C27.0842 8.79317 27.1144 8.85651 27.1589 8.90936C27.2034 8.96222 27.2606 9.00285 27.3252 9.02739C27.5692 9.14329 27.6302 9.15854 27.2672 9.39034C26.7335 9.72279 27.2154 10.5646 27.7064 10.3389C28.0267 10.1894 28.0419 9.98814 28.1395 9.90579C28.155 9.88944 28.1749 9.87783 28.1967 9.87231C28.2186 9.86679 28.2415 9.86759 28.263 9.87462C28.2844 9.88165 28.3033 9.89462 28.3177 9.91202C28.332 9.92942 28.3411 9.95053 28.3439 9.97289C28.3439 9.97289 28.2981 10.9458 28.9539 10.4029C29.8689 9.63434 28.9752 8.83829 29.2589 8.64614C29.4419 8.52109 29.6249 8.99079 29.9421 9.05484C30.1053 9.08871 30.2753 9.06226 30.4206 8.98038C30.5658 8.89851 30.6765 8.76676 30.732 8.60954C30.793 8.43569 30.8449 8.34419 30.9821 8.46924C31.4671 8.91759 31.5494 8.26489 31.7782 8.42044C31.8727 8.48449 31.8422 8.60649 31.7782 8.70104C31.747 8.7694 31.7302 8.84343 31.7288 8.91854C31.7274 8.99366 31.7414 9.06826 31.77 9.13774C31.7986 9.20721 31.8411 9.27008 31.895 9.32245C31.9489 9.37482 32.0129 9.41557 32.0832 9.44219C32.8884 9.68924 32.5742 8.89014 32.7938 8.83219C32.9311 8.80169 32.9341 9.07009 33.0988 9.11279C33.1747 9.14173 33.2571 9.14922 33.3369 9.13444C33.4168 9.11966 33.491 9.08317 33.5515 9.02898C33.612 8.9748 33.6564 8.905 33.6799 8.82725C33.7033 8.74949 33.7049 8.66679 33.6844 8.58819C33.66 8.40214 33.8766 8.45399 33.9894 8.56989C34.0938 8.67891 34.2331 8.74781 34.383 8.76453C34.533 8.78126 34.6841 8.74475 34.8099 8.66139C35.0966 8.43569 35.002 8.81999 35.1728 8.89319C35.5754 9.06094 35.7096 8.85354 36.036 8.89319C36.3623 8.93284 36.7161 9.38119 37.2346 8.79254C37.3109 8.71019 36.9296 8.52719 36.8015 8.52109C36.2329 8.51202 35.6667 8.44457 35.1118 8.31979C34.3036 8.12154 32.7847 7.04794 32.6718 7.07539C32.3336 7.20536 31.9757 7.27653 31.6135 7.28584C31.0035 7.26449 31.342 7.28584 30.6985 7.82264C30.604 7.93275 30.484 8.01809 30.349 8.07124C30.2139 8.1244 30.068 8.14376 29.9238 8.12764C29.4693 8.09409 29.4205 7.82264 29.5273 7.65184C29.875 7.12724 29.9695 7.18519 30.1556 6.83444C30.5765 6.03229 31.5128 6.08719 31.8666 5.78219C31.7629 5.69069 31.7538 5.65104 31.6135 5.65409C31.1834 5.65409 31.0553 5.65409 30.9364 5.80049C30.7506 6.08453 30.4869 6.30901 30.1769 6.44709C29.8414 6.56604 29.3321 6.31899 29.5944 5.96824C29.7608 5.80875 29.8854 5.61079 29.9573 5.39179C30.0885 5.01969 30.6832 4.58354 31.034 4.40054C31.1468 4.33649 31.3024 4.33344 31.3146 4.19314C31.3268 4.05284 31.4854 3.97659 31.5586 3.92474C31.9642 3.61974 32.193 3.92474 32.3119 3.74174C32.4486 3.59893 32.6198 3.49387 32.8091 3.43674C32.9066 3.39798 33.0111 3.37961 33.116 3.38276C33.2209 3.3859 33.324 3.4105 33.4191 3.45504C33.6387 3.54044 34.0291 3.71734 34.8312 4.03149C36.4294 4.64149 38.0429 6.21529 38.2716 6.08109C38.4177 6.00413 38.5805 5.96439 38.7455 5.9654C38.9106 5.9664 39.0729 6.00812 39.218 6.08686C39.3631 6.16559 39.4865 6.27891 39.5774 6.41676C39.6682 6.55462 39.7236 6.71275 39.7387 6.87714C39.7539 6.99609 39.8332 6.95339 39.9369 7.01439ZM39.516 15.2311C39.879 14.8376 40.001 14.1239 39.9674 13.5719C39.9674 13.3553 40.0101 12.8216 39.6075 12.4952C39.4882 12.4238 39.3497 12.391 39.211 12.4014C39.0723 12.4118 38.9402 12.4648 38.8328 12.5532C38.7029 12.678 38.6001 12.8283 38.5308 12.9947C38.4616 13.161 38.4273 13.3399 38.4302 13.52C38.4302 13.6542 38.2533 13.7915 38.1984 13.6542C38.1435 13.517 38.1649 13.456 38.2228 13.0442C38.2442 12.8948 38.171 12.9893 37.7928 13.1205C37.0547 13.3797 38.0612 14.7705 35.8408 15.1121C35.3564 15.1556 34.8683 15.1206 34.3951 15.0084C33.2757 14.7309 33.5746 13.3157 33.1446 13.2028C32.8396 13.1174 32.501 13.3035 32.5529 13.4895C32.628 13.6667 32.653 13.8612 32.625 14.0516C32.597 14.2421 32.5172 14.4211 32.3943 14.5692C32.0252 14.9444 31.7446 15.228 32.0252 15.6459C32.114 15.7701 32.2352 15.8677 32.3755 15.9279C32.5159 15.9881 32.67 16.0087 32.8213 15.9875C33.4526 15.9875 33.4618 15.4781 33.7363 15.713C34.0108 15.9478 34.4805 15.8106 34.2853 15.4354C34.209 15.289 34.1297 15.2585 34.209 15.1548C34.389 14.8956 34.9227 15.5879 34.4988 15.9844C34.1663 16.2894 33.8461 16.1308 33.5838 16.0271C32.8609 16.7073 31.4762 16.2589 31.5921 15.2768C31.6135 15.0938 30.8967 15.6642 29.9238 15.4232C29.7591 15.3836 29.7438 15.3958 29.7438 15.5574C29.7934 16.2945 29.972 17.0171 30.2715 17.6924C30.6527 18.4305 31.4915 19.0954 31.7141 19.4736C31.8117 19.6536 31.9032 19.3852 32.2387 19.5468C32.3028 19.5773 32.3668 19.6261 32.4004 19.5804C32.4339 19.5346 32.4736 19.4218 32.6505 19.3608C32.7271 19.3343 32.8093 19.3283 32.889 19.3432C32.9687 19.3582 33.0431 19.3937 33.1049 19.4462C33.172 19.4919 33.1995 19.4675 33.2849 19.376C33.3392 19.3045 33.4117 19.249 33.4949 19.2151C33.5781 19.1813 33.6688 19.1705 33.7576 19.1839C33.9162 19.2113 33.9894 19.3577 34.0626 19.4614C34.087 19.5041 34.0962 19.5834 34.1724 19.4614C34.2252 19.3628 34.3017 19.279 34.3951 19.2174C34.4479 19.1919 34.5054 19.1771 34.564 19.1739C34.6227 19.1708 34.6814 19.1794 34.7367 19.1991C34.9532 19.2876 34.941 19.5041 34.9807 19.6048C34.9807 19.6383 35.0539 19.5712 35.1911 19.6048C35.6334 19.7115 35.1911 20.0165 36.3471 19.3699C38.8298 17.97 37.8324 15.0145 38.6956 15.3653C38.8283 15.4353 38.9802 15.46 39.1283 15.4358C39.2764 15.4116 39.4125 15.3397 39.516 15.2311ZM39.0982 11.7937C39.2157 11.198 39.2353 10.5871 39.1561 9.98509C39.1226 9.78379 39.0433 9.72584 38.8999 9.79294C38.8612 9.81474 38.8156 9.82088 38.7725 9.8101C38.7294 9.79932 38.692 9.77245 38.6681 9.73499C38.6254 9.65264 38.6681 9.62214 38.6346 9.55504C38.601 9.48794 38.4455 9.42084 38.4028 9.42694C38.3082 9.44219 37.988 9.73194 37.4298 9.21954C37.2377 9.04874 37.2651 9.41474 36.6368 9.40864C36.3074 9.40864 36.0848 9.12499 35.8377 9.23174C35.674 9.28074 35.5015 9.2933 35.3323 9.26854C35.1632 9.24377 35.0015 9.18229 34.8587 9.08839C34.694 8.99384 34.5018 9.24394 34.0779 8.99994C33.9193 8.91149 33.9894 8.99994 33.8827 9.13414C33.7871 9.25646 33.6584 9.34878 33.5119 9.40014C33.3654 9.4515 33.2072 9.45974 33.0561 9.42389C32.9402 9.40254 32.9463 9.40254 32.8762 9.50319C32.4492 10.1345 31.3908 9.68009 31.4701 8.97859C31.4884 8.81084 31.3542 9.03044 31.0523 8.87489C30.9699 8.83219 30.9394 8.85354 30.8998 8.92369C30.7993 9.09321 30.6467 9.22576 30.4648 9.30159C30.2829 9.37743 30.0814 9.39251 29.8902 9.34459C29.2802 9.17989 30.1403 9.44219 29.2192 10.592C29.1887 10.6286 29.0637 10.6164 29.1155 10.8391C29.6005 12.8887 29.4205 12.4129 30.305 12.2726C32.44 11.934 32.2235 13.0808 32.44 12.9405C33.0195 12.5532 33.2971 12.9863 33.3947 12.7179C33.84 11.4979 37.0943 11.5192 37.3993 12.5928C37.4329 12.7179 37.3993 12.6569 38.2076 12.5105C38.6224 12.4342 38.537 12.3671 38.7291 12.2421C38.8115 12.1872 38.8115 12.1872 38.7474 12.1079C38.7105 12.0693 38.6899 12.0179 38.6899 11.9645C38.6899 11.9111 38.7105 11.8598 38.7474 11.8212C38.9457 11.6534 39.0402 12.056 39.0982 11.7937ZM38.8969 7.79519C39.5648 7.52679 39.6807 6.52029 38.9945 6.29764C38.8596 6.26331 38.7186 6.2602 38.5824 6.28856C38.4461 6.31692 38.3181 6.37599 38.2081 6.46128C38.0981 6.54657 38.009 6.65584 37.9476 6.78075C37.8862 6.90567 37.8541 7.04295 37.8538 7.18214C37.8355 6.93509 37.8019 8.23439 38.8969 7.79519ZM38.3174 8.25879C38.3936 8.11849 38.11 8.18559 37.8873 7.95379C37.7775 7.83179 37.3597 8.82304 37.5823 9.00299C38.1801 9.45439 37.866 9.09144 38.3174 8.25879ZM38.0307 42.5225C38.0322 42.4118 38.021 42.3012 37.9971 42.1931C37.9971 42.1687 37.8995 42.2114 37.8324 42.2571C37.5854 42.4218 36.8168 42.919 34.9532 44.2305C31.3725 46.7589 31.7416 46.1794 31.8788 46.7223C31.8788 46.7711 37.6281 42.8305 37.8751 42.6689C37.9422 42.6262 38.0276 42.5743 38.0307 42.5225ZM37.9026 6.36779C37.9941 6.26409 38.1008 6.38609 35.9262 4.86719C35.5381 4.60581 35.115 4.40045 34.6696 4.25719C33.9467 3.98269 33.7241 3.76309 33.2666 3.64719C33.1329 3.61859 32.9941 3.62399 32.863 3.66288C32.732 3.70178 32.6127 3.77294 32.5163 3.86984C33.0866 4.15654 33.3672 4.11384 33.6021 4.28159C33.7637 4.39444 33.6448 4.54694 33.4801 4.48594C33.1019 4.34259 32.8701 4.29989 32.5468 4.18094C32.3939 4.11079 32.2315 4.06351 32.0649 4.04064C31.9531 4.01712 31.8366 4.0333 31.7355 4.08639C31.6013 4.15959 31.5006 4.26024 31.5799 4.28159C31.8694 4.36329 32.1527 4.4652 32.4278 4.58659C33.2696 4.94344 32.8975 5.08374 32.5956 4.96479C31.5921 4.57134 31.5982 4.52864 31.4518 4.56829C31.2766 4.59406 31.1085 4.65529 30.9577 4.74824C29.9451 5.52599 30.5063 5.14474 29.8353 6.06279C29.7499 6.17869 30.0244 6.24274 30.183 6.12684C30.9913 5.54429 30.6985 5.35214 31.403 5.35214C32.1594 5.29419 32.2967 5.75169 32.0466 5.98044C31.6135 6.37694 31.4183 6.09024 30.729 6.55384C30.3081 6.83444 30.4941 6.88934 30.0092 7.39564C29.9259 7.48811 29.8476 7.58482 29.7743 7.68539C29.7164 7.76469 29.7133 7.85314 29.8963 7.87754C30.3386 7.93549 30.5063 7.67319 30.912 7.20044C31.217 6.86189 31.5403 7.09674 32.1838 6.89544C32.8274 6.69414 32.6383 6.72159 34.3188 7.66709C35.2125 8.16729 35.6639 8.12154 36.7771 8.22219C37.2834 8.26794 37.2499 8.48449 37.3292 8.31674C37.5976 7.74944 37.6799 7.68844 37.5976 7.52679C37.5444 7.32369 37.5445 7.1103 37.598 6.90726C37.6514 6.70422 37.7563 6.51841 37.9026 6.36779ZM35.8133 21.4714C36.1915 21.2609 37.6189 19.8671 37.5305 19.6871C37.4743 19.5002 37.4639 19.3025 37.5 19.1107C37.5 18.8453 37.5915 18.8057 37.2133 19.1534C36.4172 19.8884 35.5144 19.983 35.5266 20.2605C35.5266 20.3154 35.487 20.7241 35.1332 20.7699C35.096 20.7678 35.0594 20.7794 35.0302 20.8024C35.001 20.8254 34.9812 20.8583 34.9746 20.8949C34.9483 21.0082 34.8804 21.1074 34.7843 21.1729C34.6883 21.2385 34.5711 21.2655 34.4561 21.2487C34.1511 21.1938 34.1511 21.0627 34.023 21.1877C33.9601 21.2552 33.8827 21.3074 33.7967 21.3407C33.7107 21.3739 33.6183 21.3872 33.5264 21.3796C33.4345 21.3719 33.3456 21.3436 33.2662 21.2966C33.1869 21.2496 33.1192 21.1853 33.0683 21.1084C32.9616 20.959 32.8914 21.2518 32.5437 21.2152C31.9337 21.1938 32.1472 20.6052 31.9642 20.6052C31.8338 20.5913 31.7141 20.5265 31.6313 20.4248C31.5485 20.3231 31.5092 20.1928 31.522 20.0623C31.5372 19.9037 31.6013 19.8122 31.5616 19.7207C31.4811 19.5615 31.3654 19.4227 31.2231 19.315C31.2231 19.376 31.1682 20.901 31.1682 20.9651C31.1682 21.752 30.7595 21.694 32.2967 21.9167C33.2452 22.0509 33.1659 22.5694 32.9402 23.4844C32.6352 24.741 32.8609 24.7684 33.4557 25.3662C33.5899 25.5004 33.5624 24.5671 33.7088 24.0822C34.0779 22.8896 33.9437 22.3437 35.3345 21.6422C35.4473 21.5842 35.7005 21.5385 35.8133 21.4714ZM37.0333 14.0904C37.1437 13.8418 37.1943 13.5707 37.1811 13.299C37.1678 13.0273 37.0911 12.7625 36.9571 12.5257C36.6521 12.0835 35.4687 12.056 34.6665 12.2207C33.7759 12.3946 33.2178 12.7545 33.9528 14.3222C34.2822 15.0267 36.6734 15.0572 37.0272 14.0904H37.0333ZM35.2613 20.2483C35.3223 20.0623 35.2887 19.8091 34.9258 19.8518C34.7824 19.8701 34.7824 19.8122 34.7641 19.6505C34.7367 19.3455 34.5262 19.3272 34.3432 19.62C34.2426 19.7786 34.2395 19.8457 34.1236 19.8335C34.0077 19.8213 33.9955 19.6444 33.8461 19.4889C33.6966 19.3333 33.4709 19.4614 33.416 19.6627C33.4063 19.749 33.3782 19.8322 33.3337 19.9067C33.3001 19.9555 33.2361 19.9433 33.1964 19.8762C33.1363 19.7719 33.0515 19.6839 32.9494 19.62C32.878 19.5846 32.7956 19.5785 32.7198 19.603C32.644 19.6275 32.5808 19.6807 32.5437 19.7512C32.3424 20.0562 32.135 19.7176 31.9825 19.7817C31.9233 19.8025 31.8737 19.844 31.8428 19.8986C31.8119 19.9532 31.8018 20.0172 31.8145 20.0786C31.8271 20.1401 31.8617 20.1948 31.9116 20.2328C31.9616 20.2707 32.0236 20.2893 32.0862 20.2849C32.3638 20.3215 32.2814 20.4222 32.3272 20.6906C32.3882 21.02 32.8121 20.9376 32.9036 20.7272C32.9677 20.5838 33.1354 20.5655 33.1903 20.7424C33.2727 21.0047 33.4069 21.1298 33.6539 21.0474C33.9589 20.9376 33.8339 20.6204 34.026 20.6143C34.059 20.612 34.0918 20.6198 34.1202 20.6367C34.1485 20.6536 34.171 20.6788 34.1846 20.7089C34.3219 20.9956 34.4896 20.9895 34.6086 20.9163C34.8221 20.7638 34.6757 20.5533 34.7062 20.4405C34.7367 20.3276 34.819 20.3917 34.9166 20.4405C34.951 20.4576 34.9891 20.466 35.0276 20.4649C35.066 20.4638 35.1035 20.4533 35.137 20.4344C35.1704 20.4154 35.1986 20.3885 35.2192 20.3561C35.2399 20.3237 35.2522 20.2867 35.2552 20.2483H35.2613ZM34.7092 42.6994C35.3833 42.7573 35.3558 42.8763 35.0142 43.0806C34.7702 43.2301 32.5132 44.8466 32.2509 45.054C31.8788 45.359 31.8819 45.2949 31.4671 45.3102C31.3695 45.3102 31.4091 45.3102 31.6379 46.033C31.6379 46.0818 37.3475 42.2663 37.4817 42.1443C36.7039 42.0406 31.9917 41.9491 30.9913 41.9155C30.2623 41.8911 30.2074 41.8637 30.2501 41.9765C30.3935 42.373 30.3538 42.5042 30.729 42.5042C31.3298 42.4981 34.4957 42.675 34.7092 42.6994ZM32.0252 41.6776C34.1846 41.7478 33.8827 41.946 33.8552 41.0005C33.721 37.0965 34.2792 38.4721 33.6082 36.0412C33.1568 34.4095 33.8186 34.1777 33.4038 29.3648C33.1598 26.5222 33.5807 25.8512 33.0561 25.4638C32.2448 24.8538 32.4461 23.524 32.2723 23.0482C31.4701 23.4203 31.7355 25.4882 31.3573 25.9701C30.9791 26.452 30.8174 25.5004 30.2593 25.0246C29.9311 24.724 29.7267 24.3119 29.6859 23.8687C29.509 22.9537 28.8837 23.1001 28.594 22.5907C28.536 22.487 28.4994 22.5907 28.1731 22.731C24.3209 24.2743 25.059 25.0246 23.1131 25.7414C22.7563 25.8756 22.7898 26.3026 22.2469 26.4856C21.9084 26.5984 21.6644 26.7723 21.3319 27.3426C20.9995 27.913 21.0269 27.9282 21.1489 27.9343C21.4783 27.9557 21.5607 28.2393 21.6522 28.4498C21.6857 28.526 21.8321 28.5565 21.8413 28.4132C21.9206 27.3274 22.8264 26.6442 23.839 27.7605C24.4124 28.3918 24.1928 28.7243 24.2904 29.3739C24.4124 30.1547 23.6499 31.3534 22.921 31.3686C21.7925 31.393 21.8108 31.21 21.7528 31.3686C21.7528 31.3686 21.5271 31.9786 21.5149 32.0091C21.3434 32.2865 21.0831 32.4977 20.7763 32.6084C20.4696 32.7192 20.1344 32.723 19.8252 32.6191C19.4653 32.4544 19.3159 32.8326 18.9743 33.3328C18.956 33.3633 18.9285 33.3847 19.0078 33.3877C21.3777 33.4609 23.5828 33.6409 24.6534 33.6439C24.8821 33.6439 24.5832 33.0339 24.7723 31.6065C24.864 31.0011 24.8997 30.3885 24.8791 29.7765C24.8791 29.4959 25.0804 29.5905 25.0956 29.6881C25.3274 31.0697 24.8974 31.3625 25.0956 33.5738C25.117 33.7995 25.9466 33.6439 26.9592 34.0069C28.0938 34.4125 28.1273 35.6569 30.1556 41.458C30.1952 41.6471 30.0824 41.6105 32.0252 41.6776ZM33.5502 46.2526C33.6173 45.8409 33.6448 46.0269 32.7908 46.5729C32.0923 47.0182 31.9185 47.2408 31.644 47.2988C31.5769 47.2988 28.536 47.2835 28.4293 47.2988C28.3225 47.314 28.2859 47.3323 28.2829 47.3994C28.2829 47.5946 28.0419 47.6678 27.9138 47.7837C27.5478 48.1162 26.9134 48.1345 26.1784 48.3937C25.2085 48.7414 24.9828 48.3937 24.8242 48.5889C24.5192 48.9854 24.3301 48.9793 23.9458 51.2821C23.595 53.3805 23.1802 54.3321 23.4334 54.3809C25.7117 54.9146 25.4525 54.6859 26.1509 54.8262C27.8986 55.1861 27.7522 55.5368 29.6615 55.5368C30.7215 55.4895 31.7833 55.5693 32.8243 55.7747C32.9677 55.7987 33.1146 55.7904 33.2544 55.7503C33.3215 55.7351 33.3398 55.6893 33.3428 55.6161C33.3977 54.8689 33.5319 54.3961 33.4343 53.8898C33.3689 53.3293 33.3936 52.762 33.5075 52.2093C33.8552 49.6229 33.3367 47.619 33.5502 46.2557V46.2526ZM31.8971 44.9411C32.0191 44.8679 34.5018 43.1111 34.6635 42.9159C34.3005 42.8519 32.1137 42.8031 30.8052 42.739C30.5002 42.739 30.5002 42.7085 30.7168 43.4283C30.8508 43.9364 31.0221 44.4338 31.2292 44.9167C31.3115 45.0662 31.7019 45.0631 31.9063 44.9442L31.8971 44.9411ZM32.6627 23.1397C32.736 22.9591 32.7582 22.7618 32.7267 22.5694C32.6657 22.3071 32.2662 22.304 31.4396 22.1546C30.732 22.0265 30.854 21.6849 30.4667 21.447C30.2555 21.3434 30.0868 21.1696 29.9895 20.9555C29.8921 20.7413 29.8721 20.5 29.9329 20.2727C29.7729 20.4017 29.6276 20.548 29.4998 20.7089C28.8898 21.4653 29.1613 21.6025 28.8075 22.1241C28.7495 22.2125 28.96 22.5206 29.143 22.6151C29.501 22.7701 29.7829 23.0608 29.9268 23.4234C30.4148 25.107 30.1159 24.0151 31.0919 25.4943C31.1712 25.6133 31.1224 25.4943 31.3786 23.9907C31.5555 22.9415 32.4705 22.0936 32.6718 23.1428L32.6627 23.1397ZM32.1594 14.13C32.4309 12.4739 31.2902 12.2299 29.7011 12.724C29.8954 13.1939 29.9453 13.711 29.8445 14.2093C29.8079 14.4503 29.8445 14.7034 29.7743 14.9474C29.6645 15.4232 31.9886 15.2219 32.1686 14.1331L32.1594 14.13ZM31.3634 46.8809C31.5342 46.8809 31.5342 46.9053 31.2475 46.0879C26.6725 33.0431 28.6916 34.3668 23.5493 33.9489C21.7345 33.8025 13.6093 33.5799 11.8281 33.9154C10.7972 34.1106 10.4038 34.4583 10.9497 35.8674C12.1697 38.9753 13.1366 42.0345 13.5544 43.1325C13.7344 43.6144 14.1339 44.5416 14.1919 44.7185C14.6402 46.0544 14.7531 46.1093 14.9452 46.1337C15.5095 46.2069 17.7665 46.4051 17.7726 46.4082C20.7402 46.5546 19.5446 46.8657 20.0296 45.298C20.3956 44.1176 20.2919 43.9956 20.5786 43.6601C21.7162 42.3395 21.1215 43.163 21.9236 42.0924C22.5031 41.3177 23.4486 42.007 22.3079 43.5229C21.9785 43.9529 21.6491 44.3799 22.1127 44.6575C23.1162 45.2675 23.9854 44.5355 24.507 44.264C25.1719 43.9224 25.5745 43.8736 25.8337 43.4985C26.1477 43.1375 26.56 42.8758 27.0202 42.7451C27.5021 42.617 27.9779 42.9159 27.679 43.3155C27.1913 43.8979 26.6601 44.4423 26.0899 44.9442C25.5196 45.4932 25.1566 45.5755 24.8699 45.8592C25.852 46.4448 28.4537 44.264 29.5883 44.9442C29.6451 44.9776 29.6917 45.0258 29.7232 45.0836C29.7547 45.1415 29.7699 45.2069 29.7671 45.2727C29.7643 45.3385 29.7436 45.4023 29.7072 45.4573C29.6709 45.5123 29.6203 45.5563 29.5608 45.5847C29.2162 45.7402 29.1064 45.7067 29.1399 45.8897C29.1573 45.9515 29.1574 46.0169 29.1402 46.0787C29.123 46.1406 29.0891 46.1965 29.0423 46.2404C28.8945 46.355 28.7374 46.457 28.5726 46.5454C28.4116 46.6377 28.2656 46.7539 28.1395 46.8901L31.3634 46.8809ZM29.4663 14.8559C29.6493 14.4777 29.5944 12.7728 29.2833 12.9009C28.4781 13.2333 29.1704 14.6546 29.4754 14.859L29.4663 14.8559ZM29.0393 45.4444C29.3443 45.3285 29.512 45.2553 29.3046 45.1089C29.1818 45.0599 29.0482 45.0441 28.9173 45.0631C28.2158 45.1333 27.0141 45.8714 26.215 46.1337C24.9004 46.5637 24.3301 46.0178 24.4673 45.7372C24.7052 45.2553 25.4494 45.1912 26.2211 44.2915C26.6054 43.8401 26.9439 43.6998 27.3465 43.1752C27.5722 42.8702 26.5932 43.1538 26.0899 43.7364C25.5379 44.3708 25.1444 44.2213 24.3057 44.752C22.9698 45.5938 21.9358 45.0723 21.6674 44.6544C21.399 44.2366 21.6369 43.9163 21.9206 43.5503C22.802 42.4157 22.5306 41.8759 22.2744 42.1534C20.3407 44.2884 20.7097 44.0444 20.4901 44.9625C20.2705 45.8805 20.1424 46.0849 20.2248 46.5942C20.3254 47.2317 19.7063 48.2107 21.1703 48.836C22.3903 49.3606 22.5519 48.3175 23.5737 48.1589C24.5253 48.0064 25.1353 48.4852 26.9073 47.8783C27.1808 47.8035 27.4496 47.7128 27.7125 47.6068C28.0175 47.4574 28.1151 47.2866 27.9199 47.3018C26.8646 47.3354 27.3282 47.6068 26.0137 47.8386C25.6263 47.9088 25.5928 47.8844 25.5867 47.8112C25.5806 47.738 25.5867 47.6922 25.6446 47.6709C25.8146 47.6165 25.9877 47.5727 26.1631 47.5397C27.4685 47.3018 27.7125 46.7132 28.4964 46.3014C28.6824 46.2069 28.8441 46.155 28.8929 46.0178C28.9173 45.9507 28.8929 45.911 28.8166 45.911C28.5116 45.911 25.8246 47.6373 25.6172 47.2225C25.5592 47.1097 25.6172 47.0792 25.8947 46.9602C27.2184 46.3594 27.4929 46.0361 29.0393 45.4444ZM24.4002 48.5401C24.5466 48.3785 23.409 48.4212 23.2321 48.5981C22.8966 48.9397 22.3171 49.3392 21.9114 49.3606C21.3358 49.3821 20.7674 49.2267 20.2827 48.9153C20.0677 48.7711 19.8638 48.6111 19.6727 48.4364C19.2274 47.9057 19.0444 47.7075 19.0627 47.4238C19.1176 46.6796 19.3952 46.9816 17.6475 46.765C17.4462 46.7406 17.5469 46.765 17.7024 47.4025C17.7756 47.7075 17.9525 47.8539 18.3673 48.3693C18.712 48.7963 18.9407 48.7414 19.5172 49.3423C20.1729 50.0011 22.5092 50.6873 24.4002 48.5401ZM23.7475 30.2401C24.0861 29.685 23.9397 29.5417 23.9122 28.7151C23.8878 28.0167 22.6922 26.9797 22.2652 27.9069C21.9816 28.5169 22.2866 28.7426 21.8657 28.8219C21.4448 28.9012 21.396 28.7304 21.2282 28.3644C21.155 28.1966 20.9842 28.2698 20.7341 28.3644C20.2461 28.5535 20.3285 28.16 19.935 28.3034C18.959 28.6541 19.5446 29.5996 19.386 29.9473C19.1146 30.5573 19.0231 30.3682 18.834 30.6671C18.549 31.0728 18.3841 31.5506 18.3582 32.0457C18.2606 32.5032 17.9678 33.2657 17.4981 33.2261C17.0833 33.1895 17.2907 32.8936 17.0711 32.6161C16.9607 32.4466 16.9074 32.2463 16.9189 32.0444C16.9304 31.8425 17.0062 31.6495 17.1351 31.4937C17.5377 31.0697 16.8301 30.4963 16.7874 30.2188C16.7617 30.0658 16.7709 29.9091 16.8142 29.7602C16.8575 29.6112 16.9338 29.474 17.0375 29.3587C17.3036 29.1921 17.5432 28.9865 17.7482 28.7487C17.8427 28.645 17.8031 28.5901 17.7024 28.4833C17.6376 28.4206 17.5885 28.3434 17.5592 28.2581C17.53 28.1727 17.5214 28.0816 17.5342 27.9923C17.547 27.903 17.5809 27.818 17.6329 27.7443C17.6849 27.6706 17.7537 27.6103 17.8336 27.5683C17.9692 27.4964 18.0846 27.3915 18.1691 27.2633C18.5137 26.7723 18.3338 27.1139 18.9621 26.4124C19.1054 26.2507 18.9133 26.3361 19.0139 25.6834C19.1908 24.5336 20.4627 24.8325 20.9781 24.0364C21.3929 23.399 21.4814 23.2404 21.4448 22.9354C21.4436 22.7472 21.3999 22.5616 21.317 22.3926C21.234 22.2236 21.1141 22.0755 20.9659 21.9594C20.6274 21.6757 20.6975 21.1908 20.9659 21.0932C21.152 21.0261 21.4783 20.7882 21.7193 20.6662C22.1188 20.4801 22.5641 20.2087 22.5641 19.7878C22.5641 19.5316 22.4269 19.0405 22.128 19.0802C21.9694 19.0985 21.6735 19.1381 21.518 19.1381C21.152 19.1381 20.7341 18.9277 20.786 18.5586C20.8897 17.8266 21.396 17.9486 21.2343 17.4606C21.1578 17.2395 21.1493 17.0004 21.2099 16.7744C21.2254 16.6945 21.2696 16.623 21.3343 16.5735C21.3989 16.5241 21.4795 16.5 21.5607 16.506C22.0023 16.5776 22.455 16.5346 22.8752 16.3809C23.5218 16.0759 24.1959 15.5544 23.7445 14.5906C23.5188 14.1117 24.2904 13.3492 23.7018 12.8216C22.5275 11.7693 22.8295 13.0381 21.7406 12.5562C21.4173 12.4129 21.6125 12.0591 21.4875 11.5924C21.4745 11.5351 21.4473 11.4819 21.4084 11.4378C21.3696 11.3937 21.3202 11.3601 21.2649 11.3401C21.2097 11.32 21.1502 11.3142 21.0921 11.3231C21.034 11.3321 20.9791 11.3554 20.9324 11.3911C20.7525 11.4768 20.581 11.5789 20.42 11.6961C20.0448 12.2665 20.2004 12.2238 20.1516 12.3976C20.1536 12.4177 20.1516 12.4379 20.1458 12.4572C20.14 12.4764 20.1304 12.4944 20.1177 12.5099C20.1049 12.5255 20.0893 12.5384 20.0715 12.5479C20.0538 12.5575 20.0344 12.5634 20.0143 12.5654C19.9943 12.5674 19.9741 12.5654 19.9548 12.5596C19.9355 12.5538 19.9176 12.5443 19.902 12.5315C19.8864 12.5188 19.8735 12.5031 19.864 12.4853C19.8545 12.4676 19.8486 12.4482 19.8466 12.4281C19.5568 11.6626 19.2366 11.6473 18.7089 11.8181C18.4754 11.9195 18.2841 12.0984 18.1674 12.3247C18.0507 12.5509 18.0157 12.8105 18.0684 13.0595C18.2423 14.127 18.8035 14.2185 18.5107 15.3683C18.4009 15.8014 17.6292 15.1396 17.5957 15.9326C17.5316 17.6284 18.6723 17.5826 18.1874 18.6135C17.6658 19.7237 18.7242 20.0135 18.4405 20.6174C17.2632 23.1184 18.346 22.9567 18.8431 23.8107C18.8918 23.9175 18.9178 24.0331 18.9195 24.1504C18.9212 24.2676 18.8985 24.384 18.8529 24.4921C18.8073 24.6001 18.7398 24.6976 18.6547 24.7782C18.5695 24.8589 18.4686 24.921 18.3582 24.9606C17.5743 25.3144 18.2789 26.2995 17.6902 26.3422C17.4432 26.3605 16.4702 25.7749 16.5373 27.7361C16.5526 28.096 16.3879 28.0411 16.3513 27.9801C16.2229 27.5861 16.157 27.1745 16.1561 26.7601C16.1561 26.1318 16.1774 26.0342 15.8511 25.5675C15.6864 25.3357 15.5095 25.2625 15.0032 25.1039C14.4969 24.9453 14.4298 24.1706 14.6799 23.7467C14.75 23.6247 14.8964 23.2099 14.8232 23.097C14.564 22.6914 14.4969 22.7554 14.2651 22.7585C14.0333 22.7615 13.9601 22.5602 13.9387 22.2705C13.9204 21.6605 13.5544 21.3555 13.1457 21.3738C13.0573 21.3738 12.9932 21.4104 12.6425 21.6788C11.8952 22.2644 11.5902 21.4012 11.7031 21.1572C11.9196 20.6387 11.9623 20.654 11.9776 20.4466C12.0111 19.9342 12.0599 19.7725 12.3161 19.7634C12.5674 19.784 12.8203 19.755 13.0603 19.678C13.4568 19.4309 13.7984 19.0832 13.7435 18.6166C13.6795 18.0798 14.14 18.6166 14.6189 18.031C14.9104 17.629 15.1492 17.1913 15.3295 16.7286C15.5735 16.2345 14.4694 15.838 14.1858 15.8441C13.3409 15.8655 13.9784 14.5265 13.6063 14.1483C13.2342 13.7701 12.5693 13.6237 12.1545 13.9867C12.0538 14.0751 11.7183 14.2917 11.6787 14.5082C11.5902 14.9505 11.6939 14.9078 11.7061 15.3226C11.7121 15.3574 11.7074 15.3933 11.6925 15.4253C11.6776 15.4574 11.6533 15.4841 11.6228 15.502C11.5923 15.5199 11.5571 15.5281 11.5219 15.5254C11.4866 15.5228 11.453 15.5095 11.4255 15.4873C11.3794 15.4512 11.3225 15.4316 11.2639 15.4316C11.2053 15.4316 11.1484 15.4512 11.1022 15.4873C11.0595 15.5178 10.6874 15.6245 10.6722 15.9509C10.6722 16.1125 10.5044 16.14 10.2269 16.14C9.82123 16.14 9.87308 15.7862 9.84868 15.225C9.84868 14.8102 10.3458 14.31 10.6051 14.1819C11.3706 13.764 10.3885 12.4007 11.029 12.1445C11.4011 11.995 11.5384 11.6748 11.7031 11.2874C11.7549 11.1624 11.7336 11.0434 11.7031 10.6561C11.6726 10.2687 11.3981 10.1254 11.2334 10.2382C10.4953 10.7415 10.8948 10.1498 10.3794 9.82954C9.99203 9.58554 9.48878 9.30494 9.15938 9.40864C8.45788 9.63434 8.46703 9.61604 8.42128 9.69534C7.95768 10.5005 8.82388 10.8574 8.36638 11.1105C8.1118 11.2828 7.83043 11.4116 7.53373 11.4918C7.17688 11.5345 7.08233 11.3942 7.01523 11.565C6.82308 12.0438 6.74683 11.7785 6.74988 12.6325C6.74988 12.9009 7.35988 13.2089 7.53373 13.3645C7.56168 13.3858 7.58312 13.4146 7.59565 13.4474C7.60818 13.4803 7.61129 13.516 7.60463 13.5505C7.59798 13.5851 7.58182 13.6171 7.55798 13.6429C7.53414 13.6688 7.50356 13.6875 7.46968 13.6969C7.19518 13.761 7.20433 13.8952 7.20433 14.0477C7.20433 14.2612 7.62523 14.1514 7.36598 14.5509C7.27143 14.6943 7.20433 14.5296 6.73463 14.5509C5.94468 14.5814 5.81963 14.5509 5.54208 14.7736C4.76738 15.408 4.62708 15.4964 4.56608 15.8319C4.53863 16.0119 4.47763 16.079 4.56608 16.3047C4.91378 17.0794 5.11203 17.3661 4.89548 17.7931C4.71248 18.153 4.91378 18.6379 5.13643 18.9765C5.22183 19.1076 5.33468 19.1442 5.65798 19.1961C5.98128 19.2479 6.12768 18.8667 6.29543 18.6044C6.46318 18.3421 6.41438 18.2536 6.53638 17.6894C6.56078 17.5826 6.56383 17.5704 6.94203 17.3173C6.98334 17.2991 7.02819 17.2903 7.07333 17.2915C7.11846 17.2927 7.16277 17.3039 7.20303 17.3244C7.2433 17.3448 7.27854 17.3739 7.30619 17.4096C7.33384 17.4453 7.35322 17.4867 7.36293 17.5308C7.48188 17.8358 7.77468 17.7351 8.10103 17.4606C8.29928 17.2929 8.71103 17.36 8.79033 17.8297C8.98858 18.8636 8.23218 18.8819 7.53373 19.2327C7.14333 19.4309 7.38428 19.803 7.59168 20.1477C7.77468 20.4527 8.04613 20.2819 7.95768 20.5472C7.94671 20.591 7.92425 20.6311 7.89261 20.6632C7.86097 20.6954 7.82131 20.7185 7.77773 20.7302C7.69207 20.7578 7.60228 20.7701 7.51238 20.7668C7.3784 20.7531 7.24303 20.7678 7.11511 20.8099C6.9872 20.8521 6.8696 20.9207 6.77001 21.0114C6.67042 21.102 6.59108 21.2127 6.53716 21.3361C6.48323 21.4595 6.45594 21.5929 6.45708 21.7276C6.45708 22.182 6.93898 22.8073 7.37208 23.0787C7.71978 23.3014 7.69843 23.0147 8.31758 23.0299C8.65003 23.0299 8.58598 23.3563 8.60428 23.4386C8.62549 23.505 8.66129 23.5657 8.70902 23.6164C8.75676 23.6671 8.81523 23.7064 8.88016 23.7316C8.94508 23.7567 9.01481 23.767 9.08424 23.7617C9.15366 23.7564 9.22102 23.7357 9.28138 23.7009C9.50403 23.4874 9.45218 23.4417 9.54368 23.2617C9.91883 22.5572 10.9375 22.9415 10.5349 23.5362C10.4617 23.643 10.0286 24.4024 10.1445 24.683C10.2604 24.9636 10.5807 25.4181 10.8186 25.2046C11.0565 24.9911 11.1419 25.2046 11.3035 24.9148C11.3572 24.8149 11.4389 24.7328 11.5386 24.6786C11.6383 24.6244 11.7516 24.6005 11.8647 24.6098C12.002 24.6098 12.066 24.7135 12.1697 24.7776C12.2734 24.8416 12.2368 25.0826 12.3558 25.2076C12.856 25.6773 13.2708 25.4364 13.713 25.4028C14.1553 25.3693 13.8381 26.0128 14.323 26.2934C14.364 26.3206 14.3978 26.3572 14.4216 26.4002C14.4454 26.4431 14.4584 26.4912 14.4596 26.5404C14.4608 26.5895 14.4501 26.6382 14.4285 26.6823C14.4068 26.7264 14.3748 26.7646 14.3352 26.7936C14.1248 26.9492 13.896 27.364 14.0668 27.6293C14.3352 28.0441 15.1038 28.1814 15.2868 28.1875C15.5278 28.1875 15.6315 28.4925 15.6803 28.7426C15.7596 29.133 15.54 29.0689 15.4058 29.4044C15.3868 29.4665 15.3894 29.5332 15.4132 29.5936C15.437 29.654 15.4807 29.7045 15.5369 29.7369C15.7886 29.8715 16.0163 30.0467 16.211 30.2554C16.9064 30.9172 16.1774 31.4418 16.4367 31.9481C16.6258 32.3172 15.8267 32.6588 15.4149 31.5455C15.2289 31.027 15.2411 30.9172 15.1099 30.8288C14.9249 30.6576 14.6847 30.5581 14.4328 30.5482C14.3204 30.5557 14.2088 30.5247 14.1162 30.4605C14.0237 30.3962 13.9557 30.3024 13.9235 30.1944C13.8539 29.9626 13.8455 29.7167 13.8991 29.4807C13.8991 28.9683 13.2616 29.2977 12.5327 28.6968C12.2765 28.4864 12.4198 28.2851 12.4351 28.0289C12.4503 27.7727 12.4351 27.791 12.1697 27.0559C12.1105 26.9403 12.0199 26.8437 11.9082 26.7773C11.7965 26.7109 11.6683 26.6775 11.5384 26.6808C10.5197 27.0071 10.7057 27.1596 10.8857 27.9008C10.9436 28.1509 10.6874 28.4132 10.4312 28.1631C10.2863 27.9709 10.1049 27.8093 9.89748 27.6873C9.05568 27.2694 8.98248 29.0537 9.53758 29.3587C10.4038 29.8314 9.56503 30.2737 10.2543 30.7434C10.6173 30.9874 10.9467 30.7708 11.2425 30.4536C11.5384 30.1364 12.1575 30.0815 12.2307 30.356C12.3924 30.9843 12.3131 31.0179 12.493 31.1765C12.673 31.3351 12.798 31.2924 12.9017 31.3259C13.1427 31.4205 13.2708 31.2283 13.4934 31.1612C14.1797 30.9569 13.71 32.1494 14.3322 32.4239C14.686 32.5825 14.811 32.2958 15.0428 32.2928C15.6284 32.2928 15.4241 32.6435 15.9578 32.8143C16.5678 33.0095 16.519 33.3572 16.6868 33.3664C16.8027 33.3664 18.3643 33.4304 18.4527 33.3664C19.4104 32.5185 18.8218 32.125 20.1912 32.369C20.4366 32.3926 20.6825 32.3299 20.8868 32.1919C21.091 32.0539 21.2409 31.8491 21.3106 31.6126C21.5271 30.4536 22.3903 31.2924 23.0338 31.0026C23.3569 30.836 23.6132 30.5637 23.7597 30.231L23.7475 30.2401ZM19.871 47.1219C19.871 46.9267 19.871 46.9267 19.7124 46.9053C19.5538 46.884 19.5751 46.9053 19.5355 47.0151C19.4564 47.192 19.4437 47.3914 19.4997 47.5768C19.5557 47.7622 19.6767 47.9212 19.8405 48.0247C19.8029 47.724 19.8132 47.4193 19.871 47.1219Z" fill="#000001"/>
<path d="M44.7312 26.8397C45.4205 27.2972 43.2673 28.139 42.9501 21.9048C42.9196 21.2948 42.7975 21.0203 42.8189 20.8953C42.8585 20.6787 43.0263 20.7428 43.0751 20.8404C43.4228 21.548 43.2001 25.818 44.7312 26.8397Z" fill="#000001"/>
<path d="M42.7154 29.5842C42.7154 29.9655 42.6575 30.7158 42.4653 31.0177C42.2732 31.3197 42.3891 31.46 42.3616 31.9327C42.3233 32.802 42.3376 33.6729 42.4043 34.5405C42.4043 34.6137 42.7276 35.8794 41.59 36.0655C41.5656 36.0655 39.76 36.1997 39.5404 36.1631C37.991 35.9252 37.9635 36.2546 37.1675 36.038C37.0805 36.0208 36.9981 35.9857 36.9254 35.935C36.8527 35.8842 36.7913 35.8189 36.7452 35.7432C36.699 35.6676 36.6691 35.5831 36.6572 35.4952C36.6454 35.4074 36.6519 35.318 36.6764 35.2328C36.7649 34.7479 36.7283 34.6777 36.6978 32.3689C36.6978 32.0944 36.53 31.8839 36.6612 31.2312C36.6978 31.0574 36.3989 31.0421 36.3745 30.5145C36.2769 28.5106 36.6307 28.7668 38.0642 28.7211C42.81 28.5991 42.7002 28.6204 42.7154 29.5842ZM42.2213 30.7707C42.3642 30.3271 42.4171 29.8594 42.3769 29.3951C42.3433 28.9834 42.2488 28.9803 39.7508 29.0474C36.4355 29.1359 36.6612 28.8644 36.7222 30.1058C36.7222 30.1058 36.527 30.8317 37.0821 30.9628C37.4725 31.0543 37.9971 30.9201 38.8145 31.0482C39.5587 31.1702 39.4519 31.463 39.6288 31.3349C39.8874 31.1491 40.1883 31.0306 40.5042 30.9903C41.4802 30.8042 42.0902 31.155 42.2213 30.7798V30.7707ZM41.654 35.6842C42.264 35.5165 42.1176 34.8424 42.078 34.2507C42.0133 33.2544 42.0133 32.255 42.078 31.2587C41.5485 31.2495 41.0191 31.2831 40.495 31.3593C40.2381 31.4028 39.9955 31.5074 39.7874 31.6643C39.5831 31.8199 39.3726 31.7284 39.1774 31.5606C38.8724 31.2922 38.174 31.3075 37.7683 31.3441C37.5656 31.3656 37.3611 31.3656 37.1583 31.3441C36.954 31.3166 36.9113 31.4203 36.9235 31.6765C36.9235 31.707 37.137 34.2263 36.9662 35.3365C36.8869 35.8367 37.5243 35.8032 37.994 35.7818C38.5028 35.7383 39.015 35.7577 39.519 35.8398C40.2345 35.8847 40.9527 35.8323 41.654 35.6842Z" fill="#000001"/>
<path d="M40.5185 35.2272C40.549 35.4864 40.2623 35.4742 40.2135 35.2851C40.16 34.9832 40.1375 34.6766 40.1464 34.3701C40.1464 34.0987 40.1464 31.8173 40.2898 31.8203C40.671 31.8173 40.3233 33.5954 40.5185 35.2272Z" fill="#000001"/>
<path d="M39.8492 30.5882C39.8533 30.6543 39.8316 30.7193 39.7888 30.7697C39.7459 30.8201 39.6853 30.852 39.6195 30.8587C39.5536 30.8654 39.4878 30.8464 39.4357 30.8057C39.3836 30.7649 39.3492 30.7056 39.3399 30.6401C39.2819 30.2314 39.8828 30.2375 39.8492 30.5882Z" fill="#000001"/>
<path d="M38.8778 13.2392C39.1615 12.2754 39.7928 13.1233 39.5946 13.2026C39.4451 13.2575 39.2896 12.864 39.1615 13.2178C39.0527 13.4607 39.0208 13.731 39.07 13.9925C39.1371 14.1481 39.4695 14.0901 39.5397 14.4073C39.558 14.4914 39.5472 14.5792 39.509 14.6563C39.4707 14.7334 39.4073 14.7951 39.3292 14.8313C39.2194 14.8831 39.0639 14.935 39.0425 14.8069C39.012 14.6269 39.3201 14.6879 39.3109 14.4836C39.3018 14.2792 38.4966 14.5263 38.8778 13.2392Z" fill="#000001"/>
<path d="M39.1253 6.5478C39.3266 6.73995 38.8203 6.99005 38.7044 7.23405C38.6495 7.35605 38.4238 7.38655 38.4238 7.1151C38.4238 7.1151 38.4238 7.048 38.4635 7.02665C38.7349 6.84365 38.9637 6.40445 39.1253 6.5478Z" fill="#000001"/>
<path d="M38.9453 10.3697C38.9485 10.3934 38.9466 10.4175 38.9398 10.4404C38.9329 10.4634 38.9212 10.4846 38.9054 10.5026C38.8897 10.5206 38.8703 10.5351 38.8485 10.545C38.8267 10.5549 38.803 10.56 38.7791 10.56C38.7551 10.56 38.7315 10.5549 38.7097 10.545C38.6879 10.5351 38.6685 10.5206 38.6527 10.5026C38.637 10.4846 38.6253 10.4634 38.6184 10.4404C38.6115 10.4175 38.6096 10.3934 38.6129 10.3697C38.619 10.1287 38.9392 10.1043 38.9453 10.3697Z" fill="#000001"/>
<path d="M38.8025 11.3694C38.7614 11.3719 38.7209 11.3587 38.6893 11.3324C38.6576 11.3061 38.6371 11.2688 38.6321 11.2279C38.627 11.1871 38.6377 11.1458 38.662 11.1126C38.6864 11.0794 38.7224 11.0567 38.7629 11.0491C38.804 11.0466 38.8445 11.0598 38.8761 11.0861C38.9078 11.1124 38.9283 11.1498 38.9333 11.1906C38.9384 11.2315 38.9277 11.2727 38.9034 11.3059C38.8791 11.3391 38.843 11.3618 38.8025 11.3694Z" fill="#000001"/>
<path d="M38.5401 32.1255C38.5401 34.7668 38.656 34.3672 38.598 35.3158C38.598 35.4988 38.3388 35.5049 38.3296 35.3432C38.2292 34.2145 38.2098 33.0801 38.2717 31.9486C38.2717 31.851 38.3327 31.7778 38.4303 31.793C38.5279 31.8083 38.537 32.0004 38.5401 32.1255Z" fill="#000001"/>
<path d="M38.2014 11.6903C38.1979 11.6701 38.1986 11.6493 38.2034 11.6293C38.2082 11.6093 38.217 11.5904 38.2292 11.5739C38.2415 11.5574 38.2569 11.5435 38.2747 11.5331C38.2925 11.5227 38.3121 11.516 38.3325 11.5134C38.3528 11.5104 38.3734 11.5114 38.3932 11.5164C38.4131 11.5213 38.4318 11.5301 38.4482 11.5423C38.4646 11.5545 38.4785 11.5698 38.489 11.5873C38.4995 11.6049 38.5065 11.6243 38.5094 11.6446C38.5172 11.6666 38.52 11.6901 38.5176 11.7134C38.5152 11.7366 38.5077 11.7591 38.4957 11.7791C38.4836 11.7991 38.4673 11.8163 38.4478 11.8292C38.4283 11.8422 38.4063 11.8507 38.3831 11.8541C38.36 11.8576 38.3364 11.8558 38.314 11.8491C38.2916 11.8423 38.271 11.8307 38.2537 11.8151C38.2363 11.7994 38.2226 11.7801 38.2136 11.7585C38.2045 11.737 38.2004 11.7137 38.2014 11.6903Z" fill="#000001"/>
<path d="M38.4003 9.90853C38.4003 10.1617 38.0282 10.1739 38.0434 9.90853C38.0491 9.86522 38.0703 9.82545 38.1032 9.79665C38.136 9.76784 38.1782 9.75195 38.2218 9.75195C38.2655 9.75195 38.3077 9.76784 38.3405 9.79665C38.3734 9.82545 38.3946 9.86522 38.4003 9.90853Z" fill="#000001"/>
<path d="M38.2528 10.6285C38.2765 10.6253 38.3007 10.6272 38.3236 10.634C38.3465 10.6409 38.3677 10.6526 38.3857 10.6684C38.4038 10.6841 38.4182 10.7035 38.4281 10.7253C38.438 10.7471 38.4431 10.7708 38.4431 10.7947C38.4431 10.8186 38.438 10.8423 38.4281 10.8641C38.4182 10.8859 38.4038 10.9053 38.3857 10.921C38.3677 10.9368 38.3465 10.9485 38.3236 10.9554C38.3007 10.9623 38.2765 10.9641 38.2528 10.9609C38.2291 10.9641 38.205 10.9623 38.182 10.9554C38.1591 10.9485 38.1379 10.9368 38.1199 10.921C38.1019 10.9053 38.0874 10.8859 38.0775 10.8641C38.0676 10.8423 38.0625 10.8186 38.0625 10.7947C38.0625 10.7708 38.0676 10.7471 38.0775 10.7253C38.0874 10.7035 38.1019 10.6841 38.1199 10.6684C38.1379 10.6526 38.1591 10.6409 38.182 10.634C38.205 10.6272 38.2291 10.6253 38.2528 10.6285Z" fill="#000001"/>
<path d="M37.8206 12.199C37.83 12.1659 37.85 12.1367 37.8775 12.116C37.9051 12.0952 37.9386 12.084 37.9731 12.084C38.0075 12.084 38.0411 12.0952 38.0686 12.116C38.0961 12.1367 38.1161 12.1659 38.1256 12.199C38.1323 12.2226 38.1335 12.2475 38.129 12.2716C38.1245 12.2957 38.1145 12.3185 38.0997 12.3381C38.0849 12.3577 38.0658 12.3736 38.0438 12.3845C38.0218 12.3955 37.9976 12.4012 37.9731 12.4012C37.9485 12.4012 37.9243 12.3955 37.9023 12.3845C37.8804 12.3736 37.8612 12.3577 37.8464 12.3381C37.8317 12.3185 37.8216 12.2957 37.8171 12.2716C37.8126 12.2475 37.8138 12.2226 37.8206 12.199Z" fill="#000001"/>
<path d="M37.5997 11.266C37.601 11.2322 37.6123 11.1994 37.6322 11.172C37.6521 11.1446 37.6798 11.1237 37.7116 11.112C37.7434 11.1003 37.778 11.0984 37.8109 11.1064C37.8438 11.1145 37.8736 11.1321 37.8965 11.1571C37.9194 11.1822 37.9343 11.2134 37.9393 11.2469C37.9444 11.2805 37.9393 11.3147 37.9248 11.3454C37.9103 11.376 37.8871 11.4017 37.8579 11.419C37.8288 11.4364 37.7952 11.4447 37.7614 11.4429C37.7166 11.4406 37.6746 11.4207 37.6443 11.3876C37.6141 11.3545 37.5981 11.3108 37.5997 11.266Z" fill="#000001"/>
<path d="M37.6868 24.1948C37.6868 24.4083 37.3818 24.4998 37.2934 24.2863C37.1744 23.9325 37.574 23.6976 37.6868 24.1948Z" fill="#000001"/>
<path d="M37.6068 10.2354C37.863 10.2354 37.8112 10.6044 37.6068 10.6014C37.5583 10.6014 37.5117 10.5821 37.4774 10.5478C37.4431 10.5134 37.4238 10.4669 37.4238 10.4184C37.4238 10.3698 37.4431 10.3233 37.4774 10.289C37.5117 10.2546 37.5583 10.2354 37.6068 10.2354Z" fill="#000001"/>
<path d="M37.2109 9.70717C37.2109 9.66026 37.2296 9.61526 37.2627 9.58209C37.2959 9.54891 37.3409 9.53027 37.3878 9.53027C37.4348 9.53027 37.4797 9.54891 37.5129 9.58209C37.5461 9.61526 37.5647 9.66026 37.5647 9.70717C37.5647 9.75409 37.5461 9.79909 37.5129 9.83226C37.4797 9.86544 37.4348 9.88407 37.3878 9.88407C37.3409 9.88407 37.2959 9.86544 37.2627 9.83226C37.2296 9.79909 37.2109 9.75409 37.2109 9.70717Z" fill="#000001"/>
<path d="M36.3378 11.3273C36.6153 11.4706 36.3805 11.6963 36.2341 11.6841C36.0877 11.6719 35.6759 11.3791 35.0507 11.1565C34.8998 11.0988 34.7336 11.0959 34.5808 11.1483C34.4281 11.2007 34.2986 11.3051 34.215 11.4432C34.1509 11.6323 33.7941 11.6567 33.8673 11.4096C33.9418 11.2171 34.075 11.0529 34.2479 10.9401C34.4209 10.8274 34.6248 10.7718 34.8311 10.7813C35.3462 10.9256 35.8498 11.108 36.3378 11.3273Z" fill="#000001"/>
<path d="M35.7258 13.9474C35.7959 14.1579 35.5977 14.5574 35.0731 14.533C34.8016 14.5147 34.8413 14.2555 34.9389 14.2646C35.0638 14.2849 35.1917 14.2733 35.311 14.2311C35.3569 14.2118 35.3963 14.1796 35.4244 14.1385C35.4525 14.0974 35.4682 14.0491 35.4696 13.9993C35.4879 13.7431 35.6861 13.8193 35.7258 13.9474Z" fill="#000001"/>
<path d="M35.5015 53.045C35.532 53.5727 34.8671 53.4568 35.0379 52.9718C35.1477 52.6607 35.4862 52.7949 35.5015 53.045Z" fill="#000001"/>
<path d="M35.3556 17.6191C35.441 17.7563 35.0751 18.3084 34.764 18.2535C34.6542 18.223 34.4833 18.2138 34.5291 18.0461C34.5349 18.0211 34.5503 17.9994 34.572 17.9857C34.5937 17.972 34.6199 17.9674 34.645 17.9729C35.1543 18.0339 35.1208 17.2439 35.3556 17.6191Z" fill="#000001"/>
<path d="M35.1777 13.7914C35.1866 13.8338 35.1807 13.8781 35.1609 13.9167C35.1412 13.9553 35.1087 13.9859 35.069 14.0034C35.0293 14.021 34.9848 14.0243 34.943 14.0129C34.9011 14.0015 34.8645 13.9761 34.8391 13.9408C34.708 13.7517 34.7629 13.5596 34.8605 13.5199C34.9581 13.4803 35.1685 13.5535 35.1777 13.7914Z" fill="#000001"/>
<path d="M35.1243 37.4133C35.1263 37.4438 35.1222 37.4743 35.1124 37.5032C35.1027 37.5321 35.0873 37.5588 35.0671 37.5817C35.047 37.6047 35.0226 37.6234 34.9953 37.6369C34.9679 37.6504 34.9381 37.6584 34.9077 37.6604C34.8773 37.6624 34.8467 37.6584 34.8178 37.6486C34.789 37.6388 34.7623 37.6234 34.7393 37.6033C34.7164 37.5832 34.6976 37.5587 34.6841 37.5314C34.6706 37.504 34.6627 37.4743 34.6607 37.4438C34.6587 37.4134 34.6627 37.3829 34.6725 37.354C34.6823 37.3251 34.6977 37.2984 34.7178 37.2755C34.7379 37.2525 34.7623 37.2338 34.7897 37.2203C34.817 37.2068 34.8468 37.1988 34.8772 37.1968C34.9076 37.1948 34.9382 37.1988 34.9671 37.2086C34.996 37.2184 35.0226 37.2338 35.0456 37.2539C35.0685 37.274 35.0873 37.2984 35.1008 37.3258C35.1143 37.3532 35.1223 37.3829 35.1243 37.4133Z" fill="#000001"/>
<path d="M34.6517 40.5006C34.731 40.3877 35.094 40.467 35.0421 40.7507C34.9506 41.2326 34.3315 40.9672 34.6517 40.5006Z" fill="#000001"/>
<path d="M34.6461 49.2814C34.715 49.2789 34.7822 49.3033 34.8334 49.3494C34.8846 49.3955 34.9159 49.4597 34.9206 49.5285C34.9227 49.5628 34.9179 49.5971 34.9066 49.6296C34.8952 49.662 34.8775 49.6919 34.8545 49.7174C34.8316 49.743 34.8037 49.7637 34.7726 49.7784C34.7416 49.7931 34.7079 49.8014 34.6736 49.803C34.2801 49.8243 34.4204 49.2784 34.6461 49.2814Z" fill="#000001"/>
<path d="M34.4224 46.2217C34.6054 46.2522 34.6786 46.3162 34.6664 46.4596C34.6664 46.6578 34.5657 46.7646 34.4224 46.7646C34.1601 46.7432 34.1265 46.304 34.4224 46.2217Z" fill="#000001"/>
<path d="M34.4126 33.8535C34.5865 33.8718 34.6597 33.945 34.6505 34.1067C34.6292 34.494 34.1503 34.4361 34.1747 34.1219C34.193 33.8932 34.2937 33.8535 34.4126 33.8535Z" fill="#000001"/>
<path d="M34.575 17.4457C34.7092 17.5067 34.6238 17.7202 34.5018 17.711C32.3882 17.5463 32.3211 17.9398 31.9703 17.9001C31.7294 17.8727 31.949 17.5097 33.2574 17.3237C33.8247 17.3389 34.1602 17.2688 34.575 17.4457Z" fill="#000001"/>
<path d="M34.0744 30.8194C34.0768 30.7522 34.1058 30.6888 34.155 30.643C34.2042 30.5973 34.2695 30.5729 34.3367 30.5754C34.4038 30.5778 34.4672 30.6068 34.513 30.656C34.5588 30.7052 34.5831 30.7705 34.5807 30.8377C34.5783 30.9048 34.5493 30.9682 34.5001 31.014C34.4509 31.0597 34.3855 31.0841 34.3184 31.0817C34.2512 31.0792 34.1878 31.0502 34.1421 31.001C34.0963 30.9519 34.072 30.8865 34.0744 30.8194Z" fill="#000001"/>
<path d="M34.404 27.6419C34.4254 28.011 33.9343 28.0628 33.9221 27.7243C33.9099 27.3857 34.3888 27.3979 34.404 27.6419Z" fill="#000001"/>
<path d="M31.326 10.5801C32.1922 10.5801 32.1952 11.1901 31.631 10.9796C30.6855 10.6228 30.0511 11.9343 29.6912 11.8611C29.6332 11.8611 29.5478 11.8336 29.5509 11.7604C29.5566 11.696 29.5846 11.6356 29.6302 11.5896C30.4171 10.8271 30.8044 10.5862 31.326 10.5801Z" fill="#000001"/>
<path d="M31.1949 14.5629C31.3718 14.5629 31.3077 14.7611 31.262 14.7977C31.1919 14.8423 31.1123 14.8696 31.0296 14.8776C30.9469 14.8855 30.8635 14.8739 30.7862 14.8435C30.3348 14.7093 30.5239 14.203 30.7374 14.4683C30.9082 14.6757 31.082 14.5751 31.1949 14.5629Z" fill="#000001"/>
<path d="M31.172 13.9191C31.2818 14.1052 31.2178 14.2668 31.1019 14.3065C30.986 14.3461 30.8762 14.2211 30.8426 14.1021C30.7755 13.8612 31.0439 13.6995 31.172 13.9191Z" fill="#000001"/>
<path d="M30.9878 24.3721C31.1129 24.7473 30.6035 24.8022 30.6035 24.4301C30.6035 24.2928 30.6401 24.2318 30.7377 24.2166C30.8841 24.1952 30.9421 24.2318 30.9878 24.3721Z" fill="#000001"/>
<path d="M21.2257 39.8118C21.1312 41.8309 18.6027 41.6235 18.3038 39.7478C17.9165 37.3352 21.1342 37.3169 21.2257 39.8118ZM19.3225 40.7268C19.9966 41.1874 20.8658 40.7573 20.8872 39.7691C20.7408 38.3631 19.4811 38.0032 18.9535 38.5034C18.4258 39.0036 18.4197 40.1016 19.3225 40.7177V40.7268Z" fill="#000001"/>
</g>
<rect x="0.5" y="0.5" width="59" height="59" rx="29.5" stroke="#ABEC9A"/>
<defs>
<clipPath id="clip0_683_10042">
<rect width="60" height="60" rx="30" fill="white"/>
</clipPath>
</defs>
</svg>
