<svg width="353" height="231" viewBox="0 0 353 231" fill="none" xmlns="http://www.w3.org/2000/svg">
<path fill-rule="evenodd" clip-rule="evenodd" d="M20.7647 0.536249C20.7647 39.2108 53.1028 48.8538 92.5219 48.8538H260.478C311.412 48.8538 353 69.6279 353 119.463C353 169.299 311.412 184.073 260.478 184.073H92.5219C53.1028 184.073 20.7647 191.716 20.7647 230.39C13 230.39 0 230.39 0 230.39C0 180.555 41.5876 163.781 92.5219 163.781H260.478C299.897 163.781 332.235 158.138 332.235 119.463C332.235 80.7887 299.897 69.1457 260.478 69.1457H92.5219C41.5876 69.1457 0 50.3716 0 0.536249H20.7647Z" fill="#CFCCFF"/>
</svg>
